<svg xmlns="http://www.w3.org/2000/svg" viewBox="0 0 482.39 466.05"><g id="Layer_2" data-name="Layer 2"><g id="Layer_1-2" data-name="Layer 1"><polygon points="165.28 166 165.28 166 165.28 257.71 165.28 257.71 173.8 257.71 176.3 257.71 184.82 257.71 187.32 257.71 195.85 257.71 198.35 257.71 206.87 257.71 206.87 166 198.35 166 195.85 166 187.32 166 184.82 166 176.3 166 173.8 166 165.28 166"/><polygon points="206.87 70.49 198.35 81.44 198.35 163.5 206.87 163.5 206.87 70.49"/><polygon points="184.82 98.81 176.3 109.75 176.3 163.5 184.82 163.5 184.82 98.81"/><polygon points="261.99 53.12 253.47 42.17 253.47 257.71 261.99 257.71 261.99 53.12"/><polygon points="217.9 56.33 209.37 67.28 209.37 163.5 209.37 257.71 217.9 257.71 217.9 56.33"/><polygon points="165.28 163.5 173.8 163.5 173.8 112.97 163.89 125.69 165.28 125.69 165.28 163.5"/><polygon points="250.97 38.96 242.44 28.02 242.44 257.71 250.97 257.71 250.97 38.96"/><polygon points="228.92 42.17 220.4 53.12 220.4 257.71 228.92 257.71 228.92 42.17"/><polygon points="239.94 28.02 231.42 38.96 231.42 257.71 239.94 257.71 239.94 28.02"/><polygon points="89.62 257.71 98.14 257.71 98.14 202.09 88.79 211.85 89.62 211.85 89.62 257.71"/><polygon points="111.67 257.71 119.44 257.71 119.44 179.87 111.11 188.55 111.67 188.55 111.67 257.71"/><polygon points="162.78 163.5 162.78 127.12 154.25 138.07 154.25 257.71 162.78 257.71 162.78 163.5"/><polygon points="87.12 213.6 78.6 222.5 78.6 257.71 87.12 257.71 87.12 213.6"/><polygon points="109.17 190.58 100.64 199.48 100.64 257.71 109.17 257.71 109.17 190.58"/><polygon points="67.57 257.71 76.1 257.71 76.1 225.11 66.54 235.08 67.57 235.08 67.57 257.71"/><polygon points="151.75 141.28 143.23 152.23 143.23 257.71 151.75 257.71 151.75 141.28"/><polygon points="140.73 155.44 132.21 166.39 132.21 257.71 140.73 257.71 140.73 155.44"/><polygon points="129.71 169.15 121.94 177.25 121.94 257.71 129.71 257.71 129.71 169.15"/><polygon points="361.2 178.03 352.68 169.14 352.68 257.71 361.2 257.71 361.2 178.03"/><polygon points="394.28 212.56 385.75 203.66 385.75 257.71 394.28 257.71 394.28 212.56"/><polygon points="372.23 189.54 363.7 180.65 363.7 257.71 372.23 257.71 372.23 189.54"/><polygon points="405.3 224.07 396.78 215.17 396.78 257.71 405.3 257.71 405.3 224.07"/><polygon points="383.25 201.05 374.73 192.16 374.73 257.71 383.25 257.71 383.25 201.05"/><polygon points="40.03 420.22 33.46 466.05 452.04 466.05 445.46 420.22 40.03 420.22"/><polygon points="416.32 235.58 407.8 226.68 407.8 257.71 416.32 257.71 416.32 235.58"/><polygon points="428.59 248.39 428.59 257.71 437.52 257.71 428.59 248.39"/><polygon points="426.09 245.78 418.82 238.19 418.82 257.71 426.09 257.71 426.09 245.78"/><polygon points="339.16 152.23 330.63 141.28 330.63 257.71 339.16 257.71 339.16 152.23"/><polygon points="284.04 81.44 275.51 70.49 275.51 163.5 284.04 163.5 284.04 81.44"/><polygon points="295.06 95.6 286.54 84.65 286.54 163.5 295.06 163.5 295.06 95.6"/><polygon points="286.54 257.71 295.06 257.71 297.56 257.71 306.08 257.71 308.58 257.71 317.11 257.71 317.11 166 308.58 166 306.08 166 297.56 166 295.06 166 286.54 166 284.04 166 275.51 166 275.51 257.71 284.04 257.71 286.54 257.71"/><polygon points="306.08 109.75 297.56 98.81 297.56 163.5 306.08 163.5 306.08 109.75"/><polygon points="328.13 138.07 319.61 127.12 319.61 163.5 319.61 257.71 328.13 257.71 328.13 138.07"/><polygon points="273.01 163.5 273.01 67.28 264.49 56.33 264.49 257.71 273.01 257.71 273.01 163.5"/><polygon points="317.11 123.91 308.58 112.97 308.58 163.5 317.11 163.5 317.11 123.91"/><polygon points="350.18 166.39 341.66 155.44 341.66 257.71 350.18 257.71 350.18 166.39"/><polygon points="195.85 84.65 187.32 95.6 187.32 163.5 195.85 163.5 195.85 84.65"/><rect x="369.1" y="342.3" width="16.95" height="12.68"/><rect x="246.37" y="357.48" width="16.95" height="10.52"/><rect x="369.1" y="314.14" width="16.95" height="11.19"/><rect x="369.1" y="327.83" width="16.95" height="11.97"/><polygon points="224.42 370.5 222.96 370.5 222.96 373.32 267.86 373.32 267.86 370.5 265.82 370.5 224.42 370.5"/><rect x="226.92" y="342.3" width="16.95" height="12.68"/><rect x="226.92" y="314.14" width="16.95" height="11.19"/><rect x="226.92" y="327.83" width="16.95" height="11.97"/><rect x="226.92" y="357.48" width="16.95" height="10.52"/><path d="M443.46,286.62H42V401.24H443.46Zm-300.14,89.2H93.42V368h4V311.64h41.4V368h4.54Zm127,0h-49.9V368h4V311.64h41.4V368h4.54Zm122.73,0h-49.9V368h4V311.64h41.4V368h4.54Z"/><rect x="349.65" y="357.48" width="16.95" height="10.52"/><polygon points="347.15 370.5 345.69 370.5 345.69 373.32 390.59 373.32 390.59 370.5 388.55 370.5 347.15 370.5"/><polygon points="42.04 406.26 42.04 417.72 443.46 417.72 443.46 406.26 443.1 403.75 42.4 403.75 42.04 406.26"/><rect x="349.65" y="314.14" width="16.95" height="11.19"/><rect x="349.65" y="342.3" width="16.95" height="12.68"/><rect x="369.1" y="357.48" width="16.95" height="10.52"/><rect x="349.65" y="327.83" width="16.95" height="11.97"/><rect x="119.33" y="327.83" width="16.95" height="11.97"/><rect x="119.33" y="314.14" width="16.95" height="11.19"/><polygon points="65.07 236.62 57.26 244.78 57.26 257.71 65.07 257.71 65.07 236.62"/><rect x="119.33" y="342.3" width="16.95" height="12.68"/><rect x="119.33" y="357.48" width="16.95" height="10.52"/><rect x="99.88" y="314.14" width="16.95" height="11.19"/><polygon points="54.76 257.71 54.76 247.38 44.87 257.71 54.76 257.71"/><path d="M470.44,271.65l-94.79-99L241.19,0,106.7,172.74l0,0L11.94,271.65Zm-372.3-73.4h.22l31.34-32.71h0v-.78h.61L241.19,22.34,352.07,164.75h.61v.78h0L406.77,222h1v1.07l35.58,37.14H39l59.13-61.73Z"/><polygon points="0 284.12 39.54 284.12 445.96 284.12 482.38 284.12 472.84 274.15 9.55 274.15 0 284.12"/><rect x="246.37" y="314.14" width="16.95" height="11.19"/><rect x="246.37" y="342.3" width="16.95" height="12.68"/><polygon points="97.38 370.5 95.92 370.5 95.92 373.32 140.82 373.32 140.82 370.5 138.78 370.5 97.38 370.5"/><rect x="99.88" y="327.83" width="16.95" height="11.97"/><rect x="99.88" y="357.48" width="16.95" height="10.52"/><rect x="246.37" y="327.83" width="16.95" height="11.97"/><rect x="99.88" y="342.3" width="16.95" height="12.68"/></g></g></svg>