<svg xmlns="http://www.w3.org/2000/svg" viewBox="0 0 415.1 422.61"><g id="Layer_2" data-name="Layer 2"><g id="Layer_1-2" data-name="Layer 1"><path d="M180,88.8l-.75-.27a101.33,101.33,0,0,0-62.69,0l-.74.27v140H180Zm-2.26,137.76H118.08V90.4a99.26,99.26,0,0,1,59.67,0Z"/><path d="M122.16,94.15V223.59h51.51V94.15a75,75,0,0,0-51.51,0Z"/><path d="M180,259.12H115.83v98H180Zm-2.26,95.78H118.08V261.37h59.67Z"/><path d="M172.51,265.68H123.33v84.91h49.18Zm-2.26,82.66H125.58v-80.4h44.67Z"/><path d="M180,362.92H115.83V391H180Zm-2.26,25.84H118.08V365.17h59.67Z"/><path d="M172.51,368.61H123.33v16.71h49.18Zm-2.26,14.46H125.58V370.86h44.67Z"/><path d="M299.27,88.8l-.75-.27a101.33,101.33,0,0,0-62.69,0l-.74.27v140h64.18ZM297,226.56H237.34V90.4a99.26,99.26,0,0,1,59.67,0Z"/><path d="M241.42,223.59h51.52V94.15a75,75,0,0,0-51.52,0Z"/><path d="M299.27,259.12H235.09v98h64.18ZM297,354.9H237.34V261.37H297Z"/><path d="M291.77,265.68H242.59v84.91h49.18Zm-2.26,82.66H244.84v-80.4h44.67Z"/><path d="M299.27,362.92H235.09V391h64.18ZM297,388.76H237.34V365.17H297Z"/><path d="M291.77,368.61H242.59v16.71h49.18Zm-2.26,14.46H244.84V370.86h44.67Z"/><path d="M415.1,0H0V47.06H38.15v64.59H62.81v311H352.28v-311H377V47.06H415.1Zm-213,2.26H412.84v9.57H2.26V2.26ZM40.4,30.86c0-1,.53-1.78,1-1.78H373.72c.45,0,1,.78,1,1.78v1.25c0,1-.52,1.77-1,1.77H41.38c-.45,0-1-.77-1-1.77ZM213,26.77H22.34a22.07,22.07,0,0,0-7.12-7.33H399.88a22,22,0,0,0-7.13,7.33Zm193.66-9.58H8.42v-3.1H406.67ZM40.4,47.06H62.81v54.76H40.4Zm0,62.34v-5.32H62.81v5.32Zm51.4,311V408.79H201v11.56ZM201,401.19H91.8V68.44H201Zm0,2.26v3.09H91.8v-3.09Zm2.25,16.9V68.44h8.67V420.35ZM323.3,401.19H214.14V68.44H323.3Zm0,5.35H214.14v-3.09H323.3ZM214.14,420.35V408.79H323.3v11.56Zm111.41,0V66.18h-236V420.35H77.16V56.12H337.93V420.35Zm24.48,0h-9.84V53.86H74.91V420.35H65.07V47.06H350V420.35Zm24.66-311H352.28v-5.32h22.41Zm0-7.58H352.28V47.06h22.41Zm2.26-57H2.26V14.09H6.17v5.35H7.29c8.64,0,13.34,8.88,13.39,9L21,29H38.51a4.75,4.75,0,0,0-.36,1.84v1.25c0,2.26,1.42,4,3.23,4H373.72c1.81,0,3.23-1.77,3.23-4V30.86a4.94,4.94,0,0,0-.36-1.84H394.1l.31-.61c0-.09,4.75-9,13.39-9h1.13V14.09h3.91V44.8Z"/></g></g></svg>