<svg xmlns="http://www.w3.org/2000/svg" viewBox="0 0 532.92 259.63"><g id="Layer_2" data-name="Layer 2"><g id="Layer_1-2" data-name="Layer 1"><path d="M532.8,208.59c-49.68,32.08-90.42,49.85-182.08,33.24A244.17,244.17,0,0,0,291,238.32a168.61,168.61,0,0,1,35.25-27.86C348.9,197,382.92,188.35,429.2,195.84l3.29-9.77a158.38,158.38,0,0,0-94,13.35c-4.06-4.56-15-16-32.81-28.81,14.74-15.43,43.29-32.47,76.53-45.67,34.61-13.73,69.36-16,92.17-14.49C492,111.6,514.09,114,530.88,123.2l1.92-3.51c-14.51-7.92-38.54-16.53-59.65-18-17.48-6-29.27-17.56-41.74-29.8-18.31-18-37.24-36.56-75.35-36.56-22.1,0-42.43,8.69-63.87,20.78a155.62,155.62,0,0,0-20.3-8.79A27.19,27.19,0,1,0,229,38.65c-48.78,0-116.76,48.64-151.66,96.26a201.92,201.92,0,0,0-23.49,11.24C31.88,158.48,11.74,175.25,0,191l3.06,13c11.42-15.33,34.57-38.82,56.09-50.88C88,137,116.53,124.94,148,124.94a274.09,274.09,0,0,1,74.92,10.25c-7.9.57-18.59,1.6-29.48,3.45-29.29,5-46,13.29-49.68,24.68a11.33,11.33,0,0,0,.59,9.31c3.81,6.81,15.26,9.58,27.38,12.51,12.65,3.06,25.73,6.22,30,13.73,1.73,3,1.91,6.65.55,11-4.08,13.22-25.2,25.32-61.1,35a449.32,449.32,0,0,1-54.41,10.76l.49,4c4.41-.54,108.08-13.65,118.84-48.53,1.68-5.43,1.38-10.21-.89-14.2-5.13-9-19.07-12.39-32.54-15.65-10.75-2.6-21.87-5.29-24.83-10.57a7.39,7.39,0,0,1-.27-6.13c6.26-19.39,62.77-25.24,86.33-26a258.16,258.16,0,0,1,55.47,25.89c24.46,15.25,39.77,30.65,45.41,36.79-3.83,1.93-7.4,3.9-10.67,5.85-22.78,13.59-36.17,28.48-38.91,31.68-40.4,3.69-64.84,16.71-65.19,16.9l1.92,3.52c.5-.28,51.39-27.33,128.08-13.43,48.44,8.78,78.85,11.29,105,8.65,27.53-2.77,50.84-11.42,77.95-28.93ZM231.62,49.33C248,50.4,271.28,51.05,288,58.55c-6.93,4-14,8.35-21.3,12.83-33,20.22-70.38,43.15-118.83,49.56a188.62,188.62,0,0,0-63.41,11.29C120.67,86.14,185.59,46.32,231.62,49.33ZM167,121.57c40.4-9.15,72.78-29,101.79-46.78C287.11,63.53,304,53.18,320.83,46.61c-6.32,4.65-10.43,10.15-12,16.2C305.94,73.89,317,78.3,326.67,82.19c9.52,3.8,18.51,7.4,18.1,15.9-.53,10.85-30.09,28.82-79.07,48.08l-1,.38a266.3,266.3,0,0,0-29.12-11.62v-.41l-1.12,0A274.11,274.11,0,0,0,167,121.57Zm102.69,27.34c30.33-12.07,78.29-33.77,79.11-50.62.56-11.35-10.68-15.85-20.6-19.82C317.3,74.13,310.84,71,312.7,63.82c4.44-17,31-23.44,32-23.66a81.15,81.15,0,0,1,11.37-.81c36.48,0,54.81,18,72.55,35.41,10,9.86,20.37,20,33.88,26.79-22.41.73-51.48,7.67-81.72,19.68-34,13.48-63.25,31-78.28,47l.57.54q-5.34-3.74-11.43-7.56C285.22,157.16,277.88,153,269.65,148.91Z"/></g></g></svg>