<svg xmlns="http://www.w3.org/2000/svg" viewBox="0 0 313.66 426.68"><g id="Layer_2" data-name="Layer 2"><g id="Layer_1-2" data-name="Layer 1"><path d="M304.27,145.05C274.24,68.26,198.47,58.52,180,36.77S156.83,0,156.83,0s-4.78,15-23.21,36.77S39.42,68.26,9.39,145.05,25.77,304.17,86.52,304.17c42.25,0,59.74-17.19,66.47-27.66-.51,2.91-1,5.82-1.57,8.72l-3.74,19.89q-3.8,19.89-7.74,39.75t-8,39.68l-2.07,9.87a87.07,87.07,0,0,0-1.6,10.56,81.57,81.57,0,0,0-.23,10.72c.06,1.79.22,3.58.41,5.38.12.9.23,1.81.38,2.71l.23,1.38c.1.49.17.89.32,1.51l9.43-2.49c-.06-.2-.16-.62-.24-1l-.23-1.11c-.15-.75-.28-1.52-.4-2.29-.22-1.55-.42-3.12-.53-4.7a72,72,0,0,1-.13-9.52,79.92,79.92,0,0,1,1.09-9.49l1.74-10q3.38-20,6.59-40t6.33-40l3-20.05c.69-4.72,1.38-9.43,2-14.17,4,8.73,19.55,32.34,69.07,32.34C287.89,304.17,334.31,221.84,304.27,145.05ZM285.06,204l14.91-2,.41,3L285.26,207H261.42l-11,8.52-47.1,15.44-42.57,33.54,28.73,2.65,45.25-13.47,30.68-15.46,34.05-19.76,1.51,2.59-31.65,18.36,16.52,7.76-1.28,2.71-18.45-8.66L243.6,252.49l10.67,7.62,26.17,1.11-.12,3-27.07-1.14L240.57,254l-4.9,2.47-16.62,4.94,16.87,16,25.18,3.22-.38,3-26.15-3.34-18.83-17.86-10.57,3.15,18.77,22.33L240.12,294l-1.06,2.81-16.91-6.36L202.1,266.57l.17-.15-10.82,3.22L195,281.8l9,6.64L216.16,294l-1.25,2.73L202.36,291l-10-7.34L188.44,270l-31.68-2.93H137l-16.78,16.82L96.1,296.7l-1.41-2.65,23.69-12.56,14.36-14.39H111.53l-6.75-2.32-23,19.3-26.28,6.53-.72-2.91,25.6-6.37,21.11-17.69-20.23-7L61.81,268.47,39.7,272.61l-.55-2.95,21.57-4,17.07-10.35-16.4-7.06-14.75,8.33H26.79v-3H45.85l12.59-7.11-19.08-13.2-13.43,7.93L13.67,236.9l1-2.84,11,3.81,10.84-6.41L17.22,220.32l-.16-.24-6.39,2.81-1.2-2.75,5.85-2.57L7.47,206.2l2.47-1.7,9.36,13.56,21,12.15,21.71,15,19.61,8.4L112,264.1h40.81l-49.07-43-25.93-5.59-23.55-9.83L35.22,192.87l-17.35-9.8h-7.8v-3h6.26l-3.62-14.2,2.91-.74,3.94,15.45,17.29,9.77,19,12.76,23,9.58,22,4.72-25.72-34.5L59.67,179.3,38.41,166.65,22.54,146.26l2.37-1.84,15.52,19.94,20.38,12.13,13.11,3L66.8,153.05,49.34,142.38,34.84,124.5l2.33-1.89,14.18,17.48,14.29,8.74-6.9-25.08v-22h3v21.64l7.8,28.34,7.86,29.22,28.17,37.78,49.57,43.44-2.52-47.48L118,166.26,99.64,135.07,94.09,115.9l-16.6-13,1.85-2.36L93.9,111.94V79.86h3v35l5.52,19.06,18.13,30.81,32.27,45.09,2.49-47.64L121.94,102.2l-3.37-22.11-4.16-19,2.93-.64,4.18,19.11,3.3,21.67L155.88,157l5.53-48-21-25.37-5.59-22.88V44.37h3v16.2l5.34,21.67,18.28,22.12v-34l-4.43-47,3-.28,4.16,44.21,12.22-10.62V44.37h3V58L164.47,71v34.19l16.32-14.57,10.63-33.73,2.86.9L183.39,92.31l-19,17L158.32,162l-.2,3.76,24.77-26.44,18.93-38.06,4-19.31-4-20.86,2.95-.57,3.62,18.68,12.12-10,1.91,2.32L208.7,82.74l-4.11,19.64L185.38,141l-27.46,29.31,0,0-2.29,43.86.11,2.08,30-31.48,26.65-40.14,17.39-35.72V77.41h3v27.93l11.05-12.15,2.22,2-13.51,14.86-17.59,36.1L188,186.61l-32.11,33.72,2.24,42.3,43.27-34.08L230,184.9l18.29-33.34L253,127.83l6.38-18.19V94.2h3v16L257,125.52l18-8.11,1.23,2.73-20.46,9.24-4.1,20.37,16.33-6,16.17-14.48,2,2.23-16.6,14.87-18.85,6.94-16.16,29.44L266.61,170l17.5-15.48,9.51-10.24,2.19,2-9.66,10.4-17.94,15.87-36,14.26-26.07,39.93,42.79-14L260,204.27l24.21-19.76,15-12.95,2,2.27-15,13-21,17.16Z"/></g></g></svg>