<svg xmlns="http://www.w3.org/2000/svg" viewBox="0 0 385.58 295.75"><g id="Layer_2" data-name="Layer 2"><g id="Layer_1-2" data-name="Layer 1"><path d="M185.81,56.55c-2.9.66-10.33,2.93-10.33,8.8V272h10.33Z"/><path d="M141.26,272V65.35c0-6.37-7.47-8.34-10.33-8.86V272h10.33Z"/><path d="M128.88,42.64c-.28-2.2-1.61-7.94-8-14.46C108.36,15.38,77.41.13,1.07,0V272H128.93V56c-2-1-8.22-4.88-8.22-12.31v-1Z"/><rect x="143.26" y="66.35" width="30.22" height="205.64"/><path d="M369.69,23.33c-23.3-17-61.38-20.63-89.22-20.63-53.5,0-75.86,12.49-85.19,23-6.64,7.46-7.28,14.55-7.29,17h7.35l.08.91c0,.26.47,6.42-7.61,12.28V272H213V250.58h28.76v-21.4h28.76V207.77h28.77v-21.4h28.76V165h28.77v-21.4h28.76V43.75C385.37,42.79,382.91,33,369.69,23.33Z"/><path d="M193.39,44.64H122.76c.58,6,6.31,9.15,7.4,9.69h56.33C192.05,50.36,193.18,46.39,193.39,44.64Z"/><polygon points="128.93 273.99 0 273.99 0 295.75 130 295.75 130 273.99 129.93 273.99 128.93 273.99"/></g></g></svg>