<svg xmlns="http://www.w3.org/2000/svg" viewBox="0 0 218.5 483.38"><g id="Layer_2" data-name="Layer 2"><g id="Layer_1-2" data-name="Layer 1"><path d="M67.56,394.28l-57.84,6c-3.26.34-6.24-1.19-6.24-3.19V377c0-1.78,2.39-3.23,5.34-3.23H76.19c3.79,0,6.37,2.33,4.93,4.46l-9.53,14.05A5.57,5.57,0,0,1,67.56,394.28Z"/><path d="M29.67,362c10.86.29,36.77-.11,46.31-.28,3.06-.05,5.49-1.65,5.16-3.49a8.49,8.49,0,0,0-1.56-3.32c-3.64-5.17-28-9.68-28-9.68-4.29-.8-11.33-2.07-15.63-2.82,0,0-9.27-1.61-11.1,1.37-1.33,2.18-.71,10.75-.28,15.19C24.77,360.63,27,361.94,29.67,362Z"/><path d="M100.66,367.63a7.6,7.6,0,0,1-3.41-.75l-9.46-4.77c-.91-.44-7.29-10.37,0-13.35,6.36-2.6,19-5.46,22.08-6.14a7,7,0,0,0,1.27-.41c2.58-1.12,13.45-5.25,22.22.25,7.08,4.44,12.34,12.4,14.82,16.7.95,1.64-.39,3.43-3.05,4.08l-17.19,4.16a8.59,8.59,0,0,1-2,.23h-25.3Z"/><path d="M147.35,247.74a7.63,7.63,0,0,1-3.41-.75l-9.46-4.77c-.91-.44-7.29-10.38,0-13.36,6.36-2.59,19-5.45,22.08-6.13a6.4,6.4,0,0,0,1.28-.42c2.58-1.11,13.45-5.24,22.22.26,7.08,4.44,12.34,12.4,14.82,16.7.94,1.64-.4,3.43-3.06,4.07l-17.19,4.17a8.59,8.59,0,0,1-2,.23h-25.3Z"/><path d="M2.68,346.07c.22,3.38,7.77,4.32,10.16,1.25,4.9-6.27,8.33-14.62,3.85-15.84-7.29-2-10.92-6-13.21,0C2.27,334.64,2.34,340.89,2.68,346.07Z"/><path d="M31.06,315.73c-3.13.09-5.39,1.8-5,3.68,1,4.33.79,11.18,3.37,11.3,3.65.16,22.79,12.78,29.17,9s18.23.14,18.23-4.82,8.2-19.87,0-18.88-10.94.9-20-.05C50.86,315.31,38.76,315.52,31.06,315.73Z"/><path d="M95.91,322.28c3.64,4,10.93,5.09,17.31,6s13.68,4,19.15,0,5.74-4.89,5.74-4.89c1.35-4.15,3.9-10.82,5.65-14.82,0,0,2.28-5.18-6.84-4.19-7.83.85-24.44.2-28.93,0a8.43,8.43,0,0,0-2.31.2c-3.47.82-13.58,3.47-14.33,6.75C90.44,315.33,95.91,322.28,95.91,322.28Z"/><path d="M134.19,334c-1.07,1.69.29,3.65,3.12,4.23a16,16,0,0,1,7.9,4.43,79.22,79.22,0,0,0,6.33,5.51,7.68,7.68,0,0,0,8.44-.06l4-3.21a3.18,3.18,0,0,0,.55-.55c.73-1,4-4.3,13.51-1.69,8.64,2.39,18.42,2.21,22.15,2a8.23,8.23,0,0,1,2.91.35c4,1.27,14.68,4.29,4.11-3.66-12.76-9.61-5.47-12.92-21-11.76s-24.61-2.16-30.08,0-16.41-4.14-19.14,0C136.05,331.06,135.06,332.6,134.19,334Z"/><path d="M128,242c1.32-1.54.46-3.48-2.06-4.3a16.28,16.28,0,0,1-7.8-5.89,79.26,79.26,0,0,0-5.92-6.94c-1.74-1.78-5.77-2.11-8.25-.69l-4,2.28a3.84,3.84,0,0,0-.81.59c-1,.9-4.78,3.39-13.51-.62-8.36-3.84-18.24-5.25-21.8-5.66a7.15,7.15,0,0,1-2.45-.7c-3.58-1.83-14.29-6.93-4.76,2.84C68,234.52,60.29,236.6,75.77,238s24,6.16,29.74,4.93,15.64,6.78,18.92,3.14C125.64,244.72,126.88,243.29,128,242Z"/><path d="M53.87,296.76a8.19,8.19,0,0,0-2-.06c-8.34.67-14.16-1.78-7.17,5.86,7.27,7.95,17.86,3,27.57,7.95a36.5,36.5,0,0,0,11.57,3.78c2.82.4,5.59-.75,6.17-2.52,1.23-3.79,2.76-10.21-1-10.21C84.27,301.56,59.22,297.61,53.87,296.76Z"/><path d="M1.17,288.71a1.79,1.79,0,0,0-1.11,2c2.61,8.76-.66,8.9,7.78,14.66,8.81,6,18.83-3,23.39,0s9.8,4.92,9.8,0-3.42-13.85-9.8-15.83-22.17-4-23.39-4C7,285.57,3.28,287.55,1.17,288.71Z"/><path d="M94,332.63a5.56,5.56,0,0,1-.75.29c-12.35,3.95-16.76,1.06-12.25,4s9.42,3,15.19,3,6.68-1.16,9.42-3.56,1.13-4,0-6.31C104.62,327.94,95.88,331.78,94,332.63Z"/><path d="M165.45,301.83a8.11,8.11,0,0,1-2.27.25c-5.12-.14-18.8-.54-18,4.94.91,6,1.79,4.07,9.56,8.5s16-2.49,24.17,1.46,14.58-2.8,17.32.08,7.29,4,6.38-1.54,3.64-10.39-4.56-13.41-10-10-15.49-6.51C178.09,298.46,168.66,301,165.45,301.83Z"/><path d="M104.52,283.74a4.77,4.77,0,0,0-2.45,1.51c-1.57,2-4.16,6.37.9,7.87,6.69,2,10.34,1,20.37,2.48s10.54-1.42,17.12-1c5.82.41,15.76-8.09,18-10.06a4.42,4.42,0,0,1,1-.68c2.1-1,8.8-4.69-.57-4.69-10.94,0-7.69-1-18.43,0s-16.93-3.87-23.41-.45A73.36,73.36,0,0,1,104.52,283.74Z"/><path d="M69,264.17c-2.12,0-4,.77-4.89,1.95-3.94,5.51-6.32-1.4,1.17,8.29,8.2,10.62,11.85,7.87,13.67,9.25s3,2.6,10.94,0,6.66,4.35,7.89-2.6,1.51-16.89,0-16.89H69Z"/><path d="M40.6,267.29c-8.41,1-16.62-14.9-11.15,0s5.89,13.15,14.36,19.49,14.28,7.24,18.52,7.87c3.6.53,3.43-7.41,3.3-9.8a2.37,2.37,0,0,1,.21-1c.29-.66.21-2.43-4.49-6.32-6.38-5.27-4.45-12.22-9.06-10.24S40.6,267.29,40.6,267.29Z"/><path d="M168.85,360.21a6.36,6.36,0,0,0-5.56,1.83,49.2,49.2,0,0,1-5.1,5.14c-4.71,4.33-10.46,23.71-.23,25.26,7.79,1.18,21.69,5.15,27.87,7a8.24,8.24,0,0,0,5.79-.45l12.55-6.49A18.42,18.42,0,0,0,212.68,381s-1.53-16.15-9-22.89-11.15-13.91-19.9-8.27-8.08,6.52-11.72,9.42A4.1,4.1,0,0,1,168.85,360.21Z"/><path d="M126.72,374c-24.6-5.58-32.73-1.32-34.35-.2a4.64,4.64,0,0,1-.85.47c-1.58.69-6.19,3-6.73,6.24-.65,4-4.7,11-3.58,13.44S64.39,402.43,92,400.92s28.17-7.42,39.3-6.94,14.71-5.75,13.84-6.61.55-15.76-4.72-13.28c-4.83,2.27-12.13.38-13.31.05Z"/><path d="M149.77,399.16c-6.74,0-16.47.47-21.09.69a3.59,3.59,0,0,0-3.22,1.65c-2.6,6.24-5.3,9.72.61,10.64,6.38,1,1.93,1,10.08,0,7.5-.91,24.57.49,27.24.72.25,0,.49,0,.74,0h3.16c2.49,0,4.64-1,5.2-2.51l1.37-3.63a2,2,0,0,0,0-1.45l-1.37-3.63c-.56-1.47-2.71-2.51-5.2-2.51Z"/><path d="M35.33,405.09a8.56,8.56,0,0,1-5.37-.24c-2.61-1-6.15-1.21-11.19,1.17-6.64,3.14-3-1.83-6.64,3.14s-4.85,5-1.51,8.94,12.45,3,21.57,0,13.57-5.46,20.45-5.21c3,.1,6,.12,8.44.1,2.91,0,5.24-1.47,5.24-3.23v-3.63c0-1.23-1.14-2.35-2.94-2.89L55,400.69a8.51,8.51,0,0,0-4.72,0Z"/><path d="M82.43,406a8.21,8.21,0,0,0-2.12.27c-3,.81-5.1.62-5.19,4.06-.09,3.78,2.64,12,5.38,10.37s5.77,1.63,11.54,0,13.73-9.62,18.87-7.11l5.14,2.5c.55-1.37,2.28-5.54,3.83-9.25l-2.83-.84c-2.61-.77-15-.11-16.83,0H82.43Z"/><path d="M122.29,210a8.21,8.21,0,0,0-2.12.26c-3,.81-5.09.62-5.18,4.06-.1,3.78,2.63,12,5.37,10.37s5.77,1.63,11.54,0,13.73-9.62,18.87-7.11l5.14,2.51c.55-1.38,2.28-5.55,3.84-9.26l-2.83-.83c-2.62-.78-15-.12-16.83,0l-.48,0Z"/><path d="M189.82,405.94a7.52,7.52,0,0,0-2.83.72c-3.19,1.49-8.86,1.72-8.05,6.76a7.54,7.54,0,0,0,5.84,6.48c4.31.71,11.3,2.15,15.54,3.19,0,0,5.05,1.25,7.79-2.37s3.36-6.2,4.87-10.37a15.88,15.88,0,0,0,.66-5.62c-.09-2.52-4.72-4-8.21-2.64l-8,3.12a7.87,7.87,0,0,1-2.48.5Z"/><path d="M185.63,288.31a7.72,7.72,0,0,0,1.18-.09c7.21-1,8.4-.86,8.4-.86,4.34.52,9.32,1.77,11.07,2.78v-6a33.27,33.27,0,0,0-2.34-10.83c-.48-1.28-2.18-2.26-4.33-2.48-4.56-.45-12.12-1-13.38.4-1.82,2-7.21,3.89-7.21,3.89-4.11,1.45-10,3.28-13.15,4.06l-2.12,5-2,4.66a2.29,2.29,0,0,1-.33.56c-.94,1.22-4.67,6.36,2.33,3.72,6.09-2.29,11.77-3.91,14.05-4.53a8.25,8.25,0,0,1,2.18-.28Z"/><path d="M27.52,438.3c-3.16-.08-5.56-1.78-5.12-3.67.81-3.56.81-8.55,3.34-8.64,3.79-.14,23.72-10.52,30.36-7.37s19-.12,19,4,8.54,16.33,0,15.52-11.39-.74-20.88,0C48.05,438.64,35.54,438.47,27.52,438.3Z"/><path d="M93.11,433.2c3.79-3.27,11.38-4.18,18-4.95s14.23-3.32,19.92,0l5.7,3.31c1.56,3.8,4.58,10,6.7,13.85,0,0,1.84,3.3-7.65,2.49-8.34-.72-26.21-.14-30.41,0a8.54,8.54,0,0,1-1.83-.13c-3.31-.6-14.4-2.82-15.21-5.6C87.41,438.91,93.11,433.2,93.11,433.2Z"/><path d="M50.33,456.78a9.21,9.21,0,0,1-1.66,0c-9.11-.62-15.57,1.5-8-4.84,7.82-6.53-1.67-3.27,7.82-6.53s11.39,4.08,21.82,0a48.17,48.17,0,0,1,13.29-3.2c2.7-.23,5.24.81,5.9,2.41,1.3,3.14,2.75,8.14-1.16,8.14C83.2,452.8,55.47,456.15,50.33,456.78Z"/><path d="M167.07,449.67a8.59,8.59,0,0,0-1.83-.16c-5.07.11-19.88.53-19-4.05.95-4.91,1.86-3.35,9.95-7s16.62,2,25.16-1.2,15.18,2.3,18-.07S207,434,206,438.47s3.8,8.54-4.74,11-10.44,8.21-16.13,5.35C180.35,452.43,170.14,450.28,167.07,449.67Z"/><path d="M103.85,464.59a5.44,5.44,0,0,1-2.69-1.41c-1.63-1.73-4-5.11,1.11-6.3,7-1.63,10.76-.8,21.2-2s11,1.16,17.83.78c6-.34,16.27,6.56,18.67,8.24a5.28,5.28,0,0,0,1.11.59c2.2.86,9.15,3.85-.6,3.85-11.39,0-8,.82-19.18,0s-17.63,3.18-24.37.37A88.64,88.64,0,0,0,103.85,464.59Z"/><path d="M71.83,478.11a6.49,6.49,0,0,1-4.64-1.63c-4.08-4.48-6.53,1.16,1.25-6.79,8.54-8.73,12.33-6.47,14.23-7.6s3.17-2.14,11.39,0,6.93-3.58,8.21,2.14,1.57,13.88,0,13.88H71.83Z"/><path d="M38,478a7.36,7.36,0,0,1-1.34.09c-8.49-.08-16.41,11.94-10.87,0,5.69-12.25,6.12-10.81,15-16A43.72,43.72,0,0,1,60,455.63c3.64-.42,3.59,5.7,3.46,7.86a1.76,1.76,0,0,0,.19,1c.31.54.26,2-4.66,5.2-6.64,4.34-4.64,10.06-9.44,8.42C45.55,476.76,39.82,477.64,38,478Z"/><path d="M188.48,460.84c.31,0,.61,0,.92.05,7.53.85,9.19.7,9.19.7,4.35-.41,9.4-1.43,11.23-2.26v4.9a22.39,22.39,0,0,1-2.29,8.6c-.58,1.24-2.33,2.15-4.45,2.32-4.72.38-12.81.84-14.14-.3-1.89-1.64-7.65-3.24-7.65-3.24-4.2-1.17-10.3-2.66-13.54-3.3l-2.21-4.08-2-3.73a2.85,2.85,0,0,0-.47-.64c-1.1-1.13-4.6-5.09,2.5-3,6.56,2,12.67,3.31,14.87,3.78a8.38,8.38,0,0,0,1.75.18Z"/><path d="M12.67,258.71a3.08,3.08,0,0,0-2,2.4c-.22,4.09-2.27,13.78,3.29,15.24,6.38,1.68,12,10.24,13.72,0,1.26-7.28-1.09-9.38-2.55-10a3,3,0,0,1-1.54-1.21l-2.5-4.88c-1.11-2.17-5.48-3-8.42-1.56Z"/><path d="M13.86,234.94c-2.62,0-4.87,1.16-5.26,2.74-1.12,4.55-6.4,7.12,6.27,15,15,9.38,15.47,9,22.62,8.17s11.41.87,23.56,0,12.76-3.7,19.45-3.95,17.62-7.46,11.54-8.82-5.88-6.8-16.92-5.07-9.82-1.07-19.54,0-10.52,1.58-15,0-7.89-7.34-12.56-8.11c-4.15-.67-11.82-.15-13.47,0-.22,0-.43,0-.65,0Z"/><path d="M105.17,251.22a5.52,5.52,0,0,0-3.62.39c-6.09,3.31-11.16.64-7.73,5.33,3.69,5.06,8.16,3,10.18,4.36s13.56,6.88,23.29,9.09,3-.89,15.19,0,21.45,10.35,17.11-.68,9.63-11.86-9.82-12.77-28.28-2.23-31.46-2.89C116,253.56,108.82,252,105.17,251.22Z"/><path d="M174.14,250.74c-3.1,2.65-14.65-2.83-8,6.2s10.19,11.68,16.34,10.35,4.32-3.54,13.74-4.42,20.31-1.05,15.47-5.93-8.49-9.12-15.47-9S174.14,250.74,174.14,250.74Z"/><path d="M148.56,30.21l57.84-6c3.26-.34,6.23,1.18,6.23,3.18v20c0,1.79-2.38,3.24-5.33,3.24H139.93c-3.79,0-6.37-2.34-4.93-4.47l9.53-14.05A5.51,5.51,0,0,1,148.56,30.21Z"/><path d="M186.45,62.48c-10.86-.29-36.78.11-46.31.27-3.06,0-5.49,1.66-5.16,3.5a8.51,8.51,0,0,0,1.55,3.32c3.65,5.17,28,9.68,28,9.68,4.29.8,11.32,2.06,15.63,2.81,0,0,9.27,1.62,11.09-1.36,1.34-2.18.72-10.75.29-15.19C191.35,63.86,189.17,62.55,186.45,62.48Z"/><path d="M115.46,56.86a7.74,7.74,0,0,1,3.41.74c2.83,1.43,8.77,4.44,9.46,4.77.91.45,7.29,10.38,0,13.36-6.36,2.6-19,5.45-22.08,6.14a7.1,7.1,0,0,0-1.28.41c-2.58,1.12-13.44,5.25-22.22-.26-7.07-4.44-12.33-12.4-14.82-16.7-.94-1.63.4-3.43,3.06-4.07l17.19-4.16a8.07,8.07,0,0,1,2-.23h25.3Z"/><path d="M68.76,175.56a7.65,7.65,0,0,1,3.42.75l9.45,4.77c.92.44,7.3,10.37,0,13.35-6.36,2.6-19,5.45-22.07,6.14a6.85,6.85,0,0,0-1.28.41c-2.58,1.12-13.45,5.25-22.22-.25C29,196.29,23.72,188.33,21.24,184c-.95-1.64.4-3.43,3.05-4.08l17.2-4.16a8.59,8.59,0,0,1,2-.23H68.76Z"/><path d="M213.44,76.05c-.22-3.39-7.77-4.32-10.16-1.26-4.9,6.28-8.33,14.62-3.85,15.84,7.29,2,10.91,6,13.2,0C213.85,87.47,213.77,81.22,213.44,76.05Z"/><path d="M185.06,108.75c3.12-.09,5.38-1.79,5-3.67-.94-4.34-.78-11.18-3.36-11.3-3.65-.17-22.79-12.79-29.17-9s-18.23-.15-18.23,4.82-8.21,19.87,0,18.87,10.94-.9,20,0C165.26,109.18,177.36,109,185.06,108.75Z"/><path d="M122,102.55c-3.65-4-10.94-5.08-17.32-6s-13.67-4-19.14,0-5.75,4.89-5.75,4.89c-1.35,4.15-3.89,10.82-5.65,14.82,0,0-2.27,5.19,6.84,4.19,7.84-.85,24.44-.19,28.94,0a8.77,8.77,0,0,0,2.3-.21c3.48-.82,13.58-3.46,14.34-6.75C127.42,109.51,122,102.55,122,102.55Z"/><path d="M81.93,90.5c1.07-1.69-.29-3.64-3.12-4.22a16.18,16.18,0,0,1-7.91-4.43,76.16,76.16,0,0,0-6.32-5.52,7.71,7.71,0,0,0-8.45.06l-4,3.21a3.22,3.22,0,0,0-.55.56c-.73,1-4.06,4.3-13.51,1.69-8.64-2.39-18.43-2.21-22.15-2A8.2,8.2,0,0,1,13,79.46c-4-1.27-14.68-4.29-4.11,3.67,12.76,9.6,5.47,12.92,21,11.76S54.5,97,60,94.89s16.4,4.14,19.14,0C80.07,93.43,81.06,91.89,81.93,90.5Z"/><path d="M88.14,181.28c-1.32,1.53-.46,3.48,2.06,4.3a16.33,16.33,0,0,1,7.8,5.89,79.26,79.26,0,0,0,5.92,6.94c1.74,1.78,5.77,2.11,8.25.68l4-2.27a5.12,5.12,0,0,0,.81-.59c1-.9,4.78-3.4,13.51.62,8.35,3.84,18.24,5.25,21.8,5.65a7.25,7.25,0,0,1,2.44.71c3.58,1.83,14.3,6.93,4.77-2.85-11.29-11.58-3.62-13.66-19.1-15.06s-24-6.16-29.74-4.93S95,173.59,91.69,177.23C90.48,178.58,89.23,180,88.14,181.28Z"/><path d="M162.79,131.2a8.74,8.74,0,0,0,2.11.06c8.61-.67,14.62,1.78,7.4-5.86-7.51-8,1.61-4-7.51-8s-10.94,5-21,0a39.1,39.1,0,0,0-12-3.79c-2.91-.39-5.78.76-6.37,2.53-1.27,3.79-2.85,10.2,1,10.2C131.39,126.39,157.26,130.35,162.79,131.2Z"/><path d="M212.17,137.16a1.78,1.78,0,0,0,1.11-2c-2.61-8.76.66-8.89-7.78-14.66-8.81-6-18.83,3-23.39,0s-9.81-4.91-9.81,0,3.43,13.85,9.81,15.84,22.17,4,23.39,4C206.36,140.3,210.06,138.33,212.17,137.16Z"/><path d="M126.26,93.94a6.28,6.28,0,0,1,.76-.29c12.35-4,16.76-1.06,12.25-4s.91-3-4.56-3H124.08c-5.78,0-6.69,1.16-9.42,3.56s-1.14,4,0,6.31C115.67,98.63,124.4,94.79,126.26,93.94Z"/><path d="M50.66,122.65a8.62,8.62,0,0,1,2.28-.24c5.12.13,18.8.53,18-4.94-.91-6-1.78-4.07-9.55-8.5s-16,2.49-24.17-1.47-14.59,2.81-17.32-.08-7.29-4-6.38,1.55S9.83,119.36,18,122.38s10,10,15.49,6.51C38,126,47.46,123.47,50.66,122.65Z"/><path d="M111.6,140.74a4.77,4.77,0,0,0,2.45-1.51c1.57-2,4.16-6.37-.9-7.87-6.7-2-10.34-1-20.37-2.47s-10.55,1.41-17.12,1c-5.82-.41-15.76,8.09-18,10.06a5.17,5.17,0,0,1-1,.68c-2.11,1-8.8,4.69.57,4.69,10.94,0,7.69,1,18.43,0s16.93,3.86,23.4.44A74.25,74.25,0,0,1,111.6,140.74Z"/><path d="M141.92,157.19c2.13,0,4.05-.77,4.9-1.95,3.93-5.51,6.31,1.4-1.17-8.29-8.21-10.62-11.85-7.87-13.67-9.25s-3-2.6-10.94,0-6.67-4.35-7.89,2.6-1.51,16.89,0,16.89h28.77Z"/><path d="M175.52,157.19c8.41-1,16.62,14.9,11.15,0S180.78,144,172.3,137.7s-14.27-7.24-18.51-7.86c-3.6-.53-3.44,7.41-3.31,9.8a2.21,2.21,0,0,1-.2,1c-.29.66-.22,2.43,4.48,6.31,6.38,5.27,4.46,12.23,9.07,10.24S175.52,157.19,175.52,157.19Z"/><path d="M47.26,64.27a6.32,6.32,0,0,0,5.56-1.82,48.47,48.47,0,0,1,5.11-5.14C62.64,53,63.17,63.93,62.64,53S68.39,33.6,58.15,32c-7.79-1.18-21.68-5.15-27.87-7a8.19,8.19,0,0,0-5.79.45L12,32A18.42,18.42,0,0,0,3.44,43.46s-2.25,12.07.48,20.07c1.56,4.59,1-3.92,8.54,2.82s11.15,13.91,19.89,8.27,8.09-6.52,11.73-9.42A4.09,4.09,0,0,1,47.26,64.27Z"/><path d="M89.4,50.46c24.6,5.58,32.73,1.32,34.35.19a4.92,4.92,0,0,1,.85-.47c1.57-.68,6.18-3,6.72-6.24.66-4,4.71-11,3.59-13.43s16.81-8.45-10.83-7-28.17,7.42-39.31,7-14.7,5.75-13.83,6.61-.56,15.76,4.72,13.28c4.83-2.28,12.13-.38,13.31,0Z"/><path d="M66.35,24.14c6.74-.05,16.47-.47,21.08-.69,1.55-.07,2.85-.74,3.23-1.66,2.6-6.23,5.3-9.71-.61-10.63-6.38-1-1.93-1-10.08,0-7.51.91-24.58-.49-27.25-.72-.24,0-.48,0-.73,0H48.83c-2.49,0-4.64,1-5.2,2.51l-1.37,3.63a2,2,0,0,0,0,1.45l1.37,3.63c.56,1.47,2.71,2.51,5.2,2.51Z"/><path d="M180.79,18.2a8.64,8.64,0,0,1,5.37.25c2.61,1,6.15,1.21,11.19-1.17,6.64-3.14,3,1.83,6.64-3.14s4.84-5,1.51-8.94-12.45-3-21.57,0-13.57,5.46-20.46,5.21c-3-.11-6-.12-8.43-.1-2.91,0-5.24,1.47-5.24,3.23v3.63c0,1.23,1.14,2.35,2.94,2.89l8.38,2.55a8.51,8.51,0,0,0,4.72,0Z"/><path d="M133.69,17.28a8.27,8.27,0,0,0,2.12-.27c3-.81,5.09-.62,5.18-4.06.1-3.78-2.63-12-5.37-10.37s-5.77-1.63-11.54,0-13.73,9.62-18.87,7.11l-5.14-2.51c-.55,1.38-2.28,5.55-3.84,9.26l2.83.84c2.62.77,15,.11,16.83,0h17.8Z"/><path d="M93.82,212.11a8.16,8.16,0,0,0,2.12-.27c3-.81,5.1-.62,5.19-4.06.1-3.78-2.64-12-5.37-10.37s-5.77-1.63-11.55,0S70.49,207,65.35,204.52L60.21,202c-.55,1.37-2.28,5.54-3.84,9.25l2.83.84c2.62.77,15,.11,16.83,0H93.82Z"/><path d="M26.3,17.36a7.52,7.52,0,0,0,2.83-.72c3.19-1.49,8.86-1.72,8.05-6.76a7.54,7.54,0,0,0-5.84-6.49C27,2.69,20,1.25,15.8.21,15.8.21,10.74-1,8,2.58S4.64,8.78,3.14,13a15.85,15.85,0,0,0-.66,5.62c.08,2.52,4.71,4,8.21,2.64l8-3.12a7.81,7.81,0,0,1,2.47-.5Z"/><path d="M30.48,136.18a9.08,9.08,0,0,0-1.17.08c-7.21,1-8.4.86-8.4.86-4.34-.52-9.32-1.77-11.08-2.78v6a33.53,33.53,0,0,0,2.34,10.83c.49,1.29,2.19,2.27,4.34,2.48,4.55.46,12.12,1,13.38-.39,1.82-2,7.2-3.89,7.2-3.89,4.12-1.46,10-3.28,13.15-4.06l2.13-5,2-4.66a2.43,2.43,0,0,1,.33-.55c.94-1.22,4.66-6.37-2.33-3.73-6.09,2.3-11.77,3.92-14.06,4.54a8.54,8.54,0,0,1-2.17.28Z"/><path d="M203.45,164.59a3.08,3.08,0,0,0,2-2.4c.22-4.09,2.27-13.78-3.29-15.24-6.38-1.68-12-10.24-13.73,0-1.25,7.28,1.09,9.38,2.56,10a3,3,0,0,1,1.54,1.21L195,163c1.11,2.18,5.48,3,8.42,1.57Z"/><path d="M202.26,189.54c2.62,0,4.87-1.16,5.26-2.73,1.12-4.55,6.39-7.12-6.27-15.05-15-9.37-15.47-9-22.62-8.16s-11.41-.88-23.56,0-12.76,3.7-19.45,3.94S118,175,124.08,176.36s5.88,6.81,16.92,5.08,9.81,1.06,19.54,0,10.52-1.58,15,0,7.89,7.34,12.56,8.1c4.15.68,11.82.15,13.46,0l.66,0Z"/><path d="M111,173.27a5.52,5.52,0,0,0,3.62-.4c6.08-3.3,11.16-.63,7.73-5.33-3.69-5-8.16-3-10.18-4.35s7,8.64-6.91,0-6.66-6.88-16.38-9.09-3,.88-15.19,0-21.45-10.36-17.11.67-9.63,11.87,9.82,12.77,28.28,2.23,31.46,2.9C100.14,170.92,107.29,172.48,111,173.27Z"/><path d="M42,173.75c3.1-2.65,14.64,2.82,8-6.21S39.75,155.87,33.6,157.19s-4.32,3.54-13.74,4.42-20.31,1-15.47,5.93,8.49,9.13,15.47,9S42,173.75,42,173.75Z"/><path d="M178.28,192.46a8.39,8.39,0,0,0-5.42-.38c-4.49,1.17-3.68-.69-6.93,4.86-3.78,6.45-3.24-2.5-1.8,6.58s-9.37,10.45,5.15,12.41,16.39,9.59,18.8,1.47S195.41,206,192,201.34C189.64,198.05,182.32,194.34,178.28,192.46Z"/><path d="M206.55,194.67c-5.93-.89-4.24-3.92-9.38,1.37s-7.9,1.05-.91,7.48,3,6.46,9.24,6.11,9.29-2.22,11.12-4.92,2.57-8.2-3-7.77S206.55,194.67,206.55,194.67Z"/><path d="M206.21,213.93A7.7,7.7,0,0,0,200,215c-1.77,1.42-2,1.69-2,10,.06,10.93-3.89,10.14,3.29,16.57s9.68,9.7,13.09,4.54c3.15-4.76,4-18.12,4.08-20.15a1.67,1.67,0,0,0,0-.5l-1.47-7.1c-.25-1.17-1.52-2.16-3.33-2.6Z"/><path d="M40,211.86c3.7-1.38,3.17-4.74-.85-5.73-10.67-2.64-10.69-4.45-17.15-7-7.89-3.1-6.81-16.73-9.83-17.15s1-2-1.54,9.11-11.79,11-.45,17.11S29.68,212.31,34,213C35.52,213.25,37.75,212.69,40,211.86Z"/><path d="M50.18,218.53a6,6,0,0,0-3-1.37,24.4,24.4,0,0,0-10.74.35c-6.21,1.47-16.28-2.14-17.63,0s-6.2,1.36-9.24,3.4S2,229,7.57,229c4.41,0,21.69-.21,28.83-.3a6.67,6.67,0,0,1,4.65,1.55c2.46,2.45,7.25,6.85,9.85,6.85s6.57-4,8.76-6.37a2.21,2.21,0,0,0-.15-3.32Z"/><path d="M149.23,418a88.34,88.34,0,0,1-13.08-.91l.43,5.38c.43,5.38.65,8,3.88,10s14,6.2,17.71,2.77,9-6.6,13.37-7,12.12,3.71,11-1.66-2.27-8.45-10.22-8.56S149.23,418,149.23,418Z"/><path d="M27.9,448a6,6,0,0,0-.61-.15C23,447,16,446.45,10.62,445.44s-3.25,6-4.06,11.44-1.07,8.53,2.1,12.6,14.5-2.57,17.65-3.56A29.34,29.34,0,0,0,32,463.13a2.77,2.77,0,0,0,1.56-2.37l-.41-9.27c-.05-1.22-1.24-2.32-3.06-2.84Z"/></g></g></svg>