<svg xmlns="http://www.w3.org/2000/svg" viewBox="0 0 366.72 336.62"><g id="Layer_2" data-name="Layer 2"><g id="Layer_1-2" data-name="Layer 1"><path d="M30.82,9.2A17.8,17.8,0,0,1,56,9.2a21.64,21.64,0,0,0,15.41,6.38A21.62,21.62,0,0,0,86.8,9.2,17.82,17.82,0,0,1,112,9.2a21.62,21.62,0,0,0,15.41,6.38A21.64,21.64,0,0,0,142.79,9.2,17.8,17.8,0,0,1,168,9.2a21.64,21.64,0,0,0,15.41,6.38A21.64,21.64,0,0,0,198.77,9.2a17.8,17.8,0,0,1,25.16,0,21.64,21.64,0,0,0,15.41,6.38A21.61,21.61,0,0,0,254.75,9.2a17.82,17.82,0,0,1,25.17,0,21.62,21.62,0,0,0,15.41,6.38A21.64,21.64,0,0,0,310.74,9.2a17.8,17.8,0,0,1,25.16,0,21.64,21.64,0,0,0,15.41,6.38A21.62,21.62,0,0,0,366.72,9.2l-2.83-2.83a17.68,17.68,0,0,1-12.58,5.21,17.68,17.68,0,0,1-12.58-5.21,21.83,21.83,0,0,0-30.82,0,17.68,17.68,0,0,1-12.58,5.21,17.68,17.68,0,0,1-12.58-5.21,21.83,21.83,0,0,0-30.82,0,17.68,17.68,0,0,1-12.59,5.21,17.68,17.68,0,0,1-12.58-5.21,21.83,21.83,0,0,0-30.82,0,17.68,17.68,0,0,1-12.58,5.21,17.68,17.68,0,0,1-12.58-5.21,21.83,21.83,0,0,0-30.82,0,17.68,17.68,0,0,1-12.58,5.21A17.66,17.66,0,0,1,114.8,6.37,21.83,21.83,0,0,0,84,6.37a17.7,17.7,0,0,1-12.59,5.21A17.68,17.68,0,0,1,58.81,6.37,21.83,21.83,0,0,0,28,6.37a17.68,17.68,0,0,1-12.58,5.21A17.68,17.68,0,0,1,2.83,6.37L0,9.2a21.64,21.64,0,0,0,15.41,6.38A21.64,21.64,0,0,0,30.82,9.2Z"/><path d="M351.31,31.65a17.68,17.68,0,0,1-12.58-5.21,21.81,21.81,0,0,0-30.82,0,17.79,17.79,0,0,1-25.16,0,21.81,21.81,0,0,0-30.82,0,17.8,17.8,0,0,1-25.17,0,21.81,21.81,0,0,0-30.82,0,17.79,17.79,0,0,1-25.16,0,21.81,21.81,0,0,0-30.82,0,17.79,17.79,0,0,1-25.16,0,21.81,21.81,0,0,0-30.82,0,17.8,17.8,0,0,1-25.17,0,21.81,21.81,0,0,0-30.82,0,17.79,17.79,0,0,1-25.16,0L0,29.27a21.8,21.8,0,0,0,30.82,0,17.8,17.8,0,0,1,25.16,0,21.8,21.8,0,0,0,30.82,0,17.82,17.82,0,0,1,25.17,0,21.8,21.8,0,0,0,30.82,0,17.8,17.8,0,0,1,25.16,0,21.8,21.8,0,0,0,30.82,0,17.8,17.8,0,0,1,25.16,0,21.8,21.8,0,0,0,30.82,0,17.82,17.82,0,0,1,25.17,0,21.8,21.8,0,0,0,30.82,0,17.8,17.8,0,0,1,25.16,0,21.8,21.8,0,0,0,30.82,0l-2.83-2.83A17.68,17.68,0,0,1,351.31,31.65Z"/><path d="M30.82,49.33a17.79,17.79,0,0,1,25.16,0,21.81,21.81,0,0,0,30.82,0,17.8,17.8,0,0,1,25.17,0,21.8,21.8,0,0,0,30.82,0,17.79,17.79,0,0,1,25.16,0,21.81,21.81,0,0,0,30.82,0,17.79,17.79,0,0,1,25.16,0,21.81,21.81,0,0,0,30.82,0,17.8,17.8,0,0,1,25.17,0,21.81,21.81,0,0,0,30.82,0,17.79,17.79,0,0,1,25.16,0,21.81,21.81,0,0,0,30.82,0l-2.83-2.83a17.8,17.8,0,0,1-25.16,0,21.8,21.8,0,0,0-30.82,0,17.8,17.8,0,0,1-25.16,0,21.8,21.8,0,0,0-30.82,0,17.82,17.82,0,0,1-25.17,0,21.8,21.8,0,0,0-30.82,0,17.8,17.8,0,0,1-25.16,0,21.8,21.8,0,0,0-30.82,0,17.8,17.8,0,0,1-25.16,0A21.8,21.8,0,0,0,84,46.5a17.82,17.82,0,0,1-25.17,0A21.8,21.8,0,0,0,28,46.5a17.8,17.8,0,0,1-25.16,0L0,49.33A21.81,21.81,0,0,0,30.82,49.33Z"/><path d="M30.82,69.4A17.8,17.8,0,0,1,56,69.4a21.81,21.81,0,0,0,30.82,0,17.82,17.82,0,0,1,25.17,0,21.82,21.82,0,0,0,30.82,0,17.8,17.8,0,0,1,25.16,0,21.81,21.81,0,0,0,30.82,0,17.8,17.8,0,0,1,25.16,0,21.81,21.81,0,0,0,30.82,0,17.82,17.82,0,0,1,25.17,0,21.81,21.81,0,0,0,30.82,0,17.8,17.8,0,0,1,25.16,0,21.81,21.81,0,0,0,30.82,0l-2.83-2.83a17.8,17.8,0,0,1-25.16,0,21.81,21.81,0,0,0-30.82,0,17.8,17.8,0,0,1-25.16,0,21.81,21.81,0,0,0-30.82,0,17.82,17.82,0,0,1-25.17,0,21.81,21.81,0,0,0-30.82,0,17.8,17.8,0,0,1-25.16,0,21.81,21.81,0,0,0-30.82,0,17.8,17.8,0,0,1-25.16,0,21.81,21.81,0,0,0-30.82,0,17.82,17.82,0,0,1-25.17,0,21.81,21.81,0,0,0-30.82,0,17.8,17.8,0,0,1-25.16,0L0,69.4A21.81,21.81,0,0,0,30.82,69.4Z"/><path d="M351.31,91.85a17.68,17.68,0,0,1-12.58-5.21,21.81,21.81,0,0,0-30.82,0,17.79,17.79,0,0,1-25.16,0,21.81,21.81,0,0,0-30.82,0,17.8,17.8,0,0,1-25.17,0,21.81,21.81,0,0,0-30.82,0,17.79,17.79,0,0,1-25.16,0,21.81,21.81,0,0,0-30.82,0,17.79,17.79,0,0,1-25.16,0,21.81,21.81,0,0,0-30.82,0,17.8,17.8,0,0,1-25.17,0,21.81,21.81,0,0,0-30.82,0,17.79,17.79,0,0,1-25.16,0L0,89.46a21.78,21.78,0,0,0,30.82,0,17.82,17.82,0,0,1,25.16,0,21.78,21.78,0,0,0,30.82,0,17.84,17.84,0,0,1,25.17,0,21.78,21.78,0,0,0,30.82,0,17.82,17.82,0,0,1,25.16,0,21.78,21.78,0,0,0,30.82,0,17.82,17.82,0,0,1,25.16,0,21.78,21.78,0,0,0,30.82,0,17.84,17.84,0,0,1,25.17,0,21.78,21.78,0,0,0,30.82,0,17.82,17.82,0,0,1,25.16,0,21.78,21.78,0,0,0,30.82,0l-2.83-2.82A17.68,17.68,0,0,1,351.31,91.85Z"/><path d="M30.82,109.53a17.79,17.79,0,0,1,25.16,0,21.81,21.81,0,0,0,30.82,0,17.8,17.8,0,0,1,25.17,0,21.82,21.82,0,0,0,30.82,0,17.79,17.79,0,0,1,25.16,0,21.81,21.81,0,0,0,30.82,0,17.79,17.79,0,0,1,25.16,0,21.81,21.81,0,0,0,30.82,0,17.8,17.8,0,0,1,25.17,0,21.81,21.81,0,0,0,30.82,0,17.79,17.79,0,0,1,25.16,0,21.81,21.81,0,0,0,30.82,0l-2.83-2.83a17.8,17.8,0,0,1-25.16,0,21.8,21.8,0,0,0-30.82,0,17.8,17.8,0,0,1-25.16,0,21.8,21.8,0,0,0-30.82,0,17.82,17.82,0,0,1-25.17,0,21.8,21.8,0,0,0-30.82,0,17.8,17.8,0,0,1-25.16,0,21.8,21.8,0,0,0-30.82,0,17.8,17.8,0,0,1-25.16,0,21.8,21.8,0,0,0-30.82,0,17.82,17.82,0,0,1-25.17,0,21.8,21.8,0,0,0-30.82,0,17.8,17.8,0,0,1-25.16,0L0,109.53A21.81,21.81,0,0,0,30.82,109.53Z"/><path d="M30.82,129.59a17.79,17.79,0,0,1,25.16,0,21.81,21.81,0,0,0,30.82,0,17.8,17.8,0,0,1,25.17,0,21.8,21.8,0,0,0,30.82,0,17.79,17.79,0,0,1,25.16,0,21.81,21.81,0,0,0,30.82,0,17.79,17.79,0,0,1,25.16,0,21.81,21.81,0,0,0,30.82,0,17.8,17.8,0,0,1,25.17,0,21.81,21.81,0,0,0,30.82,0,17.79,17.79,0,0,1,25.16,0,21.81,21.81,0,0,0,30.82,0l-2.83-2.82a17.82,17.82,0,0,1-25.16,0,21.78,21.78,0,0,0-30.82,0,17.82,17.82,0,0,1-25.16,0,21.78,21.78,0,0,0-30.82,0,17.84,17.84,0,0,1-25.17,0,21.78,21.78,0,0,0-30.82,0,17.82,17.82,0,0,1-25.16,0,21.78,21.78,0,0,0-30.82,0,17.82,17.82,0,0,1-25.16,0,21.78,21.78,0,0,0-30.82,0,17.84,17.84,0,0,1-25.17,0,21.78,21.78,0,0,0-30.82,0,17.82,17.82,0,0,1-25.16,0L0,129.59A21.81,21.81,0,0,0,30.82,129.59Z"/><path d="M351.31,152a17.68,17.68,0,0,1-12.58-5.21,21.83,21.83,0,0,0-30.82,0,17.79,17.79,0,0,1-25.16,0,21.83,21.83,0,0,0-30.82,0,17.8,17.8,0,0,1-25.17,0,21.83,21.83,0,0,0-30.82,0,17.79,17.79,0,0,1-25.16,0,21.83,21.83,0,0,0-30.82,0,17.79,17.79,0,0,1-25.16,0,21.83,21.83,0,0,0-30.82,0,17.8,17.8,0,0,1-25.17,0,21.81,21.81,0,0,0-30.82,0,17.79,17.79,0,0,1-25.16,0L0,149.66a21.8,21.8,0,0,0,30.82,0,17.8,17.8,0,0,1,25.16,0,21.8,21.8,0,0,0,30.82,0,17.82,17.82,0,0,1,25.17,0,21.8,21.8,0,0,0,30.82,0,17.8,17.8,0,0,1,25.16,0,21.8,21.8,0,0,0,30.82,0,17.8,17.8,0,0,1,25.16,0,21.8,21.8,0,0,0,30.82,0,17.82,17.82,0,0,1,25.17,0,21.8,21.8,0,0,0,30.82,0,17.8,17.8,0,0,1,25.16,0,21.8,21.8,0,0,0,30.82,0l-2.83-2.83A17.68,17.68,0,0,1,351.31,152Z"/><path d="M351.31,172.11a17.68,17.68,0,0,1-12.58-5.21,21.81,21.81,0,0,0-30.82,0,17.79,17.79,0,0,1-25.16,0,21.81,21.81,0,0,0-30.82,0,17.8,17.8,0,0,1-25.17,0,21.81,21.81,0,0,0-30.82,0,17.79,17.79,0,0,1-25.16,0,21.81,21.81,0,0,0-30.82,0,17.79,17.79,0,0,1-25.16,0,21.81,21.81,0,0,0-30.82,0,17.8,17.8,0,0,1-25.17,0,21.81,21.81,0,0,0-30.82,0,17.79,17.79,0,0,1-25.16,0L0,169.73a21.8,21.8,0,0,0,30.82,0,17.8,17.8,0,0,1,25.16,0,21.8,21.8,0,0,0,30.82,0,17.82,17.82,0,0,1,25.17,0,21.8,21.8,0,0,0,30.82,0,17.8,17.8,0,0,1,25.16,0,21.8,21.8,0,0,0,30.82,0,17.8,17.8,0,0,1,25.16,0,21.8,21.8,0,0,0,30.82,0,17.82,17.82,0,0,1,25.17,0,21.8,21.8,0,0,0,30.82,0,17.8,17.8,0,0,1,25.16,0,21.8,21.8,0,0,0,30.82,0l-2.83-2.83A17.68,17.68,0,0,1,351.31,172.11Z"/><path d="M30.82,189.79a17.79,17.79,0,0,1,25.16,0,21.81,21.81,0,0,0,30.82,0,17.8,17.8,0,0,1,25.17,0,21.82,21.82,0,0,0,30.82,0,17.79,17.79,0,0,1,25.16,0,21.81,21.81,0,0,0,30.82,0,17.79,17.79,0,0,1,25.16,0,21.81,21.81,0,0,0,30.82,0,17.8,17.8,0,0,1,25.17,0,21.81,21.81,0,0,0,30.82,0,17.79,17.79,0,0,1,25.16,0,21.81,21.81,0,0,0,30.82,0L363.89,187a17.8,17.8,0,0,1-25.16,0,21.8,21.8,0,0,0-30.82,0,17.8,17.8,0,0,1-25.16,0,21.8,21.8,0,0,0-30.82,0,17.82,17.82,0,0,1-25.17,0,21.8,21.8,0,0,0-30.82,0,17.8,17.8,0,0,1-25.16,0A21.8,21.8,0,0,0,140,187a17.8,17.8,0,0,1-25.16,0A21.8,21.8,0,0,0,84,187a17.82,17.82,0,0,1-25.17,0A21.8,21.8,0,0,0,28,187a17.8,17.8,0,0,1-25.16,0L0,189.79A21.81,21.81,0,0,0,30.82,189.79Z"/><path d="M351.31,212.24A17.68,17.68,0,0,1,338.73,207a21.81,21.81,0,0,0-30.82,0,17.79,17.79,0,0,1-25.16,0,21.81,21.81,0,0,0-30.82,0,17.8,17.8,0,0,1-25.17,0,21.81,21.81,0,0,0-30.82,0,17.79,17.79,0,0,1-25.16,0A21.81,21.81,0,0,0,140,207a17.79,17.79,0,0,1-25.16,0A21.81,21.81,0,0,0,84,207a17.8,17.8,0,0,1-25.17,0A21.81,21.81,0,0,0,28,207a17.79,17.79,0,0,1-25.16,0L0,209.86a21.8,21.8,0,0,0,30.82,0,17.8,17.8,0,0,1,25.16,0,21.8,21.8,0,0,0,30.82,0,17.82,17.82,0,0,1,25.17,0,21.8,21.8,0,0,0,30.82,0,17.8,17.8,0,0,1,25.16,0,21.8,21.8,0,0,0,30.82,0,17.8,17.8,0,0,1,25.16,0,21.8,21.8,0,0,0,30.82,0,17.82,17.82,0,0,1,25.17,0,21.8,21.8,0,0,0,30.82,0,17.8,17.8,0,0,1,25.16,0,21.8,21.8,0,0,0,30.82,0L363.89,207A17.68,17.68,0,0,1,351.31,212.24Z"/><path d="M351.31,232.31a17.65,17.65,0,0,1-12.58-5.22,21.83,21.83,0,0,0-30.82,0,17.77,17.77,0,0,1-25.16,0,21.83,21.83,0,0,0-30.82,0,17.78,17.78,0,0,1-25.17,0,21.83,21.83,0,0,0-30.82,0,17.77,17.77,0,0,1-25.16,0,21.83,21.83,0,0,0-30.82,0,17.77,17.77,0,0,1-25.16,0,21.83,21.83,0,0,0-30.82,0,17.78,17.78,0,0,1-25.17,0,21.83,21.83,0,0,0-30.82,0,17.77,17.77,0,0,1-25.16,0L0,229.92a21.78,21.78,0,0,0,30.82,0,17.81,17.81,0,0,1,25.16,0,21.78,21.78,0,0,0,30.82,0,17.83,17.83,0,0,1,25.17,0,21.78,21.78,0,0,0,30.82,0,17.81,17.81,0,0,1,25.16,0,21.78,21.78,0,0,0,30.82,0,17.81,17.81,0,0,1,25.16,0,21.78,21.78,0,0,0,30.82,0,17.82,17.82,0,0,1,25.17,0,21.78,21.78,0,0,0,30.82,0,17.81,17.81,0,0,1,25.16,0,21.78,21.78,0,0,0,30.82,0l-2.83-2.83A17.65,17.65,0,0,1,351.31,232.31Z"/><path d="M30.82,250A17.79,17.79,0,0,1,56,250a21.81,21.81,0,0,0,30.82,0A17.8,17.8,0,0,1,112,250a21.82,21.82,0,0,0,30.82,0A17.79,17.79,0,0,1,168,250a21.83,21.83,0,0,0,30.82,0,17.79,17.79,0,0,1,25.16,0,21.81,21.81,0,0,0,30.82,0,17.8,17.8,0,0,1,25.17,0,21.81,21.81,0,0,0,30.82,0,17.79,17.79,0,0,1,25.16,0,21.81,21.81,0,0,0,30.82,0l-2.83-2.83a17.8,17.8,0,0,1-25.16,0,21.8,21.8,0,0,0-30.82,0,17.8,17.8,0,0,1-25.16,0,21.8,21.8,0,0,0-30.82,0,17.82,17.82,0,0,1-25.17,0,21.8,21.8,0,0,0-30.82,0,17.8,17.8,0,0,1-25.16,0,21.8,21.8,0,0,0-30.82,0,17.8,17.8,0,0,1-25.16,0,21.8,21.8,0,0,0-30.82,0,17.82,17.82,0,0,1-25.17,0,21.8,21.8,0,0,0-30.82,0,17.8,17.8,0,0,1-25.16,0L0,250A21.81,21.81,0,0,0,30.82,250Z"/><path d="M30.82,270.05a17.79,17.79,0,0,1,25.16,0,21.81,21.81,0,0,0,30.82,0,17.8,17.8,0,0,1,25.17,0,21.8,21.8,0,0,0,30.82,0,17.79,17.79,0,0,1,25.16,0,21.81,21.81,0,0,0,30.82,0,17.79,17.79,0,0,1,25.16,0,21.81,21.81,0,0,0,30.82,0,17.8,17.8,0,0,1,25.17,0,21.81,21.81,0,0,0,30.82,0,17.79,17.79,0,0,1,25.16,0,21.81,21.81,0,0,0,30.82,0l-2.83-2.82a17.82,17.82,0,0,1-25.16,0,21.78,21.78,0,0,0-30.82,0,17.82,17.82,0,0,1-25.16,0,21.78,21.78,0,0,0-30.82,0,17.84,17.84,0,0,1-25.17,0,21.78,21.78,0,0,0-30.82,0,17.82,17.82,0,0,1-25.16,0,21.78,21.78,0,0,0-30.82,0,17.82,17.82,0,0,1-25.16,0,21.78,21.78,0,0,0-30.82,0,17.84,17.84,0,0,1-25.17,0,21.78,21.78,0,0,0-30.82,0,17.82,17.82,0,0,1-25.16,0L0,270.05A21.81,21.81,0,0,0,30.82,270.05Z"/><path d="M351.31,292.5a17.68,17.68,0,0,1-12.58-5.21,21.81,21.81,0,0,0-30.82,0,17.79,17.79,0,0,1-25.16,0,21.81,21.81,0,0,0-30.82,0,17.8,17.8,0,0,1-25.17,0,21.81,21.81,0,0,0-30.82,0,17.79,17.79,0,0,1-25.16,0,21.81,21.81,0,0,0-30.82,0,17.79,17.79,0,0,1-25.16,0,21.81,21.81,0,0,0-30.82,0,17.8,17.8,0,0,1-25.17,0,21.81,21.81,0,0,0-30.82,0,17.79,17.79,0,0,1-25.16,0L0,290.12a21.8,21.8,0,0,0,30.82,0,17.8,17.8,0,0,1,25.16,0,21.8,21.8,0,0,0,30.82,0,17.82,17.82,0,0,1,25.17,0,21.8,21.8,0,0,0,30.82,0,17.8,17.8,0,0,1,25.16,0,21.8,21.8,0,0,0,30.82,0,17.8,17.8,0,0,1,25.16,0,21.8,21.8,0,0,0,30.82,0,17.82,17.82,0,0,1,25.17,0,21.8,21.8,0,0,0,30.82,0,17.8,17.8,0,0,1,25.16,0,21.8,21.8,0,0,0,30.82,0l-2.83-2.83A17.68,17.68,0,0,1,351.31,292.5Z"/><path d="M338.73,307.36a21.81,21.81,0,0,0-30.82,0,17.82,17.82,0,0,1-25.16,0,21.81,21.81,0,0,0-30.82,0,17.8,17.8,0,0,1-25.17,0,21.81,21.81,0,0,0-30.82,0,17.81,17.81,0,0,1-25.16,0,21.81,21.81,0,0,0-30.82,0,17.81,17.81,0,0,1-25.16,0,21.81,21.81,0,0,0-30.82,0,17.84,17.84,0,0,1-25.17,0,21.81,21.81,0,0,0-30.82,0,17.82,17.82,0,0,1-25.16,0L0,310.19a21.82,21.82,0,0,0,30.82,0,17.81,17.81,0,0,1,25.16,0,21.82,21.82,0,0,0,30.82,0,17.83,17.83,0,0,1,25.17,0,21.79,21.79,0,0,0,30.82,0,17.81,17.81,0,0,1,25.16,0,21.82,21.82,0,0,0,30.82,0,17.81,17.81,0,0,1,25.16,0,21.82,21.82,0,0,0,30.82,0,17.79,17.79,0,0,1,25.17,0,21.82,21.82,0,0,0,30.82,0,17.81,17.81,0,0,1,25.16,0,21.82,21.82,0,0,0,30.82,0l-2.83-2.82A17.82,17.82,0,0,1,338.73,307.36Z"/><path d="M338.73,327.42a21.8,21.8,0,0,0-30.82,0,17.8,17.8,0,0,1-25.16,0,21.8,21.8,0,0,0-30.82,0,17.82,17.82,0,0,1-25.17,0,21.8,21.8,0,0,0-30.82,0,17.8,17.8,0,0,1-25.16,0,21.8,21.8,0,0,0-30.82,0,17.8,17.8,0,0,1-25.16,0,21.8,21.8,0,0,0-30.82,0,17.82,17.82,0,0,1-25.17,0,21.8,21.8,0,0,0-30.82,0,17.8,17.8,0,0,1-25.16,0L0,330.25a21.81,21.81,0,0,0,30.82,0,17.79,17.79,0,0,1,25.16,0,21.81,21.81,0,0,0,30.82,0,17.8,17.8,0,0,1,25.17,0,21.82,21.82,0,0,0,30.82,0,17.79,17.79,0,0,1,25.16,0,21.81,21.81,0,0,0,30.82,0,17.79,17.79,0,0,1,25.16,0,21.81,21.81,0,0,0,30.82,0,17.8,17.8,0,0,1,25.17,0,21.81,21.81,0,0,0,30.82,0,17.79,17.79,0,0,1,25.16,0,21.81,21.81,0,0,0,30.82,0l-2.83-2.83A17.8,17.8,0,0,1,338.73,327.42Z"/></g></g></svg>