<svg xmlns="http://www.w3.org/2000/svg">
<defs>
<font id="Potok-Regular" horiz-adv-x="746" >
  <font-face 
    font-family="Potok"
    font-weight="400"
    font-stretch="normal"
    units-per-em="1000"
    panose-1="0 0 0 0 0 0 0 0 0 0"
    ascent="800"
    descent="-200"
    x-height="670"
    cap-height="993"
    bbox="-499 -363 1486 1318"
    underline-thickness="100"
    underline-position="-200"
    unicode-range="U+000D-EA10"
  />
<missing-glyph horiz-adv-x="980" 
d="M50 700v-100h-10v100h10zM90 600h-10v100h70v-10h-60v-35h40v-10h-40v-45zM225 600h-10v45h-35v55h10v-45h60v45h10v-55h-35v-45zM365 700v-100h-75v100h75zM405 700v-90h60v90h10v-100h-80v100h10zM950 700v-100h-445v100h445zM300 610h55v80h-55v-80zM50 550v-90h30v55
h10v-55h30v90h10v-100h-90v100h10zM235 520v-30h15v-40h-10v30h-75v-30h-10v40h15v30h15v30h35v-30h15zM285 540v-90h-10v100h30v-30h15v-30h15v-30h10v90h10v-100h-30v30h-15v30h-15v30h-10zM420 450h-10v90h-35v10h80v-10h-35v-90zM505 540v-90h-10v100h30v-30h15v-30h20
v30h15v30h30v-100h-10v90h-10v-30h-15v-30h-15v-30h-10v30h-15v30h-15v30h-10zM710 550v-100h-75v100h75zM790 500h30v-50h-10v40h-65v-40h-10v100h55v-50zM910 550v-10h-60v-35h40v-10h-40v-35h60v-10h-70v100h70zM180 510v-20h45v20h-15v30h-15v-30h-15zM645 540v-80h55
v80h-55zM780 540h-35v-40h35v40zM935 450h-5v15h15v-30h-10v15zM50 300h-10v100h70v-10h-60v-35h40v-10h-40v-45zM205 400v-100h-75v100h75zM290 350h30v-50h-10v40h-65v-40h-10v100h55v-50zM355 345v-45h-10v100h10v-45h15v15h25v30h25v-10h-15v-30h-25v-20h25v-30h15v-10
h-25v30h-25v15h-15zM495 390v-90h-10v100h30v-30h15v-30h20v30h15v30h30v-100h-10v90h-10v-30h-15v-30h-15v-30h-10v30h-15v30h-15v30h-10zM700 400v-10h-60v-35h40v-10h-40v-35h60v-10h-70v100h70zM835 400v-100h-75v100h75zM920 350h30v-50h-10v40h-65v-40h-10v100h55v-50
zM140 390v-80h55v80h-55zM280 390h-35v-40h35v40zM770 390v-80h55v80h-55zM910 390h-35v-40h35v40zM105 250v-10h-55v-80h55v-10h-65v100h65zM205 250v-100h-75v100h75zM245 240v-90h-10v100h30v-30h15v-30h15v-30h10v90h10v-100h-30v30h-15v30h-15v30h-10zM375 150h-10v90

<glyph glyph-name="T_V.liga" unicode="TV" horiz-adv-x="1372" 
d="M1350 862l-354 -862h-158l-250 608l-96 167h-127l-15 -117v-658h-98v775h-21l-199 -22v109h558l311 -765l91 157l250 608h108z" />
    <glyph glyph-name="f_f.liga" unicode="ff" horiz-adv-x="698" 
d="M581 773q-26 0 -42 -21.5t-16 -69.5v-142h127v-87h-117l-10 -79v-374h-113l19 166v287h-232l-10 -79v-374h-113l19 166v287l-61 -10v97h61v130q0 48 11 84t29.5 60t43 36t51.5 12h146l-30 -125l-99 36q-26 0 -42 -21.5t-16 -69.5v-142h242v130q0 48 11 84t29.5 60t43 36
t51.5 12h146l-30 -125z" />
    <glyph glyph-name="f_f_i.liga" unicode="ffi" horiz-adv-x="896" 
d="M523 540h127v-87h-117l-10 -79v-374h-113l19 166v287h-232l-10 -79v-374h-113l19 166v287l-61 -10v97h61v130q0 48 11 84t29.5 60t43 36t51.5 12h146l-30 -125l-99 36q-26 0 -42 -21.5t-16 -69.5v-142h242v130q0 48 11 84t29.5 60t43 36t51.5 12h286l-30 -125l-209 36
q-48 0 -68 -21.5t-20 -69.5v-142zM805 425v-261l19 -164h-132l19 166v257l-19 166h132z" />
    <glyph glyph-name="f_f_l.liga" unicode="ffl" horiz-adv-x="919" 
d="M887 84v-84h-180v660l-12 104l-84 9q-48 0 -68 -21.5t-20 -69.5v-142h127v-87h-117l-10 -79v-374h-113l19 166v287h-232l-10 -79v-374h-113l19 166v287l-61 -10v97h61v130q0 48 11 84t29.5 60t43 36t51.5 12h146l-30 -125l-99 36q-26 0 -42 -21.5t-16 -69.5v-142h242v130
q0 48 11 84t29.5 60t43 36t51.5 12h240l-3 -202v-494l10 -82h76z" />
    <glyph glyph-name="f_i.liga" unicode="fi" horiz-adv-x="560" 
d="M314 540l8 -87h-125l-10 -79v-374h-113l19 166v287l-61 -10v97h61v130q0 48 11 84t29.5 60t43 36t51.5 12h286l-30 -125l-209 36q-48 0 -68 -21.5t-20 -69.5v-142h127zM469 425v-261l19 -164h-132l19 166v257l-19 166h132z" />
    <glyph glyph-name="f_l.liga" unicode="fl" horiz-adv-x="583" 
d="M551 84v-84h-180v660l-12 104l-84 9q-48 0 -68 -21.5t-20 -69.5v-142h127v-87h-117l-10 -79v-374h-113l19 166v287l-61 -10v97h61v130q0 48 11 84t29.5 60t43 36t51.5 12h240l-3 -202v-494l10 -82h76z" />
    <glyph glyph-name="t_v.liga" unicode="tv" horiz-adv-x="966" 
d="M944 670l-213 -670h-146l-130 462l-70 121h-121l-10 -79v-504h-94v520l-1 63l-127 -20v107h126l-1 130h120l-15 -130h230l168 -559l45 95l140 464h99z" />
    <glyph glyph-name=".notdef" horiz-adv-x="980" 
d="M50 700v-100h-10v100h10zM90 600h-10v100h70v-10h-60v-35h40v-10h-40v-45zM225 600h-10v45h-35v55h10v-45h60v45h10v-55h-35v-45zM365 700v-100h-75v100h75zM405 700v-90h60v90h10v-100h-80v100h10zM950 700v-100h-445v100h445zM300 610h55v80h-55v-80zM50 550v-90h30v55
h10v-55h30v90h10v-100h-90v100h10zM235 520v-30h15v-40h-10v30h-75v-30h-10v40h15v30h15v30h35v-30h15zM285 540v-90h-10v100h30v-30h15v-30h15v-30h10v90h10v-100h-30v30h-15v30h-15v30h-10zM420 450h-10v90h-35v10h80v-10h-35v-90zM505 540v-90h-10v100h30v-30h15v-30h20
v30h15v30h30v-100h-10v90h-10v-30h-15v-30h-15v-30h-10v30h-15v30h-15v30h-10zM710 550v-100h-75v100h75zM790 500h30v-50h-10v40h-65v-40h-10v100h55v-50zM910 550v-10h-60v-35h40v-10h-40v-35h60v-10h-70v100h70zM180 510v-20h45v20h-15v30h-15v-30h-15zM645 540v-80h55
v80h-55zM780 540h-35v-40h35v40zM935 450h-5v15h15v-30h-10v15zM50 300h-10v100h70v-10h-60v-35h40v-10h-40v-45zM205 400v-100h-75v100h75zM290 350h30v-50h-10v40h-65v-40h-10v100h55v-50zM355 345v-45h-10v100h10v-45h15v15h25v30h25v-10h-15v-30h-25v-20h25v-30h15v-10
h-25v30h-25v15h-15zM495 390v-90h-10v100h30v-30h15v-30h20v30h15v30h30v-100h-10v90h-10v-30h-15v-30h-15v-30h-10v30h-15v30h-15v30h-10zM700 400v-10h-60v-35h40v-10h-40v-35h60v-10h-70v100h70zM835 400v-100h-75v100h75zM920 350h30v-50h-10v40h-65v-40h-10v100h55v-50
zM140 390v-80h55v80h-55zM280 390h-35v-40h35v40zM770 390v-80h55v80h-55zM910 390h-35v-40h35v40zM105 250v-10h-55v-80h55v-10h-65v100h65zM205 250v-100h-75v100h75zM245 240v-90h-10v100h30v-30h15v-30h15v-30h10v90h10v-100h-30v30h-15v30h-15v30h-10zM375 150h-10v90
h-35v10h80v-10h-35v-90zM490 220v-30h15v-40h-10v30h-75v-30h-10v40h15v30h15v30h35v-30h15zM590 250v-10h-55v-80h55v-10h-65v100h65zM655 150h-10v90h-35v10h80v-10h-35v-90zM950 250v-100h-240v100h240zM140 240v-80h55v80h-55zM435 210v-20h45v20h-15v30h-15v-30h-15z
M90 0h-10v30h-15v30h-15v30h-15v10h25v-30h15v-30h20v30h15v30h25v-10h-15v-30h-15v-30h-15v-30zM225 100v-10h-60v-35h40v-10h-40v-35h60v-10h-70v100h70zM265 100v-90h60v-10h-70v100h10zM365 0h-10v30h-15v30h-15v30h-15v10h25v-30h15v-30h20v30h15v30h25v-10h-15v-30
h-15v-30h-15v-30zM500 100v-10h-60v-35h40v-10h-40v-35h60v-10h-70v100h70zM565 0h-10v90h-35v10h80v-10h-35v-90zM665 0h-10v45h-35v55h10v-45h60v45h10v-55h-35v-45zM730 90v-90h-10v100h30v-30h15v-30h15v-30h10v90h10v-100h-30v30h-15v30h-15v30h-10zM895 100v-10h-60
v-35h40v-10h-40v-35h60v-10h-70v100h70zM80 -150h-10v100h70v-10h-60v-35h40v-10h-40v-45zM220 -100h30v-50h-10v40h-65v-40h-10v100h55v-50zM950 -50v-100h-665v100h665zM210 -60h-35v-40h35v40zM45 -135v-15h-15v15h15z" />
    <glyph glyph-name="uni0000" horiz-adv-x="0" 
 />
    <glyph glyph-name="uni0000" horiz-adv-x="0" 
 />
    <glyph glyph-name="uni000D" unicode="&#xd;" horiz-adv-x="250" 
 />
    <glyph glyph-name="uni0020" unicode=" " horiz-adv-x="264" 
 />
    <glyph glyph-name="uni0041" unicode="A" horiz-adv-x="715" 
d="M468 290h-226l-95 -290h-147l125 254l211 608h51l202 -611l128 -251h-147zM448 374l-89 303l-92 -303h181z" />
    <glyph glyph-name="uni00C1" unicode="&#xc1;" horiz-adv-x="717" 
d="M271 1021h50l184 33v-117h-234v84zM468 290h-226l-95 -290h-147l125 254l210 608h51l203 -611l128 -251h-147zM448 374l-89 303l-92 -303h181z" />
    <glyph glyph-name="uni0102" unicode="&#x102;" horiz-adv-x="940" 
d="M364 916l-10 156h80v-71l42 -8l78 10v69h80v-156h-270zM693 290h-415l-118 -290h-138l146 254l250 608h150l350 -862h-106zM658 374l-96 234l-91 157l-159 -391h346z" />
    <glyph glyph-name="uni00C2" unicode="&#xc2;" horiz-adv-x="940" 
d="M494 939l-127 -44v106l127 20l127 -20v-106zM693 290h-415l-118 -290h-138l146 254l250 608h150l350 -862h-106zM658 374l-96 234l-91 157l-159 -391h346z" />
    <glyph glyph-name="uni00C4" unicode="&#xc4;" horiz-adv-x="940" 
d="M382 916l-13 106h109v-106h-96zM523 916l-13 106h109v-106h-96zM693 290h-415l-118 -290h-138l146 254l250 608h150l350 -862h-106zM658 374l-96 234l-91 157l-159 -391h346z" />
    <glyph glyph-name="uni00C0" unicode="&#xc0;" horiz-adv-x="940" 
d="M610 916h-233v117l194 -33h39v-84zM693 290h-415l-118 -290h-138l146 254l250 608h150l350 -862h-106zM658 374l-96 234l-91 157l-159 -391h346z" />
    <glyph glyph-name="uni0100" unicode="&#x100;" horiz-adv-x="940" 
d="M494 916l-133 -10v104l133 -10l132 10v-104zM693 290h-415l-118 -290h-138l146 254l250 608h150l350 -862h-106zM658 374l-96 234l-91 157l-159 -391h346z" />
    <glyph glyph-name="uni0104" unicode="&#x104;" horiz-adv-x="940" 
d="M1036 -34v-156h-294l68 196l-117 284h-415l-118 -290h-138l146 254l250 608h150l350 -862h-30l-13 -105l3 2l78 10v59h80zM658 374l-96 234l-91 157l-159 -391h346z" />
    <glyph glyph-name="uni00C5" unicode="&#xc5;" horiz-adv-x="940" 
d="M593 902h-200v294h201l-13 -120v-59zM507 1120h-34l-6 -42v-104h40v146zM693 290h-415l-118 -290h-138l146 254l250 608h150l350 -862h-106zM658 374l-96 234l-91 157l-159 -391h346z" />
    <glyph glyph-name="uni00C3" unicode="&#xc3;" horiz-adv-x="940" 
d="M494 929l-203 -35v109h203l203 36v-110h-203zM693 290h-415l-118 -290h-138l146 254l250 608h150l350 -862h-106zM658 374l-96 234l-91 157l-159 -391h346z" />
    <glyph glyph-name="uni00C6" unicode="&#xc6;" horiz-adv-x="1130" 
d="M930 776v-312l178 22l-1 -109h-177v-290h178v-87h-296l-119 290h-415l-118 -290h-138l146 254l250 608h150l267 -658v456l-23 203h296v-87h-178zM658 374l-96 234l-91 157l-159 -391h346z" />
    <glyph glyph-name="uni0042" unicode="B" horiz-adv-x="527" 
d="M289 866q47 0 81.5 -21t58 -55t35 -77t11.5 -87q0 -57 -18.5 -107t-56.5 -85q20 -16 38 -40t31.5 -51.5t21 -58.5t7.5 -62q0 -42 -12.5 -82t-36.5 -71t-59 -50t-80 -19h-268l23 206v456l-23 204h247zM308 465q28 28 45 69.5t17 91.5t-17.5 91.5t-45.5 69.5h-148v-322h149
zM159 76h169q27 27 43.5 67.5t16.5 88.5t-16.5 88.5t-43.5 67.5h-169v-312z" />
    <glyph glyph-name="uni0043" unicode="C" horiz-adv-x="496" 
d="M444 775h-169q-63 -60 -100.5 -148.5t-37.5 -194.5t38 -196t101 -150h168l10 -86l-99 -1q-82 0 -143 35.5t-101 94t-59.5 133.5t-19.5 154q0 82 20.5 162t61 143t100 102t136.5 39h104z" />
    <glyph glyph-name="uni0106" unicode="&#x106;" horiz-adv-x="496" 
d="M231 1000h50l184 33v-117h-234v84zM444 775h-169q-63 -60 -100.5 -148.5t-37.5 -194.5t38 -196t101 -150h168l10 -86l-99 -1q-82 0 -143 35.5t-101 94t-59.5 133.5t-19.5 154q0 82 20.5 162t61 143t100 102t136.5 39h104z" />
    <glyph glyph-name="uni010C" unicode="&#x10c;" horiz-adv-x="496" 
d="M348 890l-127 20v106l127 -44l127 44v-106zM444 775h-169q-63 -60 -100.5 -148.5t-37.5 -194.5t38 -196t101 -150h168l10 -86l-99 -1q-82 0 -143 35.5t-101 94t-59.5 133.5t-19.5 154q0 82 20.5 162t61 143t100 102t136.5 39h104z" />
    <glyph glyph-name="uni00C7" unicode="&#xc7;" horiz-adv-x="486" 
d="M454 0h-1l-114 -277h-141l147 255l10 21q-82 0 -143 35.5t-101 94t-59.5 133.5t-19.5 154q0 82 20.5 162t61 143t100 102t136.5 39h104l-10 -87h-169q-63 -60 -100.5 -148.5t-37.5 -194.5t38 -196t101 -150h168z" />
    <glyph glyph-name="uni010A" unicode="&#x10a;" horiz-adv-x="496" 
d="M402 926h-96l-13 106h109v-106zM444 775h-169q-63 -60 -100.5 -148.5t-37.5 -194.5t38 -196t101 -150h168l10 -86l-99 -1q-82 0 -143 35.5t-101 94t-59.5 133.5t-19.5 154q0 82 20.5 162t61 143t100 102t136.5 39h104z" />
    <glyph glyph-name="uni0044" unicode="D" horiz-adv-x="594" 
d="M234 869q77 0 138 -40t103 -104.5t64.5 -145.5t22.5 -163q0 -78 -20.5 -152.5t-61 -133t-101 -94.5t-140.5 -36h-197l22 203v457l-22 203q63 3 108 4.5t84 1.5zM309 87q63 60 100.5 149.5t37.5 195.5t-37 195t-100 149h-151v-689h150z" />
    <glyph glyph-name="uni00D0" unicode="&#xd0;" horiz-adv-x="700" 
d="M330 869q77 0 138 -40t103 -104.5t64.5 -145.5t22.5 -163q0 -78 -20.5 -152.5t-61 -133t-101 -94.5t-140.5 -36h-177l22 203v177l-148 -26v109h148v197l-22 203q32 2 55.5 3t43 1.5t37 1t36.5 0.5zM405 87q63 60 100.5 149.5t37.5 195.5t-37 195t-100 149h-131v-306
l163 29v-110h-163v-302h130z" />
    <glyph glyph-name="uni010E" unicode="&#x10e;" horiz-adv-x="593" 
d="M224 898l-127 20v106l127 -44l127 44v-106zM234 869q77 0 138 -40t103 -104.5t64.5 -145.5t22.5 -163q0 -78 -20.5 -152.5t-61 -133t-101 -94.5t-140.5 -36h-197l22 203v457l-22 203q63 3 108 4.5t84 1.5zM309 87q63 60 100.5 149.5t37.5 195.5t-37 195t-100 149h-151
v-689h150z" />
    <glyph glyph-name="uni0110" unicode="&#x110;" horiz-adv-x="700" 
d="M330 869q77 0 138 -40t103 -104.5t64.5 -145.5t22.5 -163q0 -78 -20.5 -152.5t-61 -133t-101 -94.5t-140.5 -36h-177l22 203v177l-148 -26v109h148v197l-22 203q32 2 55.5 3t43 1.5t37 1t36.5 0.5zM405 87q63 60 100.5 149.5t37.5 195.5t-37 195t-100 149h-131v-306
l163 29v-110h-163v-302h130z" />
    <glyph glyph-name="uni0045" unicode="E" horiz-adv-x="423" 
d="M388 776h-228v-312l198 8l-1 -109l-197 14v-290h228v-87h-346l23 203v457l-23 203h346v-87z" />
    <glyph glyph-name="uni00C9" unicode="&#xc9;" horiz-adv-x="424" 
d="M113 1000h50l184 33v-117h-234v84zM388 776h-228v-312l198 10l-1 -109l-197 12v-290h228v-87h-346l23 203v457l-23 203h346v-87z" />
    <glyph glyph-name="uni011A" unicode="&#x11a;" horiz-adv-x="425" 
d="M220 890l-127 20v106l127 -44l127 44v-106zM388 776h-228v-312l198 8l-1 -109l-197 14v-290h228v-87h-346l23 203v457l-23 203h346v-87z" />
    <glyph glyph-name="uni00CA" unicode="&#xca;" horiz-adv-x="380" 
d="M317 895l-127 44l-127 -44v106l127 20l127 -20v-106zM338 776h-178v-312l178 22l-1 -109h-177v-290h178v-87h-296l23 203v457l-23 203h296v-87z" />
    <glyph glyph-name="uni00CB" unicode="&#xcb;" horiz-adv-x="380" 
d="M174 916h-96l-13 106h109v-106zM315 916h-96l-13 106h109v-106zM338 776h-178v-312l178 22l-1 -109h-177v-290h178v-87h-296l23 203v457l-23 203h296v-87z" />
    <glyph glyph-name="uni0116" unicode="&#x116;" horiz-adv-x="380" 
d="M244 926h-96l-13 106h109v-106zM338 776h-178v-312l178 22l-1 -109h-177v-290h178v-87h-296l23 203v457l-23 203h296v-87z" />
    <glyph glyph-name="uni00C8" unicode="&#xc8;" horiz-adv-x="380" 
d="M73 916v117l194 -33h39v-84h-233zM338 776h-178v-312l178 22l-1 -109h-177v-290h178v-87h-296l23 203v457l-23 203h296v-87z" />
    <glyph glyph-name="uni0112" unicode="&#x112;" horiz-adv-x="380" 
d="M190 916l-133 -10v104l133 -10l132 10v-104zM338 776h-178v-312l178 22l-1 -109h-177v-290h178v-87h-296l23 203v457l-23 203h296v-87z" />
    <glyph glyph-name="uni0118" unicode="&#x118;" horiz-adv-x="380" 
d="M446 -34v-156h-294l66 190h-176l23 203v457l-23 203h296v-87h-178v-312l178 22l-1 -109h-177v-290h178v-87h-40l-13 -105l3 2l78 10v59h80z" />
    <glyph glyph-name="uni0046" unicode="F" horiz-adv-x="411" 
d="M386 776h-228v-312l198 22v-109h-197v-377h-117l22 203v457l-22 203h344v-87z" />
    <glyph glyph-name="uni0047" unicode="G" horiz-adv-x="598" 
d="M547 775h-263q-63 -60 -100 -146t-37 -192q0 -53 10 -103t28 -95t43.5 -83.5t56.5 -68.5h161v285h-204v109l204 -25h94v-456h-176q-82 0 -144.5 35.5t-104 94.5t-62.5 134.5t-21 154.5q0 84 22.5 163.5t65 141.5t104.5 100t140 38h192z" />
    <glyph glyph-name="uni011E" unicode="&#x11e;" horiz-adv-x="598" 
d="M270 916l-10 156h80v-71l42 -8l78 10v69h80v-156h-270zM540 116l14 -116h-190q-82 0 -144.5 35.5t-104 94.5t-62.5 134.5t-21 154.5q0 84 22.5 163.5t65 141.5t104.5 100t140 38h192l-9 -87h-263q-63 -60 -100 -146t-37 -192q0 -53 10 -103t28 -95t43.5 -83.5t56.5 -68.5
h161v285h-204v109l204 -25h94v-340z" />
    <glyph glyph-name="uni0122" unicode="&#x122;" horiz-adv-x="598" 
d="M547 775h-263q-63 -60 -100 -146t-37 -192q0 -53 10 -103t28 -95t43.5 -83.5t56.5 -68.5h161v285h-204v109l204 -25h94v-340l14 -116h-190q-82 0 -144.5 35.5t-104 94.5t-62.5 134.5t-21 154.5q0 84 22.5 163.5t65 141.5t104.5 100t140 38h192zM311 -295h-140l103 145
l45 110l98 -1z" />
    <glyph glyph-name="uni0120" unicode="&#x120;" horiz-adv-x="598" 
d="M454 926h-96l-13 106h109v-106zM547 775h-263q-63 -60 -100 -146t-37 -192q0 -53 10 -103t28 -95t43.5 -83.5t56.5 -68.5h161v285h-204v109l204 -25h94v-340l14 -116h-190q-82 0 -144.5 35.5t-104 94.5t-62.5 134.5t-21 154.5q0 84 22.5 163.5t65 141.5t104.5 100t140 38
h192z" />
    <glyph glyph-name="uni0048" unicode="H" horiz-adv-x="527" 
d="M159 443h216v420h117l-23 -203v-457l23 -203h-118v359h-215l-1 -359h-116l23 203v457l-23 203h116z" />
    <glyph glyph-name="uni0126" unicode="&#x126;" horiz-adv-x="618" 
d="M486 577v-374l23 -203h-118v359h-165l-1 -359h-116l23 203v374l-110 -12v127l108 -12l-21 183h116v-193h167v193h117l-21 -183l108 12v-127zM392 588h-166v-145h166v145z" />
    <glyph glyph-name="uni0049" unicode="I" horiz-adv-x="244" 
d="M180 909h-115l-12 84h137zM169 633v-430l23 -203h-140l23 203v430l-23 231h140z" />
    <glyph glyph-name="uni0132" unicode="&#x132;" horiz-adv-x="456" 
d="M160 832h-105l-12 94h127zM391 660v-660h-324v44l-25 203h119v-160h136v776h117zM159 573v-276h-117l23 203v73l-23 203h140z" />
    <glyph glyph-name="uni00CD" unicode="&#xcd;" horiz-adv-x="244" 
d="M15 1028h50l204 33v-117h-254v84zM169 633v-430l23 -203h-140l23 203v430l-23 231h140z" />
    <glyph glyph-name="uni00CE" unicode="&#xce;" horiz-adv-x="244" 
d="M249 828l-127 24l-127 -24v106h254v-106zM169 573v-370l23 -203h-140l23 203v370l-23 203h140z" />
    <glyph glyph-name="uni00CF" unicode="&#xcf;" horiz-adv-x="244" 
d="M106 854h-96l-13 106h109v-106zM247 854h-96l-13 106h109v-106zM169 573v-370l23 -203h-140l23 203v370l-23 203h140z" />
    <glyph glyph-name="uni0130" unicode="&#x130;" horiz-adv-x="244" 
d="M171 928h-96l-13 106h119zM169 635v-432l23 -203h-140l23 203v432l-23 227h140z" />
    <glyph glyph-name="uni00CC" unicode="&#xcc;" horiz-adv-x="244" 
d="M-5 854v117l204 -33h50v-84h-254zM169 573v-370l23 -203h-140l23 203v370l-23 203h140z" />
    <glyph glyph-name="uni012A" unicode="&#x12a;" horiz-adv-x="244" 
d="M122 842l-133 -10v104l133 -10l132 10v-104zM169 573v-370l23 -203h-140l23 203v370l-23 203h140z" />
    <glyph glyph-name="uni012E" unicode="&#x12e;" horiz-adv-x="244" 
d="M65 832l-12 94h137l-10 -94h-115zM313 -34v-156h-294l66 190h-33l23 203v370l-23 203h140l-23 -203v-370l23 -203h-27l-13 -105l3 2l78 10v59h80z" />
    <glyph glyph-name="uni004A" unicode="J" horiz-adv-x="458" 
d="M393 660v-660h-321l-38 292h115l5 -205h145v776h121z" />
    <glyph glyph-name="uni004B" unicode="K" horiz-adv-x="614" 
d="M159 660v-457l23 -203h-140l23 203v457l-23 203h140zM269 431l132 -211l193 -220h-175l-244 431l243 431h156l-160 -201z" />
    <glyph glyph-name="uni0136" unicode="&#x136;" horiz-adv-x="545" 
d="M159 660v-457l23 -203h-140l23 203v457l-23 203h140zM283 431l73 -177l147 -254h-145l-176 431l176 431h145l-147 -254zM220 -295h-140l103 145l45 110l98 -1z" />
    <glyph glyph-name="uni004C" unicode="L" horiz-adv-x="423" 
d="M141 207l15 -120h225v-87h-338l-1 862h99v-655z" />
    <glyph glyph-name="uni0139" unicode="&#x139;" horiz-adv-x="423" 
d="M-25 1000h50l184 33v-117h-234v84zM141 207l15 -120h225v-87h-338l-1 862h99v-655z" />
    <glyph glyph-name="uni013D" unicode="&#x13d;" horiz-adv-x="423" 
d="M92 890l-127 20v106l127 -44l127 44v-106zM141 207l15 -120h225v-87h-338l-1 862h99v-655z" />
    <glyph glyph-name="uni013B" unicode="&#x13b;" horiz-adv-x="423" 
d="M141 207l15 -120h225v-87h-338l-1 862h99v-655zM159 -295h-140l103 145l45 110l98 -1z" />
    <glyph glyph-name="uni013F" unicode="&#x13f;" horiz-adv-x="424" 
d="M141 207l15 -120h225v-87h-338l-1 862h99v-655zM298 458h84v-204h-110z" />
    <glyph glyph-name="uni0141" unicode="&#x141;" horiz-adv-x="423" 
d="M381 87v-87h-338v410l-31 -16v106l30 7v355h99v-330l148 73v-106l-148 -39v-253l15 -120h225z" />
    <glyph glyph-name="uni004D" unicode="M" horiz-adv-x="744" 
d="M159 858l218 -511l218 510v6h117l-23 -203v-457l23 -204h-117v638l-169 -390h-98l-169 391v-638h-117l23 203v458l-23 203h117v-6z" />
    <glyph glyph-name="uni004E" unicode="N" horiz-adv-x="656" 
d="M601 661v-458l24 -204h-152l-314 654v-653h-117l23 203v457l-23 204h117l309 -648l39 -68v716h117z" />
    <glyph glyph-name="uni0143" unicode="&#x143;" horiz-adv-x="607" 
d="M187 1000h50l184 33v-117h-234v84zM541 661v-458l24 -204h-152l-254 634v-633h-117l23 203v457l-23 204h117l249 -621l39 -68v689h117z" />
    <glyph glyph-name="uni0147" unicode="&#x147;" horiz-adv-x="656" 
d="M334 890l-127 20v106l127 -44l127 44v-106zM601 661v-458l24 -204h-152l-314 654v-653h-117l23 203v457l-23 204h117l309 -648l39 -68v716h117z" />
    <glyph glyph-name="uni0145" unicode="&#x145;" horiz-adv-x="607" 
d="M541 661v-458l24 -204h-152l-254 634v-633h-117l23 203v457l-23 204h117l249 -621l39 -68v689h117zM251 -295h-140l103 145l45 110l98 -1z" />
    <glyph glyph-name="uni014A" unicode="&#x14a;" horiz-adv-x="600" 
d="M564 864l-23 -203v-853h-158v87h51l12 104h-33l-254 634v-633h-117l23 203v457l-23 204h117l249 -621l39 -68v689h117z" />
    <glyph glyph-name="uni00D1" unicode="&#xd1;" horiz-adv-x="607" 
d="M304 929l-203 -35v109h203l203 36v-110h-203zM541 661v-458l24 -204h-152l-254 634v-633h-117l23 203v457l-23 204h117l249 -621l39 -68v689h117z" />
    <glyph glyph-name="uni004F" unicode="O" horiz-adv-x="762" 
d="M412 872q78 0 137.5 -39.5t99.5 -103.5t60.5 -145t20.5 -164q0 -79 -18.5 -156t-57.5 -138t-99 -98.5t-143 -37.5h-62q-82 0 -142 37.5t-99 98.5t-58 138t-19 156q0 83 20.5 164t60.5 145t99.5 103.5t137.5 39.5h62zM284 783q-63 -60 -100 -150t-37 -196q0 -53 10 -103.5
t28 -95.5t44 -83.5t57 -68.5h190q32 30 57.5 68.5t43.5 83.5t28 95.5t10 103.5q0 106 -37 196t-100 150h-194z" />
    <glyph glyph-name="uni00D3" unicode="&#xd3;" horiz-adv-x="762" 
d="M264 1000h50l184 33v-117h-234v84zM412 872q78 0 137.5 -39.5t99.5 -103.5t60.5 -145t20.5 -164q0 -79 -18.5 -156t-57.5 -138t-99 -98.5t-143 -37.5h-62q-82 0 -142 37.5t-99 98.5t-58 138t-19 156q0 83 20.5 164t60.5 145t99.5 103.5t137.5 39.5h62zM284 783
q-63 -60 -100 -150t-37 -196q0 -53 10 -103.5t28 -95.5t44 -83.5t57 -68.5h190q32 30 57.5 68.5t43.5 83.5t28 95.5t10 103.5q0 106 -37 196t-100 150h-194z" />
    <glyph glyph-name="uni00D4" unicode="&#xd4;" horiz-adv-x="762" 
d="M508 895l-127 44l-127 -44v106l127 20l127 -20v-106zM412 872q78 0 137.5 -39.5t99.5 -103.5t60.5 -145t20.5 -164q0 -79 -18.5 -156t-57.5 -138t-99 -98.5t-143 -37.5h-62q-82 0 -142 37.5t-99 98.5t-58 138t-19 156q0 83 20.5 164t60.5 145t99.5 103.5t137.5 39.5h62z
M284 783q-63 -60 -100 -150t-37 -196q0 -53 10 -103.5t28 -95.5t44 -83.5t57 -68.5h190q32 30 57.5 68.5t43.5 83.5t28 95.5t10 103.5q0 106 -37 196t-100 150h-194z" />
    <glyph glyph-name="uni00D6" unicode="&#xd6;" horiz-adv-x="762" 
d="M365 916h-96l-13 106h109v-106zM506 916h-96l-13 106h109v-106zM412 872q78 0 137.5 -39.5t99.5 -103.5t60.5 -145t20.5 -164q0 -79 -18.5 -156t-57.5 -138t-99 -98.5t-143 -37.5h-62q-82 0 -142 37.5t-99 98.5t-58 138t-19 156q0 83 20.5 164t60.5 145t99.5 103.5
t137.5 39.5h62zM284 783q-63 -60 -100 -150t-37 -196q0 -53 10 -103.5t28 -95.5t44 -83.5t57 -68.5h190q32 30 57.5 68.5t43.5 83.5t28 95.5t10 103.5q0 106 -37 196t-100 150h-194z" />
    <glyph glyph-name="uni00D2" unicode="&#xd2;" horiz-adv-x="762" 
d="M264 916v117l194 -33h39v-84h-233zM412 872q78 0 137.5 -39.5t99.5 -103.5t60.5 -145t20.5 -164q0 -79 -18.5 -156t-57.5 -138t-99 -98.5t-143 -37.5h-62q-82 0 -142 37.5t-99 98.5t-58 138t-19 156q0 83 20.5 164t60.5 145t99.5 103.5t137.5 39.5h62zM284 783
q-63 -60 -100 -150t-37 -196q0 -53 10 -103.5t28 -95.5t44 -83.5t57 -68.5h190q32 30 57.5 68.5t43.5 83.5t28 95.5t10 103.5q0 106 -37 196t-100 150h-194z" />
    <glyph glyph-name="uni0150" unicode="&#x150;" horiz-adv-x="762" 
d="M337 1177h137l-147 -254h-95zM533 1177h137l-147 -254h-95zM412 872q78 0 137.5 -39.5t99.5 -103.5t60.5 -145t20.5 -164q0 -79 -18.5 -156t-57.5 -138t-99 -98.5t-143 -37.5h-62q-82 0 -142 37.5t-99 98.5t-58 138t-19 156q0 83 20.5 164t60.5 145t99.5 103.5
t137.5 39.5h62zM284 783q-63 -60 -100 -150t-37 -196q0 -53 10 -103.5t28 -95.5t44 -83.5t57 -68.5h190q32 30 57.5 68.5t43.5 83.5t28 95.5t10 103.5q0 106 -37 196t-100 150h-194z" />
    <glyph glyph-name="uni014C" unicode="&#x14c;" horiz-adv-x="762" 
d="M381 916l-133 -10v104l133 -10l132 10v-104zM412 872q78 0 137.5 -39.5t99.5 -103.5t60.5 -145t20.5 -164q0 -79 -18.5 -156t-57.5 -138t-99 -98.5t-143 -37.5h-62q-82 0 -142 37.5t-99 98.5t-58 138t-19 156q0 83 20.5 164t60.5 145t99.5 103.5t137.5 39.5h62zM284 783
q-63 -60 -100 -150t-37 -196q0 -53 10 -103.5t28 -95.5t44 -83.5t57 -68.5h190q32 30 57.5 68.5t43.5 83.5t28 95.5t10 103.5q0 106 -37 196t-100 150h-194z" />
    <glyph glyph-name="uni00D8" unicode="&#xd8;" horiz-adv-x="762" 
d="M579 811q38 -31 66 -74.5t47 -95t28.5 -108t9.5 -113.5q0 -79 -18.5 -156t-57.5 -138t-99 -98.5t-143 -37.5h-62q-27 0 -51 4t-46 12l-3 -6h-138l41 71q-31 31 -54 70.5t-38 85t-22 95t-7 98.5q0 83 20.5 164t60.5 145t99.5 103.5t137.5 39.5h62q50 0 93 -17l3 7h92z
M147 437q0 -72 17.5 -138t49.5 -121l44 76l218 529h-192q-63 -60 -100 -150t-37 -196zM476 86q32 30 57.5 68.5t43.5 83.5t28 95.5t10 103.5q0 77 -20.5 146.5t-56.5 126.5l-253 -623l1 -1h190z" />
    <glyph glyph-name="uni00D5" unicode="&#xd5;" horiz-adv-x="762" 
d="M381 929l-203 -35v109h203l203 36v-110h-203zM412 872q78 0 137.5 -39.5t99.5 -103.5t60.5 -145t20.5 -164q0 -79 -18.5 -156t-57.5 -138t-99 -98.5t-143 -37.5h-62q-82 0 -142 37.5t-99 98.5t-58 138t-19 156q0 83 20.5 164t60.5 145t99.5 103.5t137.5 39.5h62zM284 783
q-63 -60 -100 -150t-37 -196q0 -53 10 -103.5t28 -95.5t44 -83.5t57 -68.5h190q32 30 57.5 68.5t43.5 83.5t28 95.5t10 103.5q0 106 -37 196t-100 150h-194z" />
    <glyph glyph-name="uni0152" unicode="&#x152;" horiz-adv-x="733" 
d="M513 776v-312l178 22l-1 -109h-177v-290h178v-87h-192q-34 -10 -77 -10h-62q-82 0 -142 37.5t-99 98.5t-58 138t-19 156q0 83 20.5 164t60.5 145t99.5 103.5t137.5 39.5h62q38 0 69 -9h200v-87h-178zM405 86l13 117v457l-14 123h-110q-63 -60 -100 -150t-37 -196
q0 -53 10 -103.5t28 -95.5t44 -83.5t57 -68.5h109z" />
    <glyph glyph-name="uni0050" unicode="P" horiz-adv-x="544" 
d="M254 863q62 0 111 -25.5t83 -69t52 -101t18 -122.5q0 -61 -17 -119t-50 -103.5t-82.5 -76t-114.5 -38.5h-1l-93 3l21 -211h-139l23 223v437l-23 203h212zM159 296h162q45 58 71 121.5t26 139.5q0 75 -26.5 125.5t-70.5 93.5h-150l-12 -116v-364z" />
    <glyph glyph-name="uni00DE" unicode="&#xde;" horiz-adv-x="448" 
d="M167 735h249l-23 -203v-201l23 -203h-249l15 -128h-140l23 203v457l-23 203h140zM299 215v433h-140v-433h140z" />
    <glyph glyph-name="uni0051" unicode="Q" horiz-adv-x="762" 
d="M730 420q0 -76 -17.5 -151t-54 -135t-92 -99t-132.5 -44l5 -13l157 -255h-131l-111 267h-4q-82 0 -142 37.5t-99 98.5t-58 138t-19 156q0 83 20.5 164t60.5 145t99.5 103.5t137.5 39.5h62q78 0 137.5 -39.5t99.5 -103.5t60.5 -145t20.5 -164zM476 86q32 30 57.5 68.5
t43.5 83.5t28 95.5t10 103.5q0 106 -37 196t-100 150h-194q-63 -60 -100 -150t-37 -196q0 -53 10 -103.5t28 -95.5t44 -83.5t57 -68.5h190z" />
    <glyph glyph-name="uni0052" unicode="R" horiz-adv-x="592" 
d="M314 870q45 0 79.5 -20t57.5 -53t34.5 -74.5t11.5 -84.5q0 -39 -9.5 -77t-27.5 -70t-44.5 -55.5t-59.5 -32.5l71 -148l132 -255h-131l-162 398h-107v-398h-117l23 203v458l-23 203q27 2 62.5 3t73 2t73 1h63.5zM337 482q27 27 43.5 66.5t16.5 81.5q0 48 -17 88.5
t-44 67.5h-177v-304h178z" />
    <glyph glyph-name="uni0154" unicode="&#x154;" horiz-adv-x="541" 
d="M114 1010h50l184 33v-117h-234v84zM264 870q45 0 79.5 -20t57.5 -53t34.5 -74.5t11.5 -84.5q0 -39 -9.5 -77t-27.5 -70t-44.5 -55.5t-59.5 -32.5l71 -148l132 -255h-131l-162 398h-57v-398h-117l23 203v458l-23 203q55 4 110.5 5t111.5 1zM287 482q27 27 43.5 66.5
t16.5 81.5q0 48 -17 88.5t-44 67.5h-127v-304h128z" />
    <glyph glyph-name="uni0158" unicode="&#x158;" horiz-adv-x="590" 
d="M251 900l-127 20v106l127 -44l127 44v-106zM324 870q45 0 79.5 -20t57.5 -53t34.5 -74.5t11.5 -84.5q0 -39 -9.5 -77t-27.5 -70t-44.5 -55.5t-59.5 -32.5l71 -148l132 -255h-131l-162 398h-117v-398h-117l23 203v458l-23 203q27 2 64.5 3t76.5 2t76 1h65zM347 482
q27 27 43.5 66.5t16.5 81.5q0 48 -17 88.5t-44 67.5h-187v-304h188z" />
    <glyph glyph-name="uni0156" unicode="&#x156;" horiz-adv-x="541" 
d="M264 870q45 0 79.5 -20t57.5 -53t34.5 -74.5t11.5 -84.5q0 -39 -9.5 -77t-27.5 -70t-44.5 -55.5t-59.5 -32.5l71 -148l132 -255h-131l-162 398h-57v-398h-117l23 203v458l-23 203q55 4 110.5 5t111.5 1zM287 482q27 27 43.5 66.5t16.5 81.5q0 48 -17 88.5t-44 67.5h-127
v-304h128zM218 -295h-140l103 145l45 110l98 -1z" />
    <glyph glyph-name="uni0053" unicode="S" horiz-adv-x="510" 
d="M402 775h-207q-26 -27 -42.5 -66.5t-16.5 -87.5t16 -86.5t43 -65.5h101q46 0 81 -19.5t59 -52t36 -73.5t12 -85q0 -45 -12.5 -88.5t-36.5 -77t-59 -54t-80 -20.5l-231 1l9 86h242q26 26 42 62t16 83t-16 86.5t-42 65.5h-102q-47 0 -82 19.5t-58.5 51.5t-35.5 73.5
t-12 85.5q0 46 12.5 90.5t36.5 80t59.5 57t80.5 21.5h196z" />
    <glyph glyph-name="uni015A" unicode="&#x15a;" horiz-adv-x="510" 
d="M138 1000h50l184 33v-117h-234v84zM402 775h-207q-26 -27 -42.5 -66.5t-16.5 -87.5t16 -86.5t43 -65.5h101q46 0 81 -19.5t59 -52t36 -73.5t12 -85q0 -45 -12.5 -88.5t-36.5 -77t-59 -54t-80 -20.5l-231 1l9 86h242q26 26 42 62t16 83t-16 86.5t-42 65.5h-102
q-47 0 -82 19.5t-58.5 51.5t-35.5 73.5t-12 85.5q0 46 12.5 90.5t36.5 80t59.5 57t80.5 21.5h196z" />
    <glyph glyph-name="uni0160" unicode="&#x160;" horiz-adv-x="510" 
d="M255 890l-127 20v106l127 -44l127 44v-106zM402 775h-207q-26 -27 -42.5 -66.5t-16.5 -87.5t16 -86.5t43 -65.5h101q46 0 81 -19.5t59 -52t36 -73.5t12 -85q0 -45 -12.5 -88.5t-36.5 -77t-59 -54t-80 -20.5l-231 1l9 86h242q26 26 42 62t16 83t-16 86.5t-42 65.5h-102
q-47 0 -82 19.5t-58.5 51.5t-35.5 73.5t-12 85.5q0 46 12.5 90.5t36.5 80t59.5 57t80.5 21.5h196z" />
    <glyph glyph-name="uni015E" unicode="&#x15e;" horiz-adv-x="510" 
d="M484 239q0 -44 -12 -86.5t-34.5 -75.5t-56 -54.5t-75.5 -23.5l-105 -253h-142l149 253l-143 1l9 86h242q26 26 42 62t16 83t-16 86.5t-42 65.5h-102q-47 0 -82 19.5t-58.5 51.5t-35.5 73.5t-12 85.5q0 46 12.5 90.5t36.5 80t59.5 57t80.5 21.5h196l-9 -87h-207
q-26 -27 -42.5 -66.5t-16.5 -87.5t16 -86.5t43 -65.5h101q46 0 81 -19.5t59 -52t36 -73.5t12 -85z" />
    <glyph glyph-name="uni0218" unicode="&#x218;" horiz-adv-x="510" 
d="M402 775h-207q-26 -27 -42.5 -66.5t-16.5 -87.5t16 -86.5t43 -65.5h101q46 0 81 -19.5t59 -52t36 -73.5t12 -85q0 -45 -12.5 -88.5t-36.5 -77t-59 -54t-80 -20.5l-231 1l9 86h242q26 26 42 62t16 83t-16 86.5t-42 65.5h-102q-47 0 -82 19.5t-58.5 51.5t-35.5 73.5
t-12 85.5q0 46 12.5 90.5t36.5 80t59.5 57t80.5 21.5h196zM202 -295h-140l103 145l45 110l98 -1z" />
    <glyph glyph-name="uni1E9E" unicode="&#x1e9e;" horiz-adv-x="508" 
d="M465 784l25 -201h-187v-55h189l-25 -203v-325h-253v87h159v354h-159v229h157v107h-212v-777h-117l23 203v661h400v-80z" />
    <glyph glyph-name="uni0054" unicode="T" horiz-adv-x="622" 
d="M590 753l-215 22h-15v-775h-98v775h-21l-209 -22v109h558v-109z" />
    <glyph glyph-name="uni0166" unicode="&#x166;" horiz-adv-x="622" 
d="M350 658v-186l187 20v-127l-187 21v-386h-98v386l-189 -21v127l189 -20v303h-21l-199 -22v109h558v-87h-225z" />
    <glyph glyph-name="uni0164" unicode="&#x164;" horiz-adv-x="622" 
d="M311 890l-127 20v106l127 -44l127 44v-106zM590 753l-215 22h-15v-775h-98v775h-21l-209 -22v109h558v-109z" />
    <glyph glyph-name="uni0162" unicode="&#x162;" horiz-adv-x="622" 
d="M590 862v-87h-225l-15 -117v-658l-105 -254h-142l149 254v775h-21l-199 -22v109h558z" />
    <glyph glyph-name="uni021A" unicode="&#x21a;" horiz-adv-x="622" 
d="M590 775h-225l-15 -117v-658h-98v775h-21l-199 -22v109h558v-87zM246 -295h-140l103 145l45 110l98 -1z" />
    <glyph glyph-name="uni0055" unicode="U" horiz-adv-x="527" 
d="M149 97h226v766h119l-25 -203v-619q-26 -16 -75 -33.5t-124 -17.5q-74 0 -127 13.5t-88 45.5v611l-23 203h117v-766z" />
    <glyph glyph-name="uni00DA" unicode="&#xda;" horiz-adv-x="519" 
d="M141 938h50l204 33v-117h-254v84zM149 97h226v703h119l-25 -140v-619q-26 -16 -75 -33.5t-124 -17.5q-74 0 -127 13.5t-88 45.5v611l-23 140h117v-703z" />
    <glyph glyph-name="uni00DB" unicode="&#xdb;" horiz-adv-x="456" 
d="M355 828l-127 24l-127 -24v106h254v-106zM159 87h136v713h119l-25 -203v-597h-324v597l-23 203h117v-713z" />
    <glyph glyph-name="uni00DC" unicode="&#xdc;" horiz-adv-x="456" 
d="M212 854h-96l-13 106h109v-106zM353 854h-96l-13 106h109v-106zM159 87h136v713h119l-25 -203v-597h-324v597l-23 203h117v-713z" />
    <glyph glyph-name="uni00D9" unicode="&#xd9;" horiz-adv-x="456" 
d="M101 854v117l204 -33h50v-84h-254zM159 87h136v713h119l-25 -203v-597h-324v597l-23 203h117v-713z" />
    <glyph glyph-name="uni0170" unicode="&#x170;" horiz-adv-x="456" 
d="M184 1177h137l-147 -254h-95zM380 1177h137l-147 -254h-95zM159 87h136v776h119l-25 -203v-660h-324v660l-23 203h117v-776z" />
    <glyph glyph-name="uni016A" unicode="&#x16a;" horiz-adv-x="456" 
d="M228 916l-133 -10v104l133 -10l132 10v-104zM159 87h136v776h119l-25 -203v-660h-324v660l-23 203h117v-776z" />
    <glyph glyph-name="uni0172" unicode="&#x172;" horiz-adv-x="456" 
d="M490 -34v-156h-294l66 190h-197v660l-23 203h117v-776h136v776h119l-25 -203v-660h-47l-13 -105l3 2l78 10v59h80z" />
    <glyph glyph-name="uni016E" unicode="&#x16e;" horiz-adv-x="495" 
d="M352 1048v-59l12 -115h-230v294h231zM208 946h70v146h-64l-6 -42v-104zM135 97h226v703h119l-25 -140v-619q-26 -16 -75 -33.5t-124 -17.5q-74 0 -127 13.5t-88 45.5v611l-23 140h117v-703z" />
    <glyph glyph-name="uni0056" unicode="V" horiz-adv-x="668" 
d="M18 862h157l158 -631l164 631h153l-122 -264l-175 -598h-41l-174 608z" />
    <glyph glyph-name="uni0057" unicode="W" horiz-adv-x="1054" 
d="M1040 862l-128 -263l-185 -599h-128l-76 252l-76 -252h-134l-177 608l-125 254h151l218 -765l102 287l-52 224l-123 254h133l89 -339l94 339h133l-129 -254l-53 -229l89 -280l235 763h142z" />
    <glyph glyph-name="uni1E82" unicode="&#x1e82;" horiz-adv-x="1317" 
d="M776 916h-234v84h50l184 33v-117zM1295 862l-354 -862h-158l-104 252l-103 -252h-158l-250 608l-146 254h148l311 -765l91 157l53 130l-92 224l-146 254h148l143 -351l144 351h108l-198 -483l114 -282l91 157l250 608h108z" />
    <glyph glyph-name="uni0174" unicode="&#x174;" horiz-adv-x="1317" 
d="M659 939l-127 -44v106l127 20l127 -20v-106zM1295 862l-354 -862h-158l-104 252l-103 -252h-158l-250 608l-146 254h148l311 -765l91 157l53 130l-92 224l-146 254h148l143 -351l144 351h108l-198 -483l114 -282l91 157l250 608h108z" />
    <glyph glyph-name="uni1E84" unicode="&#x1e84;" horiz-adv-x="1317" 
d="M547 916l-13 106h109v-106h-96zM688 916l-13 106h109v-106h-96zM1295 862l-354 -862h-158l-104 252l-103 -252h-158l-250 608l-146 254h148l311 -765l91 157l53 130l-92 224l-146 254h148l143 -351l144 351h108l-198 -483l114 -282l91 157l250 608h108z" />
    <glyph glyph-name="uni1E80" unicode="&#x1e80;" horiz-adv-x="1317" 
d="M775 916h-233v117l194 -33h39v-84zM1295 862l-354 -862h-158l-104 252l-103 -252h-158l-250 608l-146 254h148l311 -765l91 157l53 130l-92 224l-146 254h148l143 -351l144 351h108l-198 -483l114 -282l91 157l250 608h108z" />
    <glyph glyph-name="uni0058" unicode="X" horiz-adv-x="578" 
d="M311 550l128 312h96l-175 -431l175 -431h-107l-128 312l-127 -312h-141l147 254l72 177l-72 177l-147 254h152z" />
    <glyph glyph-name="uni0059" unicode="Y" horiz-adv-x="566" 
d="M301 536l131 326h102l-347 -862h-149l143 224l80 187l-229 451h109z" />
    <glyph glyph-name="uni00DD" unicode="&#xdd;" horiz-adv-x="566" 
d="M167 1000h50l184 33v-117h-234v84zM301 536l131 326h102l-347 -862h-149l143 224l80 187l-229 451h109z" />
    <glyph glyph-name="uni0176" unicode="&#x176;" horiz-adv-x="566" 
d="M411 895l-127 44l-127 -44v106l127 20l127 -20v-106zM310 550l128 312h96l-351 -862h-141l147 254l72 177l-82 177l-147 254h151z" />
    <glyph glyph-name="uni0178" unicode="&#x178;" horiz-adv-x="566" 
d="M268 916h-96l-13 106h109v-106zM409 916h-96l-13 106h109v-106zM310 550l128 312h96l-351 -862h-141l147 254l72 177l-82 177l-147 254h151z" />
    <glyph glyph-name="uni1EF2" unicode="&#x1ef2;" horiz-adv-x="566" 
d="M167 916v117l194 -33h39v-84h-233zM310 550l128 312h96l-351 -862h-141l147 254l72 177l-82 177l-147 254h151z" />
    <glyph glyph-name="uni005A" unicode="Z" horiz-adv-x="560" 
d="M209 87h310v-87h-496l147 254l215 521h-346v87h486z" />
    <glyph glyph-name="uni0179" unicode="&#x179;" horiz-adv-x="600" 
d="M183 1000h50l184 33v-117h-234v84zM242 87h310v-87h-496l147 254l215 521h-376v87h516z" />
    <glyph glyph-name="uni017D" unicode="&#x17d;" horiz-adv-x="569" 
d="M279 890l-127 20v106l127 -44l127 44v-106zM211 87h310v-87h-496l147 254l215 521h-346v87h486z" />
    <glyph glyph-name="uni017B" unicode="&#x17b;" horiz-adv-x="600" 
d="M354 926h-96l-13 106h109v-106zM242 87h310v-87h-496l147 254l215 521h-376v87h516z" />
    <glyph glyph-name="uniE996" unicode="&#xe996;" horiz-adv-x="521" 
d="M459 203l25 -203h-119v367h-206v-367h-117l23 203v660h394v-660zM365 454v322h-206v-322h206z" />
    <glyph glyph-name="Aacute.ss01" horiz-adv-x="514" 
d="M111 1000h50l184 33v-117h-234v84zM459 203l25 -203h-119v367h-206v-367h-117l23 203v660h394v-660zM365 454v322h-206v-322h206z" />
    <glyph glyph-name="Abreve.ss01" horiz-adv-x="456" 
d="M98 916l-10 156h80v-71l42 -8l78 10v69h80v-156h-270zM295 0v367h-136v-367h-117l23 203v660h324v-660l25 -203h-119zM295 454v322h-136v-322h136z" />
    <glyph glyph-name="Acircumflex.ss01" horiz-adv-x="456" 
d="M355 895l-127 44l-127 -44v106l127 20l127 -20v-106zM389 203l25 -203h-119v367h-136v-367h-117l23 203v660h324v-660zM295 454v322h-136v-322h136z" />
    <glyph glyph-name="Agrave.ss01" horiz-adv-x="456" 
d="M111 916v117l194 -33h39v-84h-233zM389 203l25 -203h-119v367h-136v-367h-117l23 203v660h324v-660zM295 454v322h-136v-322h136z" />
    <glyph glyph-name="Amacron.ss01" horiz-adv-x="456" 
d="M228 916l-133 -10v104l133 -10l132 10v-104zM389 203l25 -203h-119v367h-136v-367h-117l23 203v660h324v-660zM295 454v322h-136v-322h136z" />
    <glyph glyph-name="Aring.ss01" horiz-adv-x="456" 
d="M315 1076v-59l12 -115h-200v294h201zM201 974h40v146h-34l-6 -42v-104zM389 203l25 -203h-119v367h-136v-367h-117l23 203v660h324v-660zM295 454v322h-136v-322h136z" />
    <glyph glyph-name="Atilde.ss01" horiz-adv-x="456" 
d="M228 929l-203 -35v109h203l203 36v-110h-203zM389 203l25 -203h-119v367h-136v-367h-117l23 203v660h324v-660zM295 454v322h-136v-322h136z" />
    <glyph glyph-name="AE.ss01" horiz-adv-x="600" 
d="M380 776v-312l178 22l-1 -109h-177v-290h178v-87h-296l23 203v164h-126v-367h-117l23 203v660h493v-87h-178zM285 454v206l-7 116h-119v-322h126z" />
    <glyph glyph-name="B.ss01" horiz-adv-x="513" 
d="M471 735l-22 -203v-329l22 -203h-429l23 203v457l-23 203h117v-128h312zM159 87h196v561h-196v-561z" />
    <glyph glyph-name="C.ss01" horiz-adv-x="369" 
d="M337 776h-178v-689h178v-87h-295l23 203v457l-23 203h295v-87z" />
    <glyph glyph-name="Cacute.ss01" horiz-adv-x="369" 
d="M68 1000h50l184 33v-117h-234v84zM337 776h-178v-689h178v-87h-295l23 203v457l-23 203h295v-87z" />
    <glyph glyph-name="Ccaron.ss01" horiz-adv-x="369" 
d="M185 890l-127 20v106l127 -44l127 44v-106zM337 776h-178v-689h178v-87h-295l23 203v457l-23 203h295v-87z" />
    <glyph glyph-name="Ccedilla.ss01" horiz-adv-x="369" 
d="M159 776v-689h178v-87h-101l-105 -254h-142l149 254h-96l23 203v457l-23 203h295v-87h-178z" />
    <glyph glyph-name="D.ss01" horiz-adv-x="513" 
d="M354 863h117l-23 -203v-457l23 -203h-429l22 203v329l-22 203h312v128zM158 648v-561h196v561h-196z" />
    <glyph glyph-name="Dcaron.ss01" horiz-adv-x="513" 
d="M257 890l-127 20v106l127 -44l127 44v-106zM354 863h117l-23 -203v-457l23 -203h-429l22 203v329l-22 203h312v128zM158 648v-561h196v561h-196z" />
    <glyph glyph-name="uniE99E" unicode="&#xe99e;" horiz-adv-x="448" 
d="M337 777h-178v-690h83l15 116v343h159v-87h-65v-459h-309l23 204v456l-23 204h295v-87z" />
    <glyph glyph-name="uni0122.ss01" horiz-adv-x="448" 
d="M337 777h-178v-690h83l15 116v343h159v-87h-65v-459h-309l23 204v456l-23 204h295v-87zM141 -295h-140l103 145l45 110l98 -1z" />
    <glyph glyph-name="Gdotaccent.ss01" horiz-adv-x="448" 
d="M278 926h-96l-13 106h109v-106zM337 777h-178v-690h83l15 116v343h159v-87h-65v-459h-309l23 204v456l-23 204h295v-87z" />
    <glyph glyph-name="uniE9A0" unicode="&#xe9a0;" horiz-adv-x="696" 
d="M65 863h564v-660l25 -203h-119v776h-146v-573l25 -203h-119v776h-136v-776h-117l23 203v660z" />
    <glyph glyph-name="uniE9A2" unicode="&#xe9a2;" horiz-adv-x="448" 
d="M65 863h324v-660l25 -203h-119v776h-136v-776h-117l23 203v660z" />
    <glyph glyph-name="uniEA10" unicode="&#xea10;" horiz-adv-x="513" 
d="M438 660v-457l23 -203h-409l23 203v457l-23 203h409zM344 87v689h-175v-689h175z" />
    <glyph glyph-name="Oacute.ss01" horiz-adv-x="513" 
d="M140 1000h50l184 33v-117h-234v84zM438 660v-457l23 -203h-409l23 203v457l-23 203h409zM344 87v689h-175v-689h175z" />
    <glyph glyph-name="Ocircumflex.ss01" horiz-adv-x="513" 
d="M384 895l-127 44l-127 -44v106l127 20l127 -20v-106zM438 660v-457l23 -203h-409l23 203v457l-23 203h409zM344 87v689h-175v-689h175z" />
    <glyph glyph-name="Odieresis.ss01" horiz-adv-x="513" 
d="M241 916h-96l-13 106h109v-106zM382 916h-96l-13 106h109v-106zM438 660v-457l23 -203h-409l23 203v457l-23 203h409zM344 87v689h-175v-689h175z" />
    <glyph glyph-name="Ograve.ss01" horiz-adv-x="513" 
d="M140 916v117l194 -33h39v-84h-233zM438 660v-457l23 -203h-409l23 203v457l-23 203h409zM344 87v689h-175v-689h175z" />
    <glyph glyph-name="Ohungarumlaut.ss01" horiz-adv-x="513" 
d="M213 1177h137l-147 -254h-95zM409 1177h137l-147 -254h-95zM438 660v-457l23 -203h-409l23 203v457l-23 203h409zM344 87v689h-175v-689h175z" />
    <glyph glyph-name="Omacron.ss01" horiz-adv-x="513" 
d="M257 916l-133 -10v104l133 -10l132 10v-104zM438 660v-457l23 -203h-409l23 203v457l-23 203h409zM344 87v689h-175v-689h175z" />
    <glyph glyph-name="Oslash.ss01" horiz-adv-x="532" 
d="M479 203l23 -203h-480l76 132l8 71v457l-23 202h427l-11 -27l-20 -175v-457zM195 776v-456l188 456h-188zM390 87v479l-195 -479h195z" />
    <glyph glyph-name="Otilde.ss01" horiz-adv-x="513" 
d="M257 929l-203 -35v109h203l203 36v-110h-203zM438 660v-457l23 -203h-409l23 203v457l-23 203h409zM344 87v689h-175v-689h175z" />
    <glyph glyph-name="OE.ss01" horiz-adv-x="630" 
d="M410 776v-312l178 22l-1 -109h-177v-290h178v-87h-546l23 203v457l-23 203h546v-87h-178zM302 87l13 116v457l-7 116h-149v-689h143z" />
    <glyph glyph-name="P.ss01" horiz-adv-x="513" 
d="M159 -1h-117l23 203v457l-23 203h429l-22 -203v-329l22 -203h-312v-128zM355 214v561h-196v-561h196z" />
    <glyph glyph-name="Q.ss01" horiz-adv-x="538" 
d="M469 660v-457l22 -203h-161l9 -22l157 -255h-131l-115 277h-208l23 203v457l-23 203h449zM375 87v689h-216v-689h216z" />
    <glyph glyph-name="R.ss01" horiz-adv-x="541" 
d="M378 0l-130 317h-89v-317h-117l23 203v660h342v-343l25 -203h-95l30 -62l142 -255h-131zM159 401h154v378h-154v-378z" />
    <glyph glyph-name="Racute.ss01" horiz-adv-x="541" 
d="M347 916h-234v84h50l184 33v-117zM378 0l-130 317h-89v-317h-117l23 203v660h342v-343l25 -203h-95l30 -62l142 -255h-131zM159 401h154v378h-154v-378z" />
    <glyph glyph-name="uni0156.ss01" horiz-adv-x="541" 
d="M509 0h-131l-130 317h-89v-317h-117l23 203v660h342v-343l25 -203h-95l30 -62zM159 401h154v378h-154v-378zM215 -40l98 -1l-106 -254h-140l103 145z" />
    <glyph glyph-name="uniE9A9" unicode="&#xe9a9;" horiz-adv-x="444" 
d="M399 775h-245v-293h231v-279l25 -204l-366 1v87l247 -1v309h-231v264l-25 204l364 -1v-87z" />
    <glyph glyph-name="Sacute.ss01" horiz-adv-x="444" 
d="M105 1000h50l184 33v-117h-234v84zM399 775h-245v-293h231v-279l25 -204l-366 1v87l247 -1v309h-231v264l-25 204l364 -1v-87z" />
    <glyph glyph-name="Scaron.ss01" horiz-adv-x="444" 
d="M222 890l-127 20v106l127 -44l127 44v-106zM399 775h-245v-293h231v-279l25 -204l-366 1v87l247 -1v309h-231v264l-25 204l364 -1v-87z" />
    <glyph glyph-name="Scedilla.ss01" horiz-adv-x="444" 
d="M273 -1l-105 -253h-142l149 254h-131v87l247 -1v309h-231v264l-25 204l364 -1v-87h-245v-293h231v-279l25 -204h-137z" />
    <glyph glyph-name="uni0218.ss01" horiz-adv-x="444" 
d="M399 775h-245v-293h231v-279l25 -204l-366 1v87l247 -1v309h-231v264l-25 204l364 -1v-87zM169 -295h-140l103 145l45 110l98 -1z" />
    <glyph glyph-name="uniE995" unicode="&#xe995;" horiz-adv-x="490" 
d="M438 0h-354l-143 -363h-143l149 254l392 966v5h99v-862zM339 201v449l-222 -566h207z" />
    <glyph glyph-name="B.ss02" horiz-adv-x="456" 
d="M42 -1l23 203v660h324v-202l25 -203h-255v-55l255 1l-25 -203v-200zM159 544h136v231h-136v-231zM159 87h136v229h-136v-229z" />
    <glyph glyph-name="E.ss02" horiz-adv-x="490" 
d="M448 0h-406l211 516h-186l26 206v139h346v-160h-94v73h-158v-171l240 1l-144 -254l-108 -263h69l204 25v-112z" />
    <glyph glyph-name="K.ss02" horiz-adv-x="758" 
d="M569 254l147 -254h-151l-202 469l-190 -469h-131l23 203v457l-23 203h117v-676l404 1038h153l-149 -254l-154 -380z" />
    <glyph glyph-name="M.ss02" horiz-adv-x="804" 
d="M739 203l23 -204h-117v638l-149 -380h-163l15 120v294l-407 -1034h-143l149 254l394 971h106l-1 -438l1 -38l198 471v6h117l-23 -203v-457z" />
    <glyph glyph-name="N.ss02" horiz-adv-x="873" 
d="M890 973l-399 -973h-85l1 635l-251 -635h-134l146 253l251 611h81l1 -631l399 994h137z" />
    <glyph glyph-name="Ntilde.ss02" horiz-adv-x="873" 
d="M890 973l-399 -973h-85l1 635l-251 -635h-134l146 253l251 611h81l1 -631l399 994h137zM537 929l-203 -35v109h203l203 36v-110h-203z" />
    <glyph glyph-name="O.ss02" horiz-adv-x="533" 
d="M468 660v-457l23 -203h-449l23 203v457l-23 203h449zM374 87v689h-215v-689h215z" />
    <glyph glyph-name="Oslash.ss02" horiz-adv-x="513" 
d="M461 0h-332l-66 -163h-143l141 240l14 126v457l-23 203h330l81 199h97l-106 -261l-16 -141v-457zM169 776v-439l175 432v7h-175zM344 87v443l-175 -432v-11h175z" />
    <glyph glyph-name="uniE9A7" unicode="&#xe9a7;" horiz-adv-x="514" 
d="M407 520l25 -203h-105l122 -298l147 -254h-141l-225 552h-71v-317h-117l23 203v659h342v-342zM313 401v377h-154v-377h154z" />
    <glyph glyph-name="S.ss02" horiz-adv-x="538" 
d="M43 0v98h-1v177h114l-20 -174l110 -14h123l-114 420l-213 -1l26 204v153h346v-165h-94v78h-158v-182h173l161 -594h-453z" />
    <glyph glyph-name="T.ss02" horiz-adv-x="294" 
d="M426 979h-225l-15 -117v-862h-98v979h-21l-199 -22v109h558v-87z" />
    <glyph glyph-name="W.ss02" horiz-adv-x="1166" 
d="M1144 862l-350 -862h-138v586h-98v-586h-142l-250 608l-144 254h150l290 -714l2 18v338l-18 166h304v-506l52 90l250 608h92z" />
    <glyph glyph-name="Y.ss02" horiz-adv-x="724" 
d="M682 862l-497 -1225h-143l149 254l154 380l-156 337l-147 254h151l202 -469l190 469h97z" />
    <glyph glyph-name="uniE9A4" unicode="&#xe9a4;" horiz-adv-x="483" 
d="M273 864q45 0 78.5 -19.5t55.5 -51t33 -72t11 -83.5q0 -45 -11.5 -88t-34 -76.5t-55.5 -54.5t-77 -21h-114v-398h-117l23 203v458l-23 203h231zM286 474q27 27 43.5 67.5t16.5 88.5t-16.5 88.5t-43.5 67.5h-127v-312h127z" />
    <glyph glyph-name="Q.ss03" horiz-adv-x="538" 
d="M469 660v-457l22 -203h-161l9 -22l157 -255h-131l-115 277h-208l23 203v457l-23 203h449zM375 87v689h-216v-689h216z" />
    <glyph glyph-name="uniE9A6" unicode="&#xe9a6;" horiz-adv-x="603" 
d="M393 865q45 0 78.5 -19t55.5 -50.5t32.5 -72.5t10.5 -84q0 -45 -11.5 -88t-33.5 -76.5t-55 -54.5t-77 -21h-18l59 -144l147 -255h-141l-281 690v-690h-117l23 203v457l-23 204zM405 475q27 27 43.5 67.5t16.5 88.5t-17 88t-44 67h-187l127 -311h61z" />
    <glyph glyph-name="S.ss03" horiz-adv-x="526" 
d="M338 464q36 -9 63.5 -30.5t45.5 -52t27.5 -67.5t9.5 -75q0 -45 -12.5 -88.5t-36.5 -77t-59 -54t-80 -20.5l-284 1l146 254l53 129q-46 1 -80.5 20.5t-58 51.5t-35 73t-11.5 85q0 46 12.5 90.5t36.5 80t59.5 57t80.5 21.5h285zM246 469l126 306h-177q-26 -27 -42.5 -66.5
t-16.5 -87.5t16 -86.5t43 -65.5h51zM316 86q26 26 42 62t16 83t-16 86.5t-42 65.5h-10l-121 -297h131z" />
    <glyph glyph-name="uni0061" unicode="a" horiz-adv-x="459" 
d="M398 166l19 -166h-210q-34 0 -64.5 16t-52.5 42t-35 59t-13 68q0 44 13 78.5t35 58.5t52.5 36.5t64.5 12.5h97v212h-13l-108 -9v-87h-94v183h328l-19 -163v-341zM304 296h-112q-18 -19 -29 -47t-11 -61t11 -61t29 -47h112v216z" />
    <glyph glyph-name="uni00E1" unicode="&#xe1;" horiz-adv-x="434" 
d="M357 724h-234v84h50l184 33v-117zM386 166l19 -166h-210q-34 0 -64.5 16t-52.5 42t-35 59t-13 68q0 44 13 78.5t35 58.5t52.5 36.5t64.5 12.5h97v212h-13l-108 -9v-87h-94v183h328l-19 -163v-341zM292 296h-112q-18 -19 -29 -47t-11 -61t11 -61t29 -47h112v216z" />
    <glyph glyph-name="uni0103" unicode="&#x103;" horiz-adv-x="419" 
d="M103 724l-10 156h80v-71l42 -8l78 10v69h80v-156h-270zM358 166l19 -166h-180q-34 0 -64.5 16t-52.5 42t-35 59t-13 68q0 44 13 78.5t35 58.5t52.5 36.5t64.5 12.5h67v212h-13l-78 -9v-87h-94v183h298l-19 -163v-341zM264 296h-82q-18 -19 -29 -47t-11 -61t11 -61t29 -47
h82v216z" />
    <glyph glyph-name="uni00E2" unicode="&#xe2;" horiz-adv-x="419" 
d="M233 747l-127 -44v106l127 20l127 -20v-106zM358 166l19 -166h-180q-34 0 -64.5 16t-52.5 42t-35 59t-13 68q0 44 13 78.5t35 58.5t52.5 36.5t64.5 12.5h67v212h-13l-78 -9v-87h-94v183h298l-19 -163v-341zM264 296h-82q-18 -19 -29 -47t-11 -61t11 -61t29 -47h82v216z
" />
    <glyph glyph-name="uni00E4" unicode="&#xe4;" horiz-adv-x="419" 
d="M121 724l-13 106h109v-106h-96zM262 724l-13 106h109v-106h-96zM358 166l19 -166h-180q-34 0 -64.5 16t-52.5 42t-35 59t-13 68q0 44 13 78.5t35 58.5t52.5 36.5t64.5 12.5h67v212h-13l-78 -9v-87h-94v183h298l-19 -163v-341zM264 296h-82q-18 -19 -29 -47t-11 -61
t11 -61t29 -47h82v216z" />
    <glyph glyph-name="uni00E0" unicode="&#xe0;" horiz-adv-x="419" 
d="M349 724h-233v117l194 -33h39v-84zM358 166l19 -166h-180q-34 0 -64.5 16t-52.5 42t-35 59t-13 68q0 44 13 78.5t35 58.5t52.5 36.5t64.5 12.5h67v212h-13l-78 -9v-87h-94v183h298l-19 -163v-341zM264 296h-82q-18 -19 -29 -47t-11 -61t11 -61t29 -47h82v216z" />
    <glyph glyph-name="uni0101" unicode="&#x101;" horiz-adv-x="419" 
d="M233 724l-133 -10v104l133 -10l132 10v-104zM358 166l19 -166h-180q-34 0 -64.5 16t-52.5 42t-35 59t-13 68q0 44 13 78.5t35 58.5t52.5 36.5t64.5 12.5h67v212h-13l-78 -9v-87h-94v183h298l-19 -163v-341zM264 296h-82q-18 -19 -29 -47t-11 -61t11 -61t29 -47h82v216z
" />
    <glyph glyph-name="uni0105" unicode="&#x105;" horiz-adv-x="419" 
d="M475 -34v-156h-294l66 190h-50q-34 0 -64.5 16t-52.5 42t-35 59t-13 68q0 44 13 78.5t35 58.5t52.5 36.5t64.5 12.5h67v212h-13l-78 -9v-87h-94v183h298l-19 -163v-341l19 -166h-50l-13 -105l3 2l78 10v59h80zM264 80v216h-82q-18 -19 -29 -47t-11 -61t11 -61t29 -47h82z
" />
    <glyph glyph-name="uni00E5" unicode="&#xe5;" horiz-adv-x="419" 
d="M332 710h-200v294h201l-13 -120v-59zM246 928h-34l-6 -42v-104h40v146zM358 166l19 -166h-180q-34 0 -64.5 16t-52.5 42t-35 59t-13 68q0 44 13 78.5t35 58.5t52.5 36.5t64.5 12.5h67v212h-13l-78 -9v-87h-94v183h298l-19 -163v-341zM264 296h-82q-18 -19 -29 -47
t-11 -61t11 -61t29 -47h82v216z" />
    <glyph glyph-name="uni00E3" unicode="&#xe3;" horiz-adv-x="419" 
d="M386 847v-110h-153l-153 -35v109h153zM358 507v-341l19 -166h-180q-34 0 -64.5 16t-52.5 42t-35 59t-13 68q0 44 13 78.5t35 58.5t52.5 36.5t64.5 12.5h67v212h-13l-78 -9v-87h-94v183h298zM264 296h-82q-18 -19 -29 -47t-11 -61t11 -61t29 -47h82v216z" />
    <glyph glyph-name="uni00E6" unicode="&#xe6;" horiz-adv-x="614" 
d="M32 185q0 44 13 78.5t35 58.5t52.5 36.5t64.5 12.5h67v133l-13 86l-78 -16v-87h-94v183h338q35 0 65 -16t52 -42t35 -59t13 -68q0 -44 -13 -78.5t-35 -58.5t-52 -36.5t-65 -12.5h-67v-133l13 -86l78 16v87h90v-183h-334q-34 0 -64.5 16t-52.5 42t-35 59t-13 68zM432 374
q18 19 29 47t11 61t-11 61t-29 47h-72l-10 -83v-133h82zM142 188q0 -33 11 -61t29 -47h72l10 83v133h-82q-18 -19 -29 -47t-11 -61z" />
    <glyph glyph-name="uni0062" unicode="b" horiz-adv-x="478" 
d="M182 672q62 0 111 -30t83 -79.5t52 -112t18 -127.5q0 -61 -17 -120t-50 -105t-82 -74t-114 -28h-1l-136 4l19 164v496l-23 203h120l-3 -191h23zM239 76q22 21 40 50.5t30.5 63t19.5 71t7 75.5t-7 74.5t-19.5 69.5t-30 62t-39.5 50h-81v-516h80z" />
    <glyph glyph-name="uni0063" unicode="c" horiz-adv-x="432" 
d="M380 586h-132q-44 -43 -70 -109t-26 -141q0 -76 26 -143t71 -110h131l10 -83l-84 -1q-65 0 -114.5 28t-82.5 73t-50 103.5t-17 120.5q0 65 18 127.5t52 112t83 80t111 30.5q42 0 84 -3z" />
    <glyph glyph-name="uni0107" unicode="&#x107;" horiz-adv-x="432" 
d="M186 808h50l184 33v-117h-234v84zM380 586h-132q-44 -43 -70 -109t-26 -141q0 -76 26 -143t71 -110h131l10 -83l-84 -1q-65 0 -114.5 28t-82.5 73t-50 103.5t-17 120.5q0 65 18 127.5t52 112t83 80t111 30.5q42 0 84 -3z" />
    <glyph glyph-name="uni010D" unicode="&#x10d;" horiz-adv-x="432" 
d="M303 698l-127 20v106l127 -44l127 44v-106zM380 586h-132q-44 -43 -70 -109t-26 -141q0 -76 26 -143t71 -110h131l10 -83l-84 -1q-65 0 -114.5 28t-82.5 73t-50 103.5t-17 120.5q0 65 18 127.5t52 112t83 80t111 30.5q42 0 84 -3z" />
    <glyph glyph-name="uni00E7" unicode="&#xe7;" horiz-adv-x="432" 
d="M380 83l10 -83l-105 -254h-142l149 253q-61 4 -108 32.5t-78.5 73.5t-47.5 102t-16 117q0 65 18 127.5t52 112t83 80t111 30.5q42 0 84 -3l-10 -85h-132q-44 -43 -70 -109t-26 -141q0 -76 26 -143t71 -110h131z" />
    <glyph glyph-name="uni010B" unicode="&#x10b;" horiz-adv-x="432" 
d="M357 734h-96l-13 106h109v-106zM380 586h-132q-44 -43 -70 -109t-26 -141q0 -76 26 -143t71 -110h131l10 -83l-84 -1q-65 0 -114.5 28t-82.5 73t-50 103.5t-17 120.5q0 65 18 127.5t52 112t83 80t111 30.5q42 0 84 -3z" />
    <glyph glyph-name="uni0064" unicode="d" horiz-adv-x="478" 
d="M432 0l-136 -4h-1q-65 0 -114 28t-82 74t-50 105t-17 120q0 65 18 127.5t52 112t83 79.5t111 30h23l-3 191h120l-23 -203v-496zM319 592h-81q-22 -21 -39.5 -50t-30 -62t-19.5 -69.5t-7 -74.5t7 -75.5t20 -71t30.5 -63t39.5 -50.5h80v516z" />
    <glyph glyph-name="uni00F0" unicode="&#xf0;" horiz-adv-x="562" 
d="M530 335l-117 -335h-77l-40 -4h-1q-65 0 -114 28t-82 74t-50 105t-17 120q0 65 18 127.5t52 112t83 79.5t111 30h25l-38 111l-172 -30v109h133l-93 162h157l50 -154l159 28v-110h-133zM413 335l-37 126l-29 126l-109 5q-22 -21 -39.5 -50t-30 -62t-19.5 -69.5t-7 -74.5
t7 -75.5t20 -71t30.5 -63t39.5 -50.5h108l29 132z" />
    <glyph glyph-name="uni010F" unicode="&#x10f;" horiz-adv-x="648" 
d="M432 0l-136 -4h-1q-65 0 -114 28t-82 74t-50 105t-17 120q0 65 18 127.5t52 112t83 79.5t111 30h23l-3 190h120l-23 -202v-496zM670 862l-90 -216h-118l63 108l45 108h100zM319 592h-81q-22 -21 -39.5 -50t-30 -62t-19.5 -69.5t-7 -74.5t7 -75.5t20 -71t30.5 -63
t39.5 -50.5h80v516z" />
    <glyph glyph-name="uni0111" unicode="&#x111;" horiz-adv-x="500" 
d="M432 0l-136 -4h-1q-65 0 -114 28t-82 74t-50 105t-17 120q0 65 18 127.5t52 112t83 79.5t111 30h23l-1 57l-146 -10v106l145 -24l-1 62h120l-7 -63h49v-106l-60 14l-5 -48v-496zM319 592h-81q-22 -21 -39.5 -50t-30 -62t-19.5 -69.5t-7 -74.5t7 -75.5t20 -71t30.5 -63
t39.5 -50.5h80v516z" />
    <glyph glyph-name="uni0065" unicode="e" horiz-adv-x="442" 
d="M286 183h90v-183h-334l19 163v341l-19 166h200q35 0 65 -16t52 -42t35 -59t13 -68q0 -44 -13 -78.5t-35 -58.5t-52 -36.5t-65 -12.5h-87v-212h13l118 9v87zM155 374h102q18 19 29 47t11 61t-11 61t-29 47h-102v-216z" />
    <glyph glyph-name="uni00E9" unicode="&#xe9;" horiz-adv-x="436" 
d="M339 721h-234v84h50l184 33v-117zM284 183h90v-183h-334l19 163v341l-19 166h200q35 0 65 -16t52 -42t35 -59t13 -68q0 -44 -13 -78.5t-35 -58.5t-52 -36.5t-65 -12.5h-87v-212h13l118 9v87zM153 374h102q18 19 29 47t11 61t-11 61t-29 47h-102v-216z" />
    <glyph glyph-name="uni011B" unicode="&#x11b;" horiz-adv-x="419" 
d="M176 698l-127 20v106l127 -44l127 44v-106zM246 183h90v-183h-294l19 163v341l-19 166h180q35 0 65 -16t52 -42t35 -59t13 -68q0 -44 -13 -78.5t-35 -58.5t-52 -36.5t-65 -12.5h-67v-212h13l78 9v87zM155 374h82q18 19 29 47t11 61t-11 61t-29 47h-82v-216z" />
    <glyph glyph-name="uni00EA" unicode="&#xea;" horiz-adv-x="419" 
d="M176 747l-127 -44v106l127 20l127 -20v-106zM246 183h90v-183h-294l19 163v341l-19 166h180q35 0 65 -16t52 -42t35 -59t13 -68q0 -44 -13 -78.5t-35 -58.5t-52 -36.5t-65 -12.5h-67v-212h13l78 9v87zM155 374h82q18 19 29 47t11 61t-11 61t-29 47h-82v-216z" />
    <glyph glyph-name="uni00EB" unicode="&#xeb;" horiz-adv-x="419" 
d="M64 724l-13 106h109v-106h-96zM205 724l-13 106h109v-106h-96zM246 183h90v-183h-294l19 163v341l-19 166h180q35 0 65 -16t52 -42t35 -59t13 -68q0 -44 -13 -78.5t-35 -58.5t-52 -36.5t-65 -12.5h-67v-212h13l78 9v87zM155 374h82q18 19 29 47t11 61t-11 61t-29 47h-82
v-216z" />
    <glyph glyph-name="uni0117" unicode="&#x117;" horiz-adv-x="419" 
d="M134 734l-13 106h109v-106h-96zM246 183h90v-183h-294l19 163v341l-19 166h180q35 0 65 -16t52 -42t35 -59t13 -68q0 -44 -13 -78.5t-35 -58.5t-52 -36.5t-65 -12.5h-67v-212h13l78 9v87zM155 374h82q18 19 29 47t11 61t-11 61t-29 47h-82v-216z" />
    <glyph glyph-name="uni00E8" unicode="&#xe8;" horiz-adv-x="419" 
d="M292 724h-233v117l194 -33h39v-84zM246 183h90v-183h-294l19 163v341l-19 166h180q35 0 65 -16t52 -42t35 -59t13 -68q0 -44 -13 -78.5t-35 -58.5t-52 -36.5t-65 -12.5h-67v-212h13l78 9v87zM155 374h82q18 19 29 47t11 61t-11 61t-29 47h-82v-216z" />
    <glyph glyph-name="uni0113" unicode="&#x113;" horiz-adv-x="419" 
d="M176 724l-133 -10v104l133 -10l132 10v-104zM246 183h90v-183h-294l19 163v341l-19 166h180q35 0 65 -16t52 -42t35 -59t13 -68q0 -44 -13 -78.5t-35 -58.5t-52 -36.5t-65 -12.5h-67v-212h13l78 9v87zM155 374h82q18 19 29 47t11 61t-11 61t-29 47h-82v-216z" />
    <glyph glyph-name="uni0119" unicode="&#x119;" horiz-adv-x="419" 
d="M434 -34v-156h-294l66 190h-164l19 163v341l-19 166h180q35 0 65 -16t52 -42t35 -59t13 -68q0 -44 -13 -78.5t-35 -58.5t-52 -36.5t-65 -12.5h-67v-212h13l78 9v87h90v-183h-50l-13 -105l3 2l78 10v59h80zM155 374h82q18 19 29 47t11 61t-11 61t-29 47h-82v-216z" />
    <glyph glyph-name="uni0066" unicode="f" horiz-adv-x="362" 
d="M245 773q-26 0 -42 -21.5t-16 -69.5v-142h127v-87h-117l-10 -79v-374h-113l19 166v287l-61 -10v97h61v130q0 48 11 84t29.5 60t43 36t51.5 12h146l-30 -125z" />
    <glyph glyph-name="uni0067" unicode="g" horiz-adv-x="478" 
d="M436 -193h-334v99l199 -22h16l2 114h-23q-62 0 -111 30t-83 79.5t-52 112t-18 127.5q0 62 17 120.5t50 104.5t82 74t114 28h1l136 -4l-19 -164v-496zM319 78v516h-80q-22 -21 -39.5 -50.5t-30.5 -63t-20 -71t-7 -75.5q0 -37 7 -74t19.5 -70t30 -62t39.5 -50h81z" />
    <glyph glyph-name="uni011F" unicode="&#x11f;" horiz-adv-x="478" 
d="M436 880v-156h-270l-10 156h80v-71l42 -8l78 10v69h80zM436 -193h-334v99l199 -22h16l2 114h-23q-62 0 -111 30t-83 79.5t-52 112t-18 127.5q0 62 17 120.5t50 104.5t82 74t114 28h1l136 -4l-19 -164v-496zM319 78v516h-80q-22 -21 -39.5 -50.5t-30.5 -63t-20 -71
t-7 -75.5q0 -37 7 -74t19.5 -70t30 -62t39.5 -50h81z" />
    <glyph glyph-name="uni0123" unicode="&#x123;" horiz-adv-x="468" 
d="M362 770h-140l66 92l37 113l111 -4zM436 -193h-334v99l199 -22h16l2 114h-23q-62 0 -111 30t-83 79.5t-52 112t-18 127.5q0 62 17 120.5t50 104.5t82 74t114 28h1l136 -4l-19 -164v-496zM319 78v516h-80q-22 -21 -39.5 -50.5t-30.5 -63t-20 -71t-7 -75.5q0 -37 7 -74
t19.5 -70t30 -62t39.5 -50h81z" />
    <glyph glyph-name="uni0121" unicode="&#x121;" horiz-adv-x="478" 
d="M254 734l-13 106h109v-106h-96zM436 -193h-334v99l199 -22h16l2 114h-23q-62 0 -111 30t-83 79.5t-52 112t-18 127.5q0 62 17 120.5t50 104.5t82 74t114 28h1l136 -4l-19 -164v-496zM319 78v516h-80q-22 -21 -39.5 -50.5t-30.5 -63t-20 -71t-7 -75.5q0 -37 7 -74
t19.5 -70t30 -62t39.5 -50h81z" />
    <glyph glyph-name="uni0068" unicode="h" horiz-adv-x="427" 
d="M155 670h215v-504l19 -166h-114l1 583h-121v-583h-113l19 165v536l-19 161h113v-192z" />
    <glyph glyph-name="uni0127" unicode="&#x127;" horiz-adv-x="433" 
d="M277 0l1 583h-101v-583h-113l19 165v536l-1 7l-60 -14v106h50l-8 65h113v-65l151 25v-106l-151 10v-59h195v-504l19 -166h-114z" />
    <glyph glyph-name="uni0069" unicode="i" horiz-adv-x="232" 
d="M176 647h-113l-12 94h135zM163 425v-261l19 -164h-132l19 166v257l-19 166h132z" />
    <glyph glyph-name="uni0131" unicode="&#x131;" horiz-adv-x="232" 
d="M163 425v-261l19 -164h-132l19 166v257l-19 166h132z" />
    <glyph glyph-name="uni00ED" unicode="&#xed;" horiz-adv-x="232" 
d="M-5 727h50l184 33v-117h-234v84zM163 425v-261l19 -164h-132l19 166v257l-19 166h132z" />
    <glyph glyph-name="uni00EE" unicode="&#xee;" horiz-adv-x="232" 
d="M239 622l-127 44l-127 -44v106l127 20l127 -20v-106zM163 425v-261l19 -164h-132l19 166v257l-19 166h132z" />
    <glyph glyph-name="uni00EF" unicode="&#xef;" horiz-adv-x="232" 
d="M96 643h-96l-13 106h109v-106zM237 643h-96l-13 106h109v-106zM163 425v-261l19 -164h-132l19 166v257l-19 166h132z" />
    <glyph glyph-name="i.loclTRK" horiz-adv-x="232" 
d="M166 653h-96l-13 106h109v-106zM163 425v-261l19 -164h-132l19 166v257l-19 166h132z" />
    <glyph glyph-name="uni00EC" unicode="&#xec;" horiz-adv-x="232" 
d="M-5 643v117l194 -33h39v-84h-233zM163 425v-261l19 -164h-132l19 166v257l-19 166h132z" />
    <glyph glyph-name="uni0133" unicode="&#x133;" horiz-adv-x="456" 
d="M63 647l-12 94h125l-10 -94h-103zM295 647l-12 94h125l-10 -94h-103zM69 166v257l-19 166h132l-19 -164v-261l19 -164h-132zM414 589l-19 -164v-617h-27v-1h-266v99l185 -20l14 125v412l-19 166h132z" />
    <glyph glyph-name="uni012B" unicode="&#x12b;" horiz-adv-x="232" 
d="M112 643l-133 -10v104l133 -10l132 10v-104zM163 425v-261l19 -164h-132l19 166v257l-19 166h132z" />
    <glyph glyph-name="uni012F" unicode="&#x12f;" horiz-adv-x="232" 
d="M70 653l-13 106h109v-106h-96zM306 -34v-156h-294l66 190h-28l19 166v257l-19 166h132l-19 -164v-261l19 -164h-24l-13 -105l3 2l78 10v59h80z" />
    <glyph glyph-name="uni006A" unicode="j" horiz-adv-x="224" 
d="M63 647l-12 94h125l-10 -94h-103zM182 589l-19 -164v-617h-159v87h52l13 116v412l-19 166h132z" />
    <glyph glyph-name="uni006B" unicode="k" horiz-adv-x="478" 
d="M178 0h-132l19 166v494l-23 203h120l-3 -203v-494zM325 208l121 -208h-133l-137 335l137 335h133l-121 -209l-52 -126z" />
    <glyph glyph-name="uni0137" unicode="&#x137;" horiz-adv-x="478" 
d="M42 863h120l-3 -203v-494l19 -166h-132l19 166v494zM325 208l121 -208h-133l-137 335l137 335h133l-121 -209l-52 -126zM202 -40l98 -1l-106 -254h-140l103 145z" />
    <glyph glyph-name="uni006C" unicode="l" horiz-adv-x="277" 
d="M245 84v-84h-180v660l-23 202h120l-3 -202v-494l10 -82h76z" />
    <glyph glyph-name="uni013A" unicode="&#x13a;" horiz-adv-x="277" 
d="M223 916h-234v84h50l184 33v-117zM245 84v-84h-180v660l-23 202h120l-3 -202v-494l10 -82h76z" />
    <glyph glyph-name="uni013E" unicode="&#x13e;" horiz-adv-x="277" 
d="M106 890l-127 20v106l127 -44l127 44v-106zM245 84v-84h-180v660l-23 202h120l-3 -202v-494l10 -82h76z" />
    <glyph glyph-name="uni013C" unicode="&#x13c;" horiz-adv-x="277" 
d="M245 84v-84h-180v660l-23 202h120l-3 -202v-494l10 -82h76zM111 -40l98 -1l-106 -254h-140l103 145z" />
    <glyph glyph-name="uni0140" unicode="&#x140;" horiz-adv-x="384" 
d="M169 84h76v-84h-180v660l-23 202h120l-3 -202v-494zM342 458v-204h-110l26 204h84z" />
    <glyph glyph-name="uni0142" unicode="&#x142;" horiz-adv-x="301" 
d="M171 166l10 -82h76v-84h-180v428l-65 -34v106l65 16v144l-23 202h120l-3 -202v-113l118 58v-106l-118 -31v-302z" />
    <glyph glyph-name="uni006D" unicode="m" horiz-adv-x="564" 
d="M452 0v586h-108v-422l20 -164h-106v586h-108v-586h-108l18 166v338l-18 166h500v-506l20 -164h-110z" />
    <glyph glyph-name="uni006E" unicode="n" horiz-adv-x="419" 
d="M272 0v586h-118v-586h-112l18 166v338l-18 166h324v-506l20 -164h-114z" />
    <glyph glyph-name="uni0144" unicode="&#x144;" horiz-adv-x="408" 
d="M321 724h-234v84h50l184 33v-117zM252 0v586h-98v-586h-112l18 166v338l-18 166h304v-506l20 -164h-114z" />
    <glyph glyph-name="uni0148" unicode="&#x148;" horiz-adv-x="408" 
d="M204 698l-127 20v106l127 -44l127 44v-106zM252 0v586h-98v-586h-112l18 166v338l-18 166h304v-506l20 -164h-114z" />
    <glyph glyph-name="uni0146" unicode="&#x146;" horiz-adv-x="408" 
d="M60 166v338l-18 166h304v-506l20 -164h-114v586h-98v-586h-112zM159 -40l98 -1l-106 -254h-140l103 145z" />
    <glyph glyph-name="uni014B" unicode="&#x14b;" horiz-adv-x="388" 
d="M346 -192h-159v87h52l13 116v575h-98v-586h-112l18 166v338l-18 166h304v-862z" />
    <glyph glyph-name="uni00F1" unicode="&#xf1;" horiz-adv-x="408" 
d="M204 737l-153 -35v109h153l153 36v-110h-153zM252 0v586h-98v-586h-112l18 166v338l-18 166h304v-506l20 -164h-114z" />
    <glyph glyph-name="uni006F" unicode="o" horiz-adv-x="541" 
d="M32 324q0 80 18 145.5t50 112t75.5 72.5t94.5 26t94.5 -26t76 -72.5t50.5 -112t18 -145.5q0 -77 -17 -138.5t-48.5 -105t-75.5 -67.5t-98 -24q-53 0 -97 23.5t-75.5 67t-48.5 105.5t-17 139zM137 336q0 -84 26 -147t71 -106h73q45 43 71 106t26 147q0 91 -26 153t-70 97
h-75q-44 -35 -70 -97t-26 -153z" />
    <glyph glyph-name="uni00F3" unicode="&#xf3;" horiz-adv-x="541" 
d="M154 808h50l184 33v-117h-234v84zM32 324q0 80 18 145.5t50 112t75.5 72.5t94.5 26t94.5 -26t76 -72.5t50.5 -112t18 -145.5q0 -77 -17 -138.5t-48.5 -105t-75.5 -67.5t-98 -24q-53 0 -97 23.5t-75.5 67t-48.5 105.5t-17 139zM137 336q0 -84 26 -147t71 -106h73
q45 43 71 106t26 147q0 91 -26 153t-70 97h-75q-44 -35 -70 -97t-26 -153z" />
    <glyph glyph-name="uni00F4" unicode="&#xf4;" horiz-adv-x="541" 
d="M398 703l-127 44l-127 -44v106l127 20l127 -20v-106zM32 324q0 80 18 145.5t50 112t75.5 72.5t94.5 26t94.5 -26t76 -72.5t50.5 -112t18 -145.5q0 -77 -17 -138.5t-48.5 -105t-75.5 -67.5t-98 -24q-53 0 -97 23.5t-75.5 67t-48.5 105.5t-17 139zM137 336q0 -84 26 -147
t71 -106h73q45 43 71 106t26 147q0 91 -26 153t-70 97h-75q-44 -35 -70 -97t-26 -153z" />
    <glyph glyph-name="uni00F6" unicode="&#xf6;" horiz-adv-x="541" 
d="M255 724h-96l-13 106h109v-106zM396 724h-96l-13 106h109v-106zM32 324q0 80 18 145.5t50 112t75.5 72.5t94.5 26t94.5 -26t76 -72.5t50.5 -112t18 -145.5q0 -77 -17 -138.5t-48.5 -105t-75.5 -67.5t-98 -24q-53 0 -97 23.5t-75.5 67t-48.5 105.5t-17 139zM137 336
q0 -84 26 -147t71 -106h73q45 43 71 106t26 147q0 91 -26 153t-70 97h-75q-44 -35 -70 -97t-26 -153z" />
    <glyph glyph-name="uni00F2" unicode="&#xf2;" horiz-adv-x="541" 
d="M154 724v117l194 -33h39v-84h-233zM32 324q0 80 18 145.5t50 112t75.5 72.5t94.5 26t94.5 -26t76 -72.5t50.5 -112t18 -145.5q0 -77 -17 -138.5t-48.5 -105t-75.5 -67.5t-98 -24q-53 0 -97 23.5t-75.5 67t-48.5 105.5t-17 139zM137 336q0 -84 26 -147t71 -106h73
q45 43 71 106t26 147q0 91 -26 153t-70 97h-75q-44 -35 -70 -97t-26 -153z" />
    <glyph glyph-name="uni0151" unicode="&#x151;" horiz-adv-x="541" 
d="M227 985h137l-147 -254h-95zM423 985h137l-147 -254h-95zM32 324q0 80 18 145.5t50 112t75.5 72.5t94.5 26t94.5 -26t76 -72.5t50.5 -112t18 -145.5q0 -77 -17 -138.5t-48.5 -105t-75.5 -67.5t-98 -24q-53 0 -97 23.5t-75.5 67t-48.5 105.5t-17 139zM137 336
q0 -84 26 -147t71 -106h73q45 43 71 106t26 147q0 91 -26 153t-70 97h-75q-44 -35 -70 -97t-26 -153z" />
    <glyph glyph-name="uni014D" unicode="&#x14d;" horiz-adv-x="541" 
d="M271 724l-133 -10v104l133 -10l132 10v-104zM32 324q0 80 18 145.5t50 112t75.5 72.5t94.5 26t94.5 -26t76 -72.5t50.5 -112t18 -145.5q0 -77 -17 -138.5t-48.5 -105t-75.5 -67.5t-98 -24q-53 0 -97 23.5t-75.5 67t-48.5 105.5t-17 139zM137 336q0 -84 26 -147t71 -106
h73q45 43 71 106t26 147q0 91 -26 153t-70 97h-75q-44 -35 -70 -97t-26 -153z" />
    <glyph glyph-name="uni00F8" unicode="&#xf8;" horiz-adv-x="541" 
d="M423 604q40 -47 63 -118t23 -162q0 -77 -17 -138.5t-48.5 -105t-75.5 -67.5t-98 -24q-36 0 -69 11h-128l31 71q-35 44 -53.5 108t-18.5 145q0 80 18 145.5t50 112t75.5 72.5t94.5 26q36 0 70 -14l22 58h112zM127 336q0 -42 8 -77.5t22 -67.5l28 63l125 331q-1 0 -1 0.5
t-1 0.5h-75q-22 -18 -41 -42t-33.5 -55.5t-23 -69.5t-8.5 -83zM307 83q45 43 76 106t31 147q0 46 -8.5 84.5t-23.5 70.5l-142 -408h67z" />
    <glyph glyph-name="uni00F5" unicode="&#xf5;" horiz-adv-x="541" 
d="M271 737l-203 -35v109h203l203 36v-110h-203zM32 324q0 80 18 145.5t50 112t75.5 72.5t94.5 26t94.5 -26t76 -72.5t50.5 -112t18 -145.5q0 -77 -17 -138.5t-48.5 -105t-75.5 -67.5t-98 -24q-53 0 -97 23.5t-75.5 67t-48.5 105.5t-17 139zM137 336q0 -84 26 -147t71 -106
h73q45 43 71 106t26 147q0 91 -26 153t-70 97h-75q-44 -35 -70 -97t-26 -153z" />
    <glyph glyph-name="uni0153" unicode="&#x153;" horiz-adv-x="669" 
d="M496 183h90v-183h-206l-84 -1q-65 0 -114.5 28t-82.5 73t-50 103.5t-17 120.5q0 65 18 127.5t52 112t83 80t111 30.5q21 0 42 -1t42 -3h92q35 0 65 -16t52 -42t35 -59t13 -68q0 -44 -13 -78.5t-35 -58.5t-52 -36.5t-65 -12.5h-67v-212h13l78 9v87zM405 374h82
q18 19 29 47t11 61t-11 61t-29 47h-82v-216zM142 336q0 -76 26 -143t71 -110h63l9 80v341l-9 82h-64q-44 -43 -70 -109t-26 -141z" />
    <glyph glyph-name="uni0070" unicode="p" horiz-adv-x="478" 
d="M183 674q65 0 114 -28t82 -74t50 -104.5t17 -120.5q0 -65 -18 -127.5t-52 -112t-83 -79.5t-111 -30h-23l3 -191h-120l23 203v496l-19 164l136 4h1zM240 78q22 21 39.5 50t30 62t19.5 70t7 74q0 38 -7 75.5t-19.5 71t-30.5 63t-40 50.5h-80v-516h81z" />
    <glyph glyph-name="uni00FE" unicode="&#xfe;" horiz-adv-x="455" 
d="M65 203v265l-23 203h116l1 -162l99 6q37 0 67.5 -16t52 -42t33.5 -59t12 -68q0 -44 -13 -78.5t-35 -58.5t-52 -36.5t-65 -12.5h-100v-144h-116zM273 219q18 19 29 47t11 61t-11 61t-29 47h-114v-216h114z" />
    <glyph glyph-name="uni0071" unicode="q" horiz-adv-x="482" 
d="M478 -105v-87h-162l3 191h-23q-62 0 -111 30t-83 79.5t-52 112t-18 127.5q0 62 17 120.5t50 104.5t82 74t114 28h1l136 -4l-19 -164v-496l13 -116h52zM319 79v516h-80q-22 -21 -39.5 -50.5t-30.5 -63t-20 -71t-7 -75.5q0 -37 7 -74t19.5 -70t30 -62t39.5 -50h81z" />
    <glyph glyph-name="uni0072" unicode="r" horiz-adv-x="372" 
d="M340 487h-94v87l-78 9h-13v-583h-113l19 166v341l-19 163h298v-183z" />
    <glyph glyph-name="uni0155" unicode="&#x155;" horiz-adv-x="372" 
d="M313 724h-234v84h50l184 33v-117zM340 487h-94v87l-78 9h-13v-583h-113l19 166v341l-19 163h298v-183z" />
    <glyph glyph-name="uni0159" unicode="&#x159;" horiz-adv-x="372" 
d="M196 698l-127 20v106l127 -44l127 44v-106zM340 487h-94v87l-78 9h-13v-583h-113l19 166v341l-19 163h298v-183z" />
    <glyph glyph-name="uni0157" unicode="&#x157;" horiz-adv-x="372" 
d="M340 487h-94v87l-78 9h-13v-583h-113l19 166v341l-19 163h298v-183zM41 -40l98 -1l-106 -254h-140l103 145z" />
    <glyph glyph-name="uni0073" unicode="s" horiz-adv-x="411" 
d="M333 586h-159q-17 -19 -27.5 -46.5t-10.5 -59.5t10.5 -58t27.5 -45h46q36 0 66.5 -16t52 -42t34 -59.5t12.5 -68.5q0 -36 -12.5 -71t-35 -62t-52.5 -43t-65 -16l-172 1l10 83h180q17 18 27 44.5t10 58.5t-10 58t-27 44h-45q-37 0 -67.5 16t-52.5 42t-34.5 59.5
t-12.5 69.5q0 37 15.5 72.5t49.5 63.5t87 45.5t129 17.5q10 0 17.5 -0.5t17.5 -1.5z" />
    <glyph glyph-name="uni015B" unicode="&#x15b;" horiz-adv-x="411" 
d="M119 808h50l184 33v-117h-234v84zM333 586h-159q-17 -19 -27.5 -46.5t-10.5 -59.5t10.5 -58t27.5 -45h46q36 0 66.5 -16t52 -42t34 -59.5t12.5 -68.5q0 -36 -12.5 -71t-35 -62t-52.5 -43t-65 -16l-172 1l10 83h180q17 18 27 44.5t10 58.5t-10 58t-27 44h-45
q-37 0 -67.5 16t-52.5 42t-34.5 59.5t-12.5 69.5q0 37 15.5 72.5t49.5 63.5t87 45.5t129 17.5q10 0 17.5 -0.5t17.5 -1.5z" />
    <glyph glyph-name="uni0161" unicode="&#x161;" horiz-adv-x="411" 
d="M236 698l-127 20v106l127 -44l127 44v-106zM333 586h-159q-17 -19 -27.5 -46.5t-10.5 -59.5t10.5 -58t27.5 -45h46q36 0 66.5 -16t52 -42t34 -59.5t12.5 -68.5q0 -36 -12.5 -71t-35 -62t-52.5 -43t-65 -16l-172 1l10 83h180q17 18 27 44.5t10 58.5t-10 58t-27 44h-45
q-37 0 -67.5 16t-52.5 42t-34.5 59.5t-12.5 69.5q0 37 15.5 72.5t49.5 63.5t87 45.5t129 17.5q10 0 17.5 -0.5t17.5 -1.5z" />
    <glyph glyph-name="uni015F" unicode="&#x15f;" horiz-adv-x="411" 
d="M385 191q0 -32 -10 -62.5t-27 -56t-41 -44t-53 -25.5l3 -3l-105 -254h-142l149 253l-111 1l10 83h180q17 18 27 44.5t10 58.5t-10 58t-27 44h-45q-37 0 -67.5 16t-52.5 42t-34.5 59.5t-12.5 69.5q0 37 15.5 72.5t49.5 63.5t87 45.5t129 17.5q10 0 17.5 -0.5t17.5 -1.5
l-9 -86h-159q-17 -19 -27.5 -46.5t-10.5 -59.5t10.5 -58t27.5 -45h46q36 0 66.5 -16t52 -42t34 -59.5t12.5 -68.5z" />
    <glyph glyph-name="uni0219" unicode="&#x219;" horiz-adv-x="411" 
d="M333 586h-159q-17 -19 -27.5 -46.5t-10.5 -59.5t10.5 -58t27.5 -45h46q36 0 66.5 -16t52 -42t34 -59.5t12.5 -68.5q0 -36 -12.5 -71t-35 -62t-52.5 -43t-65 -16l-172 1l10 83h180q17 18 27 44.5t10 58.5t-10 58t-27 44h-45q-37 0 -67.5 16t-52.5 42t-34.5 59.5
t-12.5 69.5q0 37 15.5 72.5t49.5 63.5t87 45.5t129 17.5q10 0 17.5 -0.5t17.5 -1.5zM153 -295h-140l103 145l45 110l98 -1z" />
    <glyph glyph-name="uni00DF" unicode="&#xdf;" horiz-adv-x="478" 
d="M414 599l20 -164l-145 -1v-55h147l-20 -165v-214h-207v84h113v211h-113v223h112v70h-167v-588h-112l18 164v506h354v-71z" />
    <glyph glyph-name="uni0074" unicode="t" horiz-adv-x="413" 
d="M381 670v-87h-117l-10 -79v-504h-94v520l-1 63l-127 -20v107h126l-1 130h120l-15 -130h119z" />
    <glyph glyph-name="uni0167" unicode="&#x167;" horiz-adv-x="413" 
d="M254 504v-96l104 17v-106l-104 7v-326h-94v319l-108 -25v106h108v120l-1 63l-127 -20v107h126l-1 130h120l-15 -130h119v-87h-117z" />
    <glyph glyph-name="uni0165" unicode="&#x165;" horiz-adv-x="413" 
d="M211 828l-127 20v106l127 -44l127 44v-106zM381 670v-87h-117l-10 -79v-504h-94v520l-1 63l-127 -20v107h126l-1 130h120l-15 -130h119z" />
    <glyph glyph-name="uni0163" unicode="&#x163;" horiz-adv-x="413" 
d="M381 670v-87h-117l-10 -79v-504l-105 -254h-142l149 254l4 5v515l-1 63l-127 -20v107h126l-1 130h120l-15 -130h119z" />
    <glyph glyph-name="uni021B" unicode="&#x21b;" horiz-adv-x="413" 
d="M381 670v-87h-117l-10 -79v-504h-94v520l-1 63l-127 -20v107h126l-1 130h120l-15 -130h119zM158 -40l98 -1l-106 -254h-140l103 145z" />
    <glyph glyph-name="uni0075" unicode="u" horiz-adv-x="429" 
d="M368 166l18 -166l-324 -1v507l-20 164h114v-587h118v587h112l-18 -166v-338z" />
    <glyph glyph-name="uni00FA" unicode="&#xfa;" horiz-adv-x="423" 
d="M331 724h-234v84h50l184 33v-117zM368 166l18 -166l-324 -1v507l-20 164h114v-587h118v587h112l-18 -166v-338z" />
    <glyph glyph-name="uni00FB" unicode="&#xfb;" horiz-adv-x="408" 
d="M204 747l-127 -44v106l127 20l127 -20v-106zM348 166l18 -166l-304 -1v507l-20 164h114v-587h98v587h112l-18 -166v-338z" />
    <glyph glyph-name="uni00FC" unicode="&#xfc;" horiz-adv-x="408" 
d="M92 724l-13 106h109v-106h-96zM233 724l-13 106h109v-106h-96zM348 166l18 -166l-304 -1v507l-20 164h114v-587h98v587h112l-18 -166v-338z" />
    <glyph glyph-name="uni00F9" unicode="&#xf9;" horiz-adv-x="408" 
d="M320 724h-233v117l194 -33h39v-84zM348 166l18 -166l-304 -1v507l-20 164h114v-587h98v587h112l-18 -166v-338z" />
    <glyph glyph-name="uni0171" unicode="&#x171;" horiz-adv-x="408" 
d="M150 731h-95l105 254h137zM251 731l105 254h137l-147 -254h-95zM348 504v-338l18 -166l-304 -1v507l-20 164h114v-587h98v587h112z" />
    <glyph glyph-name="uni016B" unicode="&#x16b;" horiz-adv-x="408" 
d="M204 724l-133 -10v104l133 -10l132 10v-104zM348 166l18 -166l-304 -1v507l-20 164h114v-587h98v587h112l-18 -166v-338z" />
    <glyph glyph-name="uni0173" unicode="&#x173;" horiz-adv-x="408" 
d="M467 -34v-156h-294l66 190l-177 -1v507l-20 164h114v-587h98v587h112l-18 -166v-338l18 -166h-47l-13 -105l3 2l78 10v59h80z" />
    <glyph glyph-name="uni016F" unicode="&#x16f;" horiz-adv-x="429" 
d="M313 710h-200v294h201l-13 -120v-59zM227 928h-34l-6 -42v-104h40v146zM368 166l18 -166l-324 -1v507l-20 164h114v-587h118v587h112l-18 -166v-338z" />
    <glyph glyph-name="uni0076" unicode="v" horiz-adv-x="619" 
d="M498 670h99l-213 -670h-146l-130 462l-88 208h125l168 -559l45 95z" />
    <glyph glyph-name="uni0077" unicode="w" horiz-adv-x="903" 
d="M881 670l-213 -670h-146l-49 174l-55 -174h-146l-130 462l-120 208h157l168 -559l46 95l37 122l-38 134l-100 208h127l59 -184l55 184h98l-106 -333l72 -226l45 95l140 464h99z" />
    <glyph glyph-name="uni1E83" unicode="&#x1e83;" horiz-adv-x="903" 
d="M585 724h-234v84h50l184 33v-117zM881 670l-213 -670h-146l-49 174l-55 -174h-146l-130 462l-120 208h157l168 -559l46 95l37 122l-38 134l-100 208h127l59 -184l55 184h98l-106 -333l72 -226l45 95l140 464h99z" />
    <glyph glyph-name="uni0175" unicode="&#x175;" horiz-adv-x="903" 
d="M468 747l-127 -44v106l127 20l127 -20v-106zM881 670l-213 -670h-146l-49 174l-55 -174h-146l-130 462l-120 208h157l168 -559l46 95l37 122l-38 134l-100 208h127l59 -184l55 184h98l-106 -333l72 -226l45 95l140 464h99z" />
    <glyph glyph-name="uni1E85" unicode="&#x1e85;" horiz-adv-x="903" 
d="M356 724l-13 106h109v-106h-96zM497 724l-13 106h109v-106h-96zM881 670l-213 -670h-146l-49 174l-55 -174h-146l-130 462l-120 208h157l168 -559l46 95l37 122l-38 134l-100 208h127l59 -184l55 184h98l-106 -333l72 -226l45 95l140 464h99z" />
    <glyph glyph-name="uni1E81" unicode="&#x1e81;" horiz-adv-x="903" 
d="M584 724h-233v117l194 -33h39v-84zM881 670l-213 -670h-146l-49 174l-55 -174h-146l-130 462l-120 208h157l168 -559l46 95l37 122l-38 134l-100 208h127l59 -184l55 184h98l-106 -333l72 -226l45 95l140 464h99z" />
    <glyph glyph-name="uni0078" unicode="x" horiz-adv-x="461" 
d="M342 0l-87 225l-83 -225h-140l120 207l54 136l-54 120l-120 207l131 1l84 -227l91 226h102l-143 -337l153 -333h-108z" />
    <glyph glyph-name="uni0079" unicode="y" horiz-adv-x="411" 
d="M350 -29l19 -164h-308v99l195 -21v115h-195v504l-19 166h114l-1 -583h101v583h113l-19 -165v-534z" />
    <glyph glyph-name="uni00FD" unicode="&#xfd;" horiz-adv-x="411" 
d="M320 724h-234v84h50l184 33v-117zM350 -29l19 -164h-308v99l195 -21v115h-195v504l-19 166h114l-1 -583h101v583h113l-19 -165v-534z" />
    <glyph glyph-name="uni0177" unicode="&#x177;" horiz-adv-x="411" 
d="M203 747l-127 -44v106l127 20l127 -20v-106zM350 -29l19 -164h-308v99l195 -21v115h-195v504l-19 166h114l-1 -583h101v583h113l-19 -165v-534z" />
    <glyph glyph-name="uni00FF" unicode="&#xff;" horiz-adv-x="411" 
d="M91 724l-13 106h109v-106h-96zM232 724l-13 106h109v-106h-96zM350 -29l19 -164h-308v99l195 -21v115h-195v504l-19 166h114l-1 -583h101v583h113l-19 -165v-534z" />
    <glyph glyph-name="uni1EF3" unicode="&#x1ef3;" horiz-adv-x="411" 
d="M319 724h-233v117l194 -33h39v-84zM350 -29l19 -164h-308v99l195 -21v115h-195v504l-19 166h114l-1 -583h101v583h113l-19 -165v-534z" />
    <glyph glyph-name="uni007A" unicode="z" horiz-adv-x="469" 
d="M200 87h236v-87h-404l120 209l26 63l-78 -18v109h115l90 220h-253v87h385l-118 -292l87 21v-110h-124z" />
    <glyph glyph-name="uni017A" unicode="&#x17a;" horiz-adv-x="469" 
d="M360 724h-234v84h50l184 33v-117zM200 87h236v-87h-404l120 209l26 63l-78 -18v109h115l90 220h-253v87h385l-118 -292l87 21v-110h-124z" />
    <glyph glyph-name="uni017E" unicode="&#x17e;" horiz-adv-x="469" 
d="M243 698l-127 20v106l127 -44l127 44v-106zM200 87h236v-87h-404l120 209l26 63l-78 -18v109h115l90 220h-253v87h385l-118 -292l87 21v-110h-124z" />
    <glyph glyph-name="uni017C" unicode="&#x17c;" horiz-adv-x="469" 
d="M201 734l-13 106h109v-106h-96zM200 87h236v-87h-404l120 209l26 63l-78 -18v109h115l90 220h-253v87h385l-118 -292l87 21v-110h-124z" />
    <glyph glyph-name="a.ss01" horiz-adv-x="382" 
d="M321 163l19 -163h-298v330l1 62h184v191h-13l-78 -9v-87h-90v183h294l-19 -166v-341zM227 87v216l-91 -7v-200l78 -9h13z" />
    <glyph glyph-name="aacute.ss01" horiz-adv-x="382" 
d="M308 724h-234v84h50l184 33v-117zM321 163l19 -163h-298v330l1 62h184v191h-13l-78 -9v-87h-90v183h294l-19 -166v-341zM227 87v216l-91 -7v-200l78 -9h13z" />
    <glyph glyph-name="abreve.ss01" horiz-adv-x="382" 
d="M61 724l-10 156h80v-71l42 -8l78 10v69h80v-156h-270zM321 163l19 -163h-298v330l1 62h184v191h-13l-78 -9v-87h-90v183h294l-19 -166v-341zM227 87v216l-91 -7v-200l78 -9h13z" />
    <glyph glyph-name="acircumflex.ss01" horiz-adv-x="382" 
d="M191 747l-127 -44v106l127 20l127 -20v-106zM321 163l19 -163h-298v330l1 62h184v191h-13l-78 -9v-87h-90v183h294l-19 -166v-341zM227 87v216l-91 -7v-200l78 -9h13z" />
    <glyph glyph-name="agrave.ss01" horiz-adv-x="382" 
d="M307 724h-233v117l194 -33h39v-84zM321 163l19 -163h-298v330l1 62h184v191h-13l-78 -9v-87h-90v183h294l-19 -166v-341zM227 87v216l-91 -7v-200l78 -9h13z" />
    <glyph glyph-name="amacron.ss01" horiz-adv-x="382" 
d="M191 724l-133 -10v104l133 -10l132 10v-104zM321 163l19 -163h-298v330l1 62h184v191h-13l-78 -9v-87h-90v183h294l-19 -166v-341zM227 87v216l-91 -7v-200l78 -9h13z" />
    <glyph glyph-name="aogonek.ss01" horiz-adv-x="382" 
d="M448 -34v-156h-294l66 190h-178v330l1 62h184v191h-13l-78 -9v-87h-90v183h294l-19 -166v-341l19 -163h-40l-13 -105l3 2l78 10v59h80zM214 87h13v216l-91 -7v-200z" />
    <glyph glyph-name="aring.ss01" horiz-adv-x="382" 
d="M290 710h-200v294h201l-13 -120v-59zM204 928h-34l-6 -42v-104h40v146zM321 163l19 -163h-298v330l1 62h184v191h-13l-78 -9v-87h-90v183h294l-19 -166v-341zM227 87v216l-91 -7v-200l78 -9h13z" />
    <glyph glyph-name="atilde.ss01" horiz-adv-x="382" 
d="M344 847v-110h-153l-153 -35v109h153zM321 504v-341l19 -163h-298v330l1 62h184v191h-13l-78 -9v-87h-90v183h294zM227 87v216l-91 -7v-200l78 -9h13z" />
    <glyph glyph-name="ae.ss01" horiz-adv-x="556" 
d="M514 340l-1 -62h-184v-191h13l78 9v87h90v-183h-468v330l1 62h184v191h-13l-78 -9v-87h-90v183h468v-330zM420 574l-78 9h-13v-218l91 7v202zM227 87v218l-91 -7v-202l78 -9h13z" />
    <glyph glyph-name="b.ss01" horiz-adv-x="456" 
d="M159 670h255l-25 -203v-467h-324v660l-23 203h117v-193zM295 84v502h-136v-502h136z" />
    <glyph glyph-name="c.ss01" horiz-adv-x="382" 
d="M340 487h-94v87l-78 9h-13v-496h13l78 9v87h90v-183h-294l19 166v341l-19 163h298v-183z" />
    <glyph glyph-name="cacute.ss01" horiz-adv-x="382" 
d="M308 724h-234v84h50l184 33v-117zM340 487h-94v87l-78 9h-13v-496h13l78 9v87h90v-183h-294l19 166v341l-19 163h298v-183z" />
    <glyph glyph-name="ccaron.ss01" horiz-adv-x="382" 
d="M191 698l-127 20v106l127 -44l127 44v-106zM340 487h-94v87l-78 9h-13v-496h13l78 9v87h90v-183h-294l19 166v341l-19 163h298v-183z" />
    <glyph glyph-name="ccedilla.ss01" horiz-adv-x="382" 
d="M340 487h-94v87l-78 9h-13v-496h13l78 9v87h90v-183h-94l-105 -254h-142l149 254h-102l19 166v341l-19 163h298v-183z" />
    <glyph glyph-name="d.ss01" horiz-adv-x="456" 
d="M414 863l-23 -203v-660h-324v467l-25 203h255v193h117zM297 587h-136v-503h136v503z" />
    <glyph glyph-name="dcaron.ss01" horiz-adv-x="628" 
d="M414 863l-23 -203v-660h-324v467l-25 203h255v193h117zM505 754l45 108h100l-90 -216h-118zM297 587h-136v-503h136v503z" />
    <glyph glyph-name="dcroat.ss01" horiz-adv-x="478" 
d="M456 694l-60 14l-5 -48v-660h-324v467l-25 203h255v59l-147 -10v106l147 -24v62h117l-7 -63h49v-106zM297 587h-136v-503h136v503z" />
    <glyph glyph-name="e.ss01" horiz-adv-x="382" 
d="M340 340l-1 -62h-184v-191h13l78 9v87h90v-183h-294l19 166v341l-19 163h298v-330zM246 574l-78 9h-13v-216l91 7v200z" />
    <glyph glyph-name="eacute.ss01" horiz-adv-x="382" 
d="M308 724h-234v84h50l184 33v-117zM340 340l-1 -62h-184v-191h13l78 9v87h90v-183h-294l19 166v341l-19 163h298v-330zM246 574l-78 9h-13v-216l91 7v200z" />
    <glyph glyph-name="ecaron.ss01" horiz-adv-x="382" 
d="M191 698l-127 20v106l127 -44l127 44v-106zM340 340l-1 -62h-184v-191h13l78 9v87h90v-183h-294l19 166v341l-19 163h298v-330zM246 574l-78 9h-13v-216l91 7v200z" />
    <glyph glyph-name="ecircumflex.ss01" horiz-adv-x="382" 
d="M191 747l-127 -44v106l127 20l127 -20v-106zM340 340l-1 -62h-184v-191h13l78 9v87h90v-183h-294l19 166v341l-19 163h298v-330zM246 574l-78 9h-13v-216l91 7v200z" />
    <glyph glyph-name="edotaccent.ss01" horiz-adv-x="382" 
d="M149 734l-13 106h109v-106h-96zM340 340l-1 -62h-184v-191h13l78 9v87h90v-183h-294l19 166v341l-19 163h298v-330zM246 574l-78 9h-13v-216l91 7v200z" />
    <glyph glyph-name="egrave.ss01" horiz-adv-x="382" 
d="M307 724h-233v117l194 -33h39v-84zM340 340l-1 -62h-184v-191h13l78 9v87h90v-183h-294l19 166v341l-19 163h298v-330zM246 574l-78 9h-13v-216l91 7v200z" />
    <glyph glyph-name="emacron.ss01" horiz-adv-x="382" 
d="M191 724l-133 -10v104l133 -10l132 10v-104zM340 340l-1 -62h-184v-191h13l78 9v87h90v-183h-294l19 166v341l-19 163h298v-330zM246 574l-78 9h-13v-216l91 7v200z" />
    <glyph glyph-name="f.ss01" horiz-adv-x="321" 
d="M289 778h-134v-214l134 16l-1 -102h-133v-478h-113l19 166v531l-19 165h247v-84z" />
    <glyph glyph-name="g.ss01" horiz-adv-x="470" 
d="M389 585v-83l25 -203h-255v-122h259v-164l19 -166h-395v183h90v-87l78 -9h102l12 1v158h-282l23 216v360h205l168 20v-104h-49zM295 585h-136v-202h136v202z" />
    <glyph glyph-name="gbreve.ss01" horiz-adv-x="470" 
d="M105 724l-10 156h80v-71l42 -8l78 10v69h80v-156h-270zM389 585v-83l25 -203h-255v-122h259v-164l19 -166h-395v183h90v-87l78 -9h102l12 1v158h-282l23 216v360h205l168 20v-104h-49zM295 585h-136v-202h136v202z" />
    <glyph glyph-name="uni0123.ss01" horiz-adv-x="470" 
d="M302 770h-140l66 92l37 113l111 -4zM389 585v-83l25 -203h-255v-122h259v-164l19 -166h-395v183h90v-87l78 -9h102l12 1v158h-282l23 216v360h205l168 20v-104h-49zM295 585h-136v-202h136v202z" />
    <glyph glyph-name="gdotaccent.ss01" horiz-adv-x="470" 
d="M193 734l-13 106h109v-106h-96zM389 585v-83l25 -203h-255v-122h259v-164l19 -166h-395v183h90v-87l78 -9h102l12 1v158h-282l23 216v360h205l168 20v-104h-49zM295 585h-136v-202h136v202z" />
    <glyph glyph-name="o.ss01" horiz-adv-x="421" 
d="M379 0h-81v-1h-191v1h-65l19 166v341l-19 163h337l-19 -163v-341zM155 586v-503h111v503h-111z" />
    <glyph glyph-name="oacute.ss01" horiz-adv-x="421" 
d="M328 724h-234v84h50l184 33v-117zM379 0h-81v-1h-191v1h-65l19 166v341l-19 163h337l-19 -163v-341zM155 586v-503h111v503h-111z" />
    <glyph glyph-name="ocircumflex.ss01" horiz-adv-x="421" 
d="M211 747l-127 -44v106l127 20l127 -20v-106zM379 0h-81v-1h-191v1h-65l19 166v341l-19 163h337l-19 -163v-341zM155 586v-503h111v503h-111z" />
    <glyph glyph-name="odieresis.ss01" horiz-adv-x="421" 
d="M99 724l-13 106h109v-106h-96zM240 724l-13 106h109v-106h-96zM379 0h-81v-1h-191v1h-65l19 166v341l-19 163h337l-19 -163v-341zM155 586v-503h111v503h-111z" />
    <glyph glyph-name="ograve.ss01" horiz-adv-x="421" 
d="M327 724h-233v117l194 -33h39v-84zM379 0h-81v-1h-191v1h-65l19 166v341l-19 163h337l-19 -163v-341zM155 586v-503h111v503h-111z" />
    <glyph glyph-name="ohungarumlaut.ss01" horiz-adv-x="421" 
d="M157 731h-95l105 254h137zM258 731l105 254h137l-147 -254h-95zM360 507v-341l19 -166h-81v-1h-191v1h-65l19 166v341l-19 163h337zM155 586v-503h111v503h-111z" />
    <glyph glyph-name="omacron.ss01" horiz-adv-x="421" 
d="M211 724l-133 -10v104l133 -10l132 10v-104zM379 0h-81v-1h-191v1h-65l19 166v341l-19 163h337l-19 -163v-341zM155 586v-503h111v503h-111z" />
    <glyph glyph-name="oslash.ss01" horiz-adv-x="490" 
d="M421 166l19 -166h-416l50 87l9 78v341l-19 164h278l22 54h102l-26 -55l-19 -164v-339zM173 583v-322l133 322h-133zM331 87v329l-134 -329h134z" />
    <glyph glyph-name="otilde.ss01" horiz-adv-x="421" 
d="M211 737l-153 -35v109h153l153 36v-110h-153zM379 0h-81v-1h-191v1h-65l19 166v341l-19 163h337l-19 -163v-341zM155 586v-503h111v503h-111z" />
    <glyph glyph-name="oe.ss01" horiz-adv-x="595" 
d="M553 340l-1 -62h-184v-191h13l78 9v87h90v-183h-507q5 42 9.5 83.5t9.5 82.5v341l-19 163h511v-330zM266 83v503h-111v-503h111zM459 574l-78 9h-13v-218l91 7v202z" />
    <glyph glyph-name="p.ss01" horiz-adv-x="443" 
d="M52 -193v863h324v-467l25 -203h-255l23 -193h-117zM146 84h136v502h-136v-502z" />
    <glyph glyph-name="q.ss01" horiz-adv-x="443" 
d="M297 0h-255l25 203v467h324v-863h-117zM161 586v-502h136v502h-136z" />
    <glyph glyph-name="s.ss01" horiz-adv-x="397" 
d="M355 0h-304v183h90v-86l88 -10h13v199h-181v221l-19 163h308v-183h-94v86l-88 10h-13v-213h181v-204z" />
    <glyph glyph-name="sacute.ss01" horiz-adv-x="397" 
d="M316 724h-234v84h50l184 33v-117zM355 0h-304v183h90v-86l88 -10h13v199h-181v221l-19 163h308v-183h-94v86l-88 10h-13v-213h181v-204z" />
    <glyph glyph-name="scaron.ss01" horiz-adv-x="397" 
d="M199 698l-127 20v106l127 -44l127 44v-106zM355 0h-304v183h90v-86l88 -10h13v199h-181v221l-19 163h308v-183h-94v86l-88 10h-13v-213h181v-204z" />
    <glyph glyph-name="y.ss02" horiz-adv-x="566" 
d="M534 670l-351 -862h-141l111 192h-92v504l-19 166h114l-1 -583h44l239 583h96z" />
    <glyph glyph-name="yacute.ss02" horiz-adv-x="566" 
d="M400 724h-234v84h50l184 33v-117zM534 670l-351 -862h-141l111 192h-92v504l-19 166h114l-1 -583h44l239 583h96z" />
    <glyph glyph-name="ycircumflex.ss02" horiz-adv-x="566" 
d="M283 747l-127 -44v106l127 20l127 -20v-106zM534 670l-351 -862h-141l111 192h-92v504l-19 166h114l-1 -583h44l239 583h96z" />
    <glyph glyph-name="ydieresis.ss02" horiz-adv-x="566" 
d="M171 724l-13 106h109v-106h-96zM312 724l-13 106h109v-106h-96zM534 670l-351 -862h-141l111 192h-92v504l-19 166h114l-1 -583h44l239 583h96z" />
    <glyph glyph-name="ygrave.ss02" horiz-adv-x="566" 
d="M399 724h-233v117l194 -33h39v-84zM534 670l-351 -862h-141l111 192h-92v504l-19 166h114l-1 -583h44l239 583h96z" />
    <glyph glyph-name="s.ss03" horiz-adv-x="475" 
d="M306 374q30 -7 56.5 -24.5t45.5 -42.5t30 -55t11 -61q0 -36 -12.5 -70.5t-35 -61.5t-52.5 -43.5t-65 -16.5l-258 1l146 254l15 35q-33 5 -60 22t-46.5 42.5t-30 57t-10.5 64.5q0 37 15.5 72.5t49.5 63.5t87 45.5t129 17.5q36 0 65.5 -1t39.5 -3zM223 377l86 209h-121
q-17 -19 -27.5 -46.5t-10.5 -59.5t10.5 -58t27.5 -45h35zM297 83q17 18 32 43t15 60q0 32 -10 58t-27 44h-36l-83 -205h109z" />
    <glyph glyph-name="g.ss04" horiz-adv-x="518" 
d="M437 585v-83l25 -203h-255v-80h108q37 0 67.5 -14.5t52.5 -38.5t34.5 -56t12.5 -68q0 -37 -15.5 -72.5t-49 -63t-87 -44.5t-129.5 -17q-10 0 -17.5 0.5t-17.5 1.5h-76v183h90v-84l154 -13q17 19 27.5 45.5t10.5 58.5t-10.5 55.5t-27.5 42.5h-244l16 193q-35 24 -54.5 63
t-19.5 85q0 37 15.5 72.5t49.5 63t87 44.5t129 17q8 0 14 -0.5t13 -0.5l146 17v-104h-49zM343 585h-163q-17 -19 -27.5 -45.5t-10.5 -58.5t10.5 -55.5t27.5 -42.5h163v202z" />
    <glyph glyph-name="gbreve.ss04" horiz-adv-x="518" 
d="M159 724l-10 156h80v-71l42 -8l78 10v69h80v-156h-270zM437 585v-83l25 -203h-255v-80h108q37 0 67.5 -14.5t52.5 -38.5t34.5 -56t12.5 -68q0 -37 -15.5 -72.5t-49 -63t-87 -44.5t-129.5 -17q-10 0 -17.5 0.5t-17.5 1.5h-76v183h90v-84l154 -13q17 19 27.5 45.5
t10.5 58.5t-10.5 55.5t-27.5 42.5h-244l16 193q-35 24 -54.5 63t-19.5 85q0 37 15.5 72.5t49.5 63t87 44.5t129 17q8 0 14 -0.5t13 -0.5l146 17v-104h-49zM343 585h-163q-17 -19 -27.5 -45.5t-10.5 -58.5t10.5 -55.5t27.5 -42.5h163v202z" />
    <glyph glyph-name="uni0123.ss04" horiz-adv-x="518" 
d="M342 770h-140l66 92l37 113l111 -4zM437 585v-83l25 -203h-255v-80h108q37 0 67.5 -14.5t52.5 -38.5t34.5 -56t12.5 -68q0 -37 -15.5 -72.5t-49 -63t-87 -44.5t-129.5 -17q-10 0 -17.5 0.5t-17.5 1.5h-76v183h90v-84l154 -13q17 19 27.5 45.5t10.5 58.5t-10.5 55.5
t-27.5 42.5h-244l16 193q-35 24 -54.5 63t-19.5 85q0 37 15.5 72.5t49.5 63t87 44.5t129 17q8 0 14 -0.5t13 -0.5l146 17v-104h-49zM343 585h-163q-17 -19 -27.5 -45.5t-10.5 -58.5t10.5 -55.5t27.5 -42.5h163v202z" />
    <glyph glyph-name="gdotaccent.ss04" horiz-adv-x="518" 
d="M247 734l-13 106h109v-106h-96zM437 585v-83l25 -203h-255v-80h108q37 0 67.5 -14.5t52.5 -38.5t34.5 -56t12.5 -68q0 -37 -15.5 -72.5t-49 -63t-87 -44.5t-129.5 -17q-10 0 -17.5 0.5t-17.5 1.5h-76v183h90v-84l154 -13q17 19 27.5 45.5t10.5 58.5t-10.5 55.5
t-27.5 42.5h-244l16 193q-35 24 -54.5 63t-19.5 85q0 37 15.5 72.5t49.5 63t87 44.5t129 17q8 0 14 -0.5t13 -0.5l146 17v-104h-49zM343 585h-163q-17 -19 -27.5 -45.5t-10.5 -58.5t10.5 -55.5t27.5 -42.5h163v202z" />
    <glyph glyph-name="y.ss04" horiz-adv-x="582" 
d="M560 670l-225 -863h-233v99l140 -15l46 109h-16l-130 462l-120 208h167l138 -521l136 521h97z" />
    <glyph glyph-name="yacute.ss04" horiz-adv-x="582" 
d="M435 724h-234v84h50l184 33v-117zM560 670l-225 -863h-233v99l140 -15l46 109h-16l-130 462l-120 208h167l138 -521l136 521h97z" />
    <glyph glyph-name="ycircumflex.ss04" horiz-adv-x="582" 
d="M318 747l-127 -44v106l127 20l127 -20v-106zM560 670l-225 -863h-233v99l140 -15l46 109h-16l-130 462l-120 208h167l138 -521l136 521h97z" />
    <glyph glyph-name="ydieresis.ss04" horiz-adv-x="582" 
d="M206 724l-13 106h109v-106h-96zM347 724l-13 106h109v-106h-96zM560 670l-225 -863h-233v99l140 -15l46 109h-16l-130 462l-120 208h167l138 -521l136 521h97z" />
    <glyph glyph-name="ygrave.ss04" horiz-adv-x="582" 
d="M434 724h-233v117l194 -33h39v-84zM560 670l-225 -863h-233v99l140 -15l46 109h-16l-130 462l-120 208h167l138 -521l136 521h97z" />
    <glyph glyph-name="A_V.dlig" horiz-adv-x="1322" 
d="M1300 862l-350 -862h-138l-119 290h-415l-118 -290h-138l146 254l250 608h150l306 -754l84 146l250 608h92zM658 374l-96 234l-91 157l-159 -391h346z" />
    <glyph glyph-name="A_X.dlig" horiz-adv-x="1358" 
d="M1140 431l175 -431h-107l-128 312l-127 -312h-141l-119 290h-415l-118 -290h-138l146 254l250 608h150l306 -754l85 146l72 177l-72 177l-147 254h152l127 -312l128 312h96zM658 374l-96 234l-91 157l-159 -391h346z" />
    <glyph glyph-name="L_A.dlig" horiz-adv-x="1244" 
d="M997 290h-415l-118 -290h-421l-1 862h99v-655l15 -120h220l96 167l250 608h150l350 -862h-106zM962 374l-96 234l-91 157l-159 -391h346z" />
    <glyph glyph-name="O_O.dlig" horiz-adv-x="1124" 
d="M774 872q78 0 137.5 -39.5t99.5 -103.5t60.5 -145t20.5 -164q0 -79 -18.5 -156t-57.5 -138t-99 -98.5t-143 -37.5h-62q-85 0 -150 42q-65 -42 -150 -42h-62q-82 0 -142 37.5t-99 98.5t-58 138t-19 156q0 83 20.5 164t60.5 145t99.5 103.5t137.5 39.5h62q44 0 81 -12.5
t69 -35.5q32 23 69 35.5t81 12.5h62zM481 86q3 2 5.5 5t5.5 5q-25 32 -43.5 69.5t-30.5 79.5t-18 86t-6 89q0 97 26.5 188t79.5 157q-4 5 -8 9l-9 9h-199q-63 -60 -100 -150t-37 -196q0 -53 10 -103.5t28 -95.5t44 -83.5t57 -68.5h195zM838 86q32 30 57.5 68.5t43.5 83.5
t28 95.5t10 103.5q0 106 -37 196t-100 150h-199l-9 -9t-8 -9q53 -66 79.5 -157t26.5 -188q0 -45 -6 -89t-18 -86t-30.5 -79.5t-43.5 -69.5q3 -2 5.5 -5t5.5 -5h195zM620 437q0 66 -15 127t-43 113q-28 -52 -43 -113t-15 -127t15 -127.5t43 -114.5q28 53 43 114.5t15 127.5z
" />
    <glyph glyph-name="V_T_F.dlig" horiz-adv-x="1078" 
d="M179 1227l399 -964l1 512l-179 -22v129l195 -20h63l192 20v-129l-177 20v-773h-85l-399 973l-147 254h137zM1046 616h-178v-210l178 22v-109h-178v-318h-117l23 204v295l-23 203h295v-87z" />
    <glyph glyph-name="u_t.dlig" horiz-adv-x="953" 
d="M921 862v-87h-225l-15 -117v-658h-98v775h-21l-161 -18l-12 -97v-660h-324v660l-23 203h117v-776h136v776h119v-1h507z" />
    <glyph glyph-name="uniE9B0" unicode="&#xe9b0;" horiz-adv-x="1528" 
d="M253 411l11 20l19 46l-27 66l-74 127h106l37 -91l37 91h84l-79 -194l27 -65l10 19l99 240h83l-149 -367h-83l-29 71l-29 -71h-82l-99 240l-73 127h105zM1153 411l11 20l19 46l-27 66l-74 127h106l37 -91l37 91h84l-79 -194l27 -65l10 19l99 240h83l-149 -367h-83l-29 71
l-29 -71h-82l-99 240l-73 127h105zM713 108l11 20l19 46l-28 66l-73 127h106l37 -90l37 90h83l-79 -193l27 -66l11 19l99 240h83l-150 -367h-82l-29 71l-29 -71h-83l-98 240l-74 127h106z" />
    <glyph glyph-name="M_X.dlig.ss002" horiz-adv-x="714" 
d="M65 203v458l-23 203h117v-6l198 -472l198 471v6h117l-23 -203v-457l23 -204h-117v623l-149 -365l186 -431h-107l-128 312l-127 -312h-152l147 254l83 177l-149 366v-623h-117z" />
    <glyph glyph-name="N_N.dlig.ss02" horiz-adv-x="1168" 
d="M1372 1227l-147 -254l-399 -973h-85l1 612l-251 -612h-134l49 69l1 566l-251 -635h-134l146 253l251 611h81l1 -631l399 994h137l-147 -254l-55 -134l1 -606l399 994h137z" />
    <glyph glyph-name="a.sc" horiz-adv-x="734" 
d="M526 218h-295l-89 -218h-130l120 207l190 463h127l273 -670h-107zM491 302l-66 161l-55 95l-105 -256h226z" />
    <glyph glyph-name="aacute.sc" horiz-adv-x="734" 
d="M504 724h-234v84h50l184 33v-117zM526 218h-295l-89 -218h-130l120 207l190 463h127l273 -670h-107zM491 302l-66 161l-55 95l-105 -256h226z" />
    <glyph glyph-name="abreve.sc" horiz-adv-x="734" 
d="M257 724l-10 156h80v-71l42 -8l78 10v69h80v-156h-270zM526 218h-295l-89 -218h-130l120 207l190 463h127l273 -670h-107zM491 302l-66 161l-55 95l-105 -256h226z" />
    <glyph glyph-name="acircumflex.sc" horiz-adv-x="734" 
d="M387 747l-127 -44v106l127 20l127 -20v-106zM526 218h-295l-89 -218h-130l120 207l190 463h127l273 -670h-107zM491 302l-66 161l-55 95l-105 -256h226z" />
    <glyph glyph-name="adieresis.sc" horiz-adv-x="734" 
d="M275 724l-13 106h109v-106h-96zM416 724l-13 106h109v-106h-96zM526 218h-295l-89 -218h-130l120 207l190 463h127l273 -670h-107zM491 302l-66 161l-55 95l-105 -256h226z" />
    <glyph glyph-name="agrave.sc" horiz-adv-x="734" 
d="M503 724h-233v117l194 -33h39v-84zM526 218h-295l-89 -218h-130l120 207l190 463h127l273 -670h-107zM491 302l-66 161l-55 95l-105 -256h226z" />
    <glyph glyph-name="aring.sc" horiz-adv-x="734" 
d="M486 710h-200v294h201l-13 -120v-59zM400 928h-34l-6 -42v-104h40v146zM526 218h-295l-89 -218h-130l120 207l190 463h127l273 -670h-107zM491 302l-66 161l-55 95l-105 -256h226z" />
    <glyph glyph-name="atilde.sc" horiz-adv-x="734" 
d="M387 737l-203 -35v109h203l203 36v-110h-203zM526 218h-295l-89 -218h-130l120 207l190 463h127l273 -670h-107zM491 302l-66 161l-55 95l-105 -256h226z" />
    <glyph glyph-name="ae.sc" horiz-adv-x="967" 
d="M791 587v-223l134 16l-1 -97h-133v-199h134v-84h-310l-89 218h-295l-89 -218h-130l120 207l190 463h127l242 -593l10 89v340l-19 165h243v-84h-134zM491 302l-66 161l-55 95l-105 -256h226z" />
    <glyph glyph-name="b.sc" horiz-adv-x="404" 
d="M197 674q36 0 64 -17t47.5 -45t29.5 -63t10 -71q0 -39 -12.5 -76t-38.5 -63q32 -28 48.5 -69t16.5 -85q0 -33 -11 -65t-32 -57.5t-50.5 -42.5t-65.5 -20h-161l19 168v339l-19 167h155zM208 373q18 20 29 47.5t11 60.5q0 34 -11.5 63.5t-29.5 49.5h-56v-221h57zM151 80h72
q17 19 28 46.5t11 59.5t-11 59t-28 46h-72v-211z" />
    <glyph glyph-name="c.sc" horiz-adv-x="432" 
d="M380 586h-132q-44 -43 -70 -109t-26 -141q0 -76 26 -143t71 -110h131l10 -83l-84 -1q-65 0 -114.5 28t-82.5 73t-50 103.5t-17 120.5q0 65 18 127.5t52 112t83 80t111 30.5q42 0 84 -3z" />
    <glyph glyph-name="ccedilla.sc" horiz-adv-x="432" 
d="M380 83l10 -83l-105 -254h-142l149 253q-61 4 -108 32.5t-78.5 73.5t-47.5 102t-16 117q0 65 18 127.5t52 112t83 80t111 30.5q42 0 84 -3l-10 -85h-132q-44 -43 -70 -109t-26 -141q0 -76 26 -143t71 -110h131z" />
    <glyph glyph-name="d.sc" horiz-adv-x="470" 
d="M174 672q62 0 111 -30t83 -79.5t52 -112t18 -127.5q0 -61 -17 -120t-50 -105t-82 -74t-114 -28h-1l-132 4l19 164v343l-19 164zM231 76q22 21 40 50.5t30.5 63t19.5 71t7 75.5t-7 74.5t-19.5 69.5t-30 62t-39.5 50h-81v-516h80z" />
    <glyph glyph-name="eth.sc" horiz-adv-x="699" 
d="M657 433l-175 -433h-118q-82 0 -143 36t-100.5 95t-59 134t-19.5 154q0 81 20 161t59 143.5t96.5 103t132.5 39.5h14l19 -1v1l-43 75l-159 -27v109h111l-56 98h141l38 -93l172 31v-110h-140zM489 257l71 176l-73 177l-97 168h-101q-63 -60 -100 -149t-37 -195
t37.5 -196.5t100.5 -150.5h100z" />
    <glyph glyph-name="e.sc" horiz-adv-x="327" 
d="M285 587h-134v-223l134 16l-1 -97h-133v-199h134v-84h-243l19 166v340l-19 165h243v-84z" />
    <glyph glyph-name="eacute.sc" horiz-adv-x="327" 
d="M52 808h50l184 33v-117h-234v84zM285 587h-134v-223l134 16l-1 -97h-133v-199h134v-84h-243l19 166v340l-19 165h243v-84z" />
    <glyph glyph-name="ecircumflex.sc" horiz-adv-x="327" 
d="M296 703l-127 44l-127 -44v106l127 20l127 -20v-106zM285 587h-134v-223l134 16l-1 -97h-133v-199h134v-84h-243l19 166v340l-19 165h243v-84z" />
    <glyph glyph-name="edieresis.sc" horiz-adv-x="327" 
d="M153 724h-96l-13 106h109v-106zM294 724h-96l-13 106h109v-106zM285 587h-134v-223l134 16l-1 -97h-133v-199h134v-84h-243l19 166v340l-19 165h243v-84z" />
    <glyph glyph-name="egrave.sc" horiz-adv-x="327" 
d="M52 724v117l194 -33h39v-84h-233zM285 587h-134v-223l134 16l-1 -97h-133v-199h134v-84h-243l19 166v340l-19 165h243v-84z" />
    <glyph glyph-name="f.sc" horiz-adv-x="327" 
d="M285 587h-134v-223l134 16l-1 -97h-133v-283h-109l19 166v340l-19 165h243v-84z" />
    <glyph glyph-name="g.sc" horiz-adv-x="437" 
d="M384 586h-135q-44 -43 -70.5 -107t-26.5 -139q0 -76 26.5 -140t70.5 -107h44v190h-62v97l152 -12v-268l12 -100h-89q-65 0 -114.5 28t-82.5 74t-50 105t-17 121q0 63 17 124.5t49 111t78.5 80t104.5 30.5q25 0 51.5 -1t51.5 -3z" />
    <glyph glyph-name="h.sc" horiz-adv-x="403" 
d="M151 356h101v315h109l-19 -165v-340l19 -166h-110l1 269h-101v-269h-109l19 165v342l-19 164h109v-315z" />
    <glyph glyph-name="i.sc" horiz-adv-x="232" 
d="M174 647h-109l-12 94h131zM161 425v-261l19 -164h-128l19 166v257l-19 166h128z" />
    <glyph glyph-name="dotlessi.sc" horiz-adv-x="232" 
d="M161 425v-261l19 -164h-128l19 166v257l-19 166h128z" />
    <glyph glyph-name="iacute.sc" horiz-adv-x="232" 
d="M-5 727h50l184 33v-117h-234v84zM163 425v-261l19 -164h-132l19 166v257l-19 166h132z" />
    <glyph glyph-name="icircumflex.sc" horiz-adv-x="232" 
d="M239 622l-127 44l-127 -44v106l127 20l127 -20v-106zM163 425v-261l19 -164h-132l19 166v257l-19 166h132z" />
    <glyph glyph-name="idieresis.sc" horiz-adv-x="232" 
d="M96 643h-96l-13 106h109v-106zM237 643h-96l-13 106h109v-106zM163 425v-261l19 -164h-132l19 166v257l-19 166h132z" />
    <glyph glyph-name="igrave.sc" horiz-adv-x="232" 
d="M-5 643v117l194 -33h39v-84h-233zM163 425v-261l19 -164h-132l19 166v257l-19 166h132z" />
    <glyph glyph-name="j.sc" horiz-adv-x="382" 
d="M321 506v-506h-258v270l-21 164h111v-350h78v587h109z" />
    <glyph glyph-name="k.sc" horiz-adv-x="478" 
d="M151 505v-339l19 -166h-128l19 166v339l-19 166h128zM315 461l-52 -126l52 -127l121 -208h-131l-137 335l137 335h131z" />
    <glyph glyph-name="l.sc" horiz-adv-x="384" 
d="M146 166l10 -82h176v-84h-280v670h94v-504z" />
    <glyph glyph-name="m.sc" horiz-adv-x="572" 
d="M286 326l136 345h108l-18 -164v-343l18 -165h-108v439l-91 -245h-90l-91 245v-438h-108l18 166v340l-18 166h108z" />
    <glyph glyph-name="n.sc" horiz-adv-x="495" 
d="M433 506v-340l20 -167h-131l-171 419v-418h-109l19 166v340l-19 166h105l196 -493v493h109z" />
    <glyph glyph-name="ntilde.sc" horiz-adv-x="495" 
d="M248 737l-203 -35v109h203l203 36v-110h-203zM433 506v-340l20 -167h-131l-171 419v-418h-109l19 166v340l-19 166h105l196 -493v493h109z" />
    <glyph glyph-name="o.sc" horiz-adv-x="440" 
d="M379 506v-340l19 -166h-356l19 165v342l-19 164h356zM289 87v497h-138v-497h138z" />
    <glyph glyph-name="oacute.sc" horiz-adv-x="440" 
d="M103 808h50l184 33v-117h-234v84zM379 506v-340l19 -166h-356l19 165v342l-19 164h356zM289 87v497h-138v-497h138z" />
    <glyph glyph-name="ocircumflex.sc" horiz-adv-x="440" 
d="M347 703l-127 44l-127 -44v106l127 20l127 -20v-106zM379 506v-340l19 -166h-356l19 165v342l-19 164h356zM289 87v497h-138v-497h138z" />
    <glyph glyph-name="odieresis.sc" horiz-adv-x="440" 
d="M204 724h-96l-13 106h109v-106zM345 724h-96l-13 106h109v-106zM379 506v-340l19 -166h-356l19 165v342l-19 164h356zM289 87v497h-138v-497h138z" />
    <glyph glyph-name="ograve.sc" horiz-adv-x="440" 
d="M103 724v117l194 -33h39v-84h-233zM379 506v-340l19 -166h-356l19 165v342l-19 164h356zM289 87v497h-138v-497h138z" />
    <glyph glyph-name="otilde.sc" horiz-adv-x="440" 
d="M220 737l-153 -35v109h153l153 36v-110h-153zM379 506v-340l19 -166h-356l19 165v342l-19 164h356zM289 87v497h-138v-497h138z" />
    <glyph glyph-name="oe.sc" horiz-adv-x="585" 
d="M409 587v-223l134 16l-1 -97h-133v-199h134v-84h-163l-84 -1q-65 0 -114.5 28t-82.5 73t-50 103.5t-17 120.5q0 65 18 127.5t52 112t83 80t111 30.5q42 0 84 -3h163v-84h-134zM310 83l9 83v340l-9 80h-72q-44 -43 -70 -109t-26 -141q0 -76 26 -143t71 -110h71z" />
    <glyph glyph-name="p.sc" horiz-adv-x="425" 
d="M192 671q50 0 87.5 -23.5t62.5 -62t38 -87t13 -99.5q0 -48 -12 -94.5t-36.5 -82.5t-62.5 -58t-89 -22h-40l16 -142h-127l19 166v340l-19 165h150zM151 234h81q30 30 48 74.5t18 98.5q0 53 -18 98t-47 75h-74l-8 -74v-272z" />
    <glyph glyph-name="thorn.sc" horiz-adv-x="456" 
d="M65 203v265l-23 203h116l1 -163l255 1l-25 -203v-162h-231v-144h-116zM295 231v190h-136v-190h136z" />
    <glyph glyph-name="q.sc" horiz-adv-x="439" 
d="M378 506v-340l19 -166h-123l120 -200h-115l-86 200h-151l18 165v342l-18 164h355zM288 87v497h-138v-497h138z" />
    <glyph glyph-name="r.sc" horiz-adv-x="450" 
d="M218 670q35 0 65 -16t52 -42t35 -59t13 -68q0 -28 -10 -55.5t-27 -51.5t-39.5 -42.5t-48.5 -28.5l52 -104l118 -203h-135l-121 299h-21v-299h-109l19 163v341l-19 166h176zM233 374q18 19 29 47t11 61t-11 61t-29 47h-82v-216h82z" />
    <glyph glyph-name="s.sc" horiz-adv-x="411" 
d="M333 586h-159q-17 -19 -27.5 -46.5t-10.5 -59.5t10.5 -58t27.5 -45h46q36 0 66.5 -16t52 -42t34 -59.5t12.5 -68.5q0 -36 -12.5 -71t-35 -62t-52.5 -43t-65 -16l-172 1l10 83h180q17 18 27 44.5t10 58.5t-10 58t-27 44h-45q-37 0 -67.5 16t-52.5 42t-34.5 59.5
t-12.5 69.5q0 37 15.5 72.5t49.5 63.5t87 45.5t129 17.5q10 0 17.5 -0.5t17.5 -1.5z" />
    <glyph glyph-name="germandbls.sc" horiz-adv-x="470" 
d="M406 599l20 -164l-141 -1v-55h143l-20 -165v-214h-203v84h113v211h-113v223h112v70h-167v-588h-108l18 164v508h346v-73z" />
    <glyph glyph-name="t.sc" horiz-adv-x="502" 
d="M470 583h-167l-10 -79v-504h-93v583l-168 -20v107h438v-87z" />
    <glyph glyph-name="uni021B.sc" horiz-adv-x="502" 
d="M470 583h-167l-10 -79v-504h-93v583l-168 -20v107h438v-87zM188 -295h-140l103 145l45 110l98 -1z" />
    <glyph glyph-name="u.sc" horiz-adv-x="380" 
d="M42 671h108v-587h78v587h110l-20 -164v-507h-258v507z" />
    <glyph glyph-name="uacute.sc" horiz-adv-x="408" 
d="M321 724h-234v84h50l184 33v-117zM348 166l18 -166l-304 -1v507l-20 164h114v-587h98v587h112l-18 -166v-338z" />
    <glyph glyph-name="ucircumflex.sc" horiz-adv-x="408" 
d="M204 747l-127 -44v106l127 20l127 -20v-106zM348 166l18 -166l-304 -1v507l-20 164h114v-587h98v587h112l-18 -166v-338z" />
    <glyph glyph-name="udieresis.sc" horiz-adv-x="408" 
d="M92 724l-13 106h109v-106h-96zM233 724l-13 106h109v-106h-96zM348 166l18 -166l-304 -1v507l-20 164h114v-587h98v587h112l-18 -166v-338z" />
    <glyph glyph-name="ugrave.sc" horiz-adv-x="408" 
d="M320 724h-233v117l194 -33h39v-84zM348 166l18 -166l-304 -1v507l-20 164h114v-587h98v587h112l-18 -166v-338z" />
    <glyph glyph-name="v.sc" horiz-adv-x="734" 
d="M625 670h97l-273 -670h-127l-190 462l-120 208h140l228 -559l55 95z" />
    <glyph glyph-name="w.sc" horiz-adv-x="1026" 
d="M1014 670l-273 -670h-127l-83 202l-82 -202h-127l-190 462l-120 208h140l228 -559l55 95l47 115l-58 141l-120 208h140l90 -221l91 221h97l-139 -341l89 -218l55 95l190 464h97z" />
    <glyph glyph-name="wacute.sc" horiz-adv-x="1026" 
d="M650 724h-234v84h50l184 33v-117zM1014 670l-273 -670h-127l-83 202l-82 -202h-127l-190 462l-120 208h140l228 -559l55 95l47 115l-58 141l-120 208h140l90 -221l91 221h97l-139 -341l89 -218l55 95l190 464h97z" />
    <glyph glyph-name="wcircumflex.sc" horiz-adv-x="1026" 
d="M533 747l-127 -44v106l127 20l127 -20v-106zM1014 670l-273 -670h-127l-83 202l-82 -202h-127l-190 462l-120 208h140l228 -559l55 95l47 115l-58 141l-120 208h140l90 -221l91 221h97l-139 -341l89 -218l55 95l190 464h97z" />
    <glyph glyph-name="wdieresis.sc" horiz-adv-x="1026" 
d="M421 724l-13 106h109v-106h-96zM562 724l-13 106h109v-106h-96zM1014 670l-273 -670h-127l-83 202l-82 -202h-127l-190 462l-120 208h140l228 -559l55 95l47 115l-58 141l-120 208h140l90 -221l91 221h97l-139 -341l89 -218l55 95l190 464h97z" />
    <glyph glyph-name="wgrave.sc" horiz-adv-x="1026" 
d="M649 724h-233v117l194 -33h39v-84zM1014 670l-273 -670h-127l-83 202l-82 -202h-127l-190 462l-120 208h140l228 -559l55 95l47 115l-58 141l-120 208h140l90 -221l91 221h97l-139 -341l89 -218l55 95l190 464h97z" />
    <glyph glyph-name="x.sc" horiz-adv-x="461" 
d="M342 0l-88 228l-91 -228h-131l120 207l54 136l-54 120l-120 207l131 1l84 -227l91 226h93l-134 -336l153 -334h-108z" />
    <glyph glyph-name="y.sc" horiz-adv-x="454" 
d="M250 436l88 234h97l-273 -670h-130l120 207l53 128l-53 128l-120 207h131z" />
    <glyph glyph-name="yacute.sc" horiz-adv-x="454" 
d="M110 808h50l184 33v-117h-234v84zM250 436l88 234h97l-273 -670h-130l120 207l53 128l-53 128l-120 207h131z" />
    <glyph glyph-name="ycircumflex.sc" horiz-adv-x="454" 
d="M354 703l-127 44l-127 -44v106l127 20l127 -20v-106zM250 436l88 234h97l-273 -670h-130l120 207l53 128l-53 128l-120 207h131z" />
    <glyph glyph-name="ydieresis.sc" horiz-adv-x="454" 
d="M211 724h-96l-13 106h109v-106zM352 724h-96l-13 106h109v-106zM250 436l88 234h97l-273 -670h-130l120 207l53 128l-53 128l-120 207h131z" />
    <glyph glyph-name="ygrave.sc" horiz-adv-x="454" 
d="M110 724v117l194 -33h39v-84h-233zM250 436l88 234h97l-273 -670h-130l120 207l53 128l-53 128l-120 207h131z" />
    <glyph glyph-name="z.sc" horiz-adv-x="490" 
d="M208 87h236v-87h-400l120 209l153 374h-253v87h381z" />
    <glyph glyph-name="r.sc.ss03" horiz-adv-x="502" 
d="M286 670q35 0 65 -16t52 -42t35 -59t13 -68q0 -28 -11 -59.5t-32 -58t-51 -43.5t-67 -17l53 -104l125 -203h-135l-192 468v-468h-109l19 163v341l-19 166h254zM308 380q18 19 28 44t10 58t-11 61t-29 47h-124l88 -210h38z" />
    <glyph glyph-name="s.sc.ss03" horiz-adv-x="481" 
d="M312 374q30 -7 56.5 -24.5t45.5 -42.5t30 -55t11 -61q0 -36 -12.5 -70.5t-35 -61.5t-52.5 -43.5t-65 -16.5l-258 1l146 254l15 35q-33 5 -60 22t-46.5 42.5t-30 57t-10.5 64.5q0 37 15.5 72.5t49.5 63.5t87 45.5t129 17.5q36 0 65.5 -1t39.5 -3zM229 377l86 209h-121
q-17 -19 -27.5 -46.5t-10.5 -59.5t10.5 -58t27.5 -45h35zM303 83q17 18 32 43t15 60q0 32 -10 58t-27 44h-36l-83 -205h109z" />
    <glyph glyph-name="uni00AA" unicode="&#xaa;" horiz-adv-x="494" 
d="M367 570h-278l211 324h67v-324zM292 646v109l-67 -109h67zM245 429l-203 -35v109h203l203 36v-110h-203z" />
    <glyph glyph-name="uni00BA" unicode="&#xba;" horiz-adv-x="490" 
d="M335 740v-59l12 -115h-200v294h201zM221 638h40v146h-34l-6 -42v-104zM245 429l-203 -35v109h203l203 36v-110h-203z" />
    <glyph glyph-name="uni0030" unicode="0" horiz-adv-x="462" 
d="M430 860l-23 -204v-453l23 -203h-388v860h388zM151 773l-15 -116v-570h177v686h-162z" />
    <glyph glyph-name="uni0031" unicode="1" horiz-adv-x="244" 
d="M169 655v-452l23 -203h-140l23 203v452l-23 207h140z" />
    <glyph glyph-name="uni0032" unicode="2" horiz-adv-x="528" 
d="M470 710l16 -254l-279 1l-28 -370h113l203 25v-112h-443l71 544h253v232h-158v-78h-94v165h346v-153z" />
    <glyph glyph-name="uni0033" unicode="3" horiz-adv-x="497" 
d="M253 97h111l-2 70l-273 304l225 2l-4 301h-158v-73h-94v160h346v-199l32 -266h-155l181 -192v-204h-429v122z" />
    <glyph glyph-name="uni0034" unicode="4" horiz-adv-x="559" 
d="M266 607l-111 -274h209l-10 192h119l-15 -192h64v-87h-64v-246h-119l25 203v43h-342l251 616h141z" />
    <glyph glyph-name="uni0035" unicode="5" horiz-adv-x="524" 
d="M95 0v165h94v-78h158v282h-243l-61 494h453v-112l-203 25h-123l14 -320l283 1l-26 -234v-223h-346z" />
    <glyph glyph-name="uni0036" unicode="6" horiz-adv-x="456" 
d="M417 862v-87h-258v-292h261v-483h-378l23 204v456l-23 202h375zM159 87h153l14 116v193h-167v-309z" />
    <glyph glyph-name="uni0037" unicode="7" horiz-adv-x="593" 
d="M205 0h-149l147 254l215 521h-376v87h519z" />
    <glyph glyph-name="uni0038" unicode="8" horiz-adv-x="506" 
d="M114 516v346h304l-23 -204v-150h69v-508h-418l-2 203l-5 310zM142 86l217 1l11 116v217h-230zM203 659l1 -145l97 -2v263h-86z" />
    <glyph glyph-name="uni0039" unicode="9" horiz-adv-x="453" 
d="M42 361v503h378l-23 -204v-457l23 -203h-375v87h258v274h-261zM136 661v-213h167v329h-153z" />
    <glyph glyph-name="uni2474" unicode="&#x2474;" 
d="M272 776h-113v-689h113v-87h-230l23 203v457l-23 203h230v-87zM704 863l-23 -203v-457l23 -203h-230v87h113v689h-113v87h230zM413 542v-222l13 -120h-110l13 118v226l-13 117h110z" />
    <glyph glyph-name="uni2475" unicode="&#x2475;" 
d="M272 776h-113v-689h113v-87h-230l23 203v457l-23 203h230v-87zM704 863l-23 -203v-457l23 -203h-230v87h113v689h-113v87h230zM477 518l15 -120h-132l-31 -124h43l120 15v-89h-271l74 273h98v114h-47v-38h-84v113h215v-144z" />
    <glyph glyph-name="uni2476" unicode="&#x2476;" 
d="M272 776h-113v-689h113v-87h-230l23 203v457l-23 203h230v-87zM704 863l-23 -203v-457l23 -203h-230v87h113v689h-113v87h230zM372 274h19l-30 70l-87 150h138l-16 93h-50v-38h-84v113h218v-85l21 -157h-84l90 -220h-255v89z" />
    <glyph glyph-name="uni2477" unicode="&#x2477;" 
d="M272 776h-113v-689h113v-87h-230l23 203v457l-23 203h230v-87zM704 863l-23 -203v-457l23 -203h-230v87h113v689h-113v87h230zM371 512l-47 -115h69v100h99l-12 -100h30v-75h-33l1 -123h-99l15 118v5h-182l139 340h106z" />
    <glyph glyph-name="uni2478" unicode="&#x2478;" 
d="M272 776h-113v-689h113v-87h-230l23 203v457l-23 203h230v-87zM704 863l-23 -203v-457l23 -203h-230v87h113v689h-113v87h230zM262 200v113h84v-38h47v114h-98l-74 273h271v-89l-120 15h-43l31 -124h132l-15 -120v-144h-215z" />
    <glyph glyph-name="uni2479" unicode="&#x2479;" 
d="M272 776h-113v-689h113v-87h-230l23 203v457l-23 203h230v-87zM704 863l-23 -203v-457l23 -203h-230v87h113v689h-113v87h230zM475 586h-126v-105l128 1v-284h-225l13 118v228l-13 118h223v-76zM393 266l6 43v97h-50v-140h44z" />
    <glyph glyph-name="uni247A" unicode="&#x247a;" 
d="M272 776h-113v-689h113v-87h-230l23 203v457l-23 203h230v-87zM704 863l-23 -203v-457l23 -203h-230v87h113v689h-113v87h230zM359 200h-117l87 149l98 238h-180v76h302z" />
    <glyph glyph-name="uni247B" unicode="&#x247b;" 
d="M272 776h-113v-689h113v-87h-230l23 203v457l-23 203h230v-87zM704 863l-23 -203v-457l23 -203h-230v87h113v689h-113v87h230zM445 543v-57h63l1 -286h-221l14 120v90h-63l-1 253h221zM317 436h50v151h-45l-5 -42v-109zM425 276l5 42v117h-50v-159h45z" />
    <glyph glyph-name="uni247C" unicode="&#x247c;" 
d="M272 776h-113v-689h113v-87h-230l23 203v457l-23 203h230v-87zM704 863l-23 -203v-457l23 -203h-230v87h113v689h-113v87h230zM263 276h126v105l-128 -1v284h225l-13 -118v-228l13 -118h-223v76zM345 596l-6 -43v-97h50v140h-44z" />
    <glyph glyph-name="uni24F5" unicode="&#x24f5;" horiz-adv-x="1146" 
d="M143 431l73 -177l147 -254h-145l-176 431l176 431h145l-147 -254zM783 862h145l176 -431l-176 -431h-145l147 254l73 177l-73 177zM615 542v-222l13 -120h-110l13 118v226l-13 117h110zM300 608h98l-72 -177l72 -176h-98l-72 176zM846 255h-98l72 176l-72 177h98l72 -177
z" />
    <glyph glyph-name="uni24F6" unicode="&#x24f6;" horiz-adv-x="1146" 
d="M143 431l73 -177l147 -254h-145l-176 431l176 431h145l-147 -254zM783 862h145l176 -431l-176 -431h-145l147 254l73 177l-73 177zM677 518l15 -120h-132l-31 -124h43l120 15v-89h-271l74 273h98v114h-47v-38h-84v113h215v-144zM300 608h98l-72 -177l72 -176h-98l-72 176
zM846 255h-98l72 176l-72 177h98l72 -177z" />
    <glyph glyph-name="uni24F7" unicode="&#x24f7;" horiz-adv-x="1146" 
d="M143 431l73 -177l147 -254h-145l-176 431l176 431h145l-147 -254zM783 862h145l176 -431l-176 -431h-145l147 254l73 177l-73 177zM572 274h19l-30 70l-87 150h138l-16 93h-50v-38h-84v113h218v-85l21 -157h-84l90 -220h-255v89zM300 608h98l-72 -177l72 -176h-98
l-72 176zM846 255h-98l72 176l-72 177h98l72 -177z" />
    <glyph glyph-name="uni24F8" unicode="&#x24f8;" horiz-adv-x="1146" 
d="M143 431l73 -177l147 -254h-145l-176 431l176 431h145l-147 -254zM783 862h145l176 -431l-176 -431h-145l147 254l73 177l-73 177zM571 512l-47 -115h69v100h99l-12 -100h30v-75h-33l1 -123h-99l15 118v5h-182l139 340h106zM300 608h98l-72 -177l72 -176h-98l-72 176z
M846 255h-98l72 176l-72 177h98l72 -177z" />
    <glyph glyph-name="uni24F9" unicode="&#x24f9;" horiz-adv-x="1146" 
d="M143 431l73 -177l147 -254h-145l-176 431l176 431h145l-147 -254zM783 862h145l176 -431l-176 -431h-145l147 254l73 177l-73 177zM462 200v113h84v-38h47v114h-98l-74 273h271v-89l-120 15h-43l31 -124h132l-15 -120v-144h-215zM300 608h98l-72 -177l72 -176h-98
l-72 176zM846 255h-98l72 176l-72 177h98l72 -177z" />
    <glyph glyph-name="uni24FA" unicode="&#x24fa;" horiz-adv-x="1146" 
d="M143 431l73 -177l147 -254h-145l-176 431l176 431h145l-147 -254zM783 862h145l176 -431l-176 -431h-145l147 254l73 177l-73 177zM675 586h-126v-105l128 1v-284h-225l13 118v228l-13 118h223v-76zM300 608h98l-72 -177l72 -176h-98l-72 176zM846 255h-98l72 176
l-72 177h98l72 -177zM593 266l6 43v97h-50v-140h44z" />
    <glyph glyph-name="uni24FB" unicode="&#x24fb;" horiz-adv-x="1146" 
d="M143 431l73 -177l147 -254h-145l-176 431l176 431h145l-147 -254zM783 862h145l176 -431l-176 -431h-145l147 254l73 177l-73 177zM559 200h-117l87 149l98 238h-180v76h302zM300 608h98l-72 -177l72 -176h-98l-72 176zM846 255h-98l72 176l-72 177h98l72 -177z" />
    <glyph glyph-name="uni24FC" unicode="&#x24fc;" horiz-adv-x="1146" 
d="M143 431l73 -177l147 -254h-145l-176 431l176 431h145l-147 -254zM783 862h145l176 -431l-176 -431h-145l147 254l73 177l-73 177zM645 543v-57h63l1 -286h-221l14 120v90h-63l-1 253h221zM300 608h98l-72 -177l72 -176h-98l-72 176zM846 255h-98l72 176l-72 177h98
l72 -177zM517 436h50v151h-45l-5 -42v-109zM625 276l5 42v117h-50v-159h45z" />
    <glyph glyph-name="uni24FD" unicode="&#x24fd;" horiz-adv-x="1146" 
d="M143 431l73 -177l147 -254h-145l-176 431l176 431h145l-147 -254zM783 862h145l176 -431l-176 -431h-145l147 254l73 177l-73 177zM463 276h126v105l-128 -1v284h225l-13 -118v-228l13 -118h-223v76zM300 608h98l-72 -177l72 -176h-98l-72 176zM846 255h-98l72 176
l-72 177h98l72 -177zM545 596l-6 -43v-97h50v140h-44z" />
    <glyph glyph-name="uni24FF" unicode="&#x24ff;" 
d="M678 620v-383l26 -237h-662l26 237v383l-26 237h662zM267 662v-462h231l-13 119v223l13 120h-231zM356 575h45v-289l-50 1v246z" />
    <glyph glyph-name="uni2776" unicode="&#x2776;" 
d="M678 620v-383l26 -237h-662l26 237v383l-26 237h662zM316 661l13 -117v-226l-13 -118h110l-13 120v222l13 119h-110z" />
    <glyph glyph-name="uni2777" unicode="&#x2777;" 
d="M678 620v-383l26 -237h-662l26 237v383l-26 237h662zM262 662v-113h84v38h47v-114h-98l-74 -273h271v89l-120 -15h-43l31 124h132l-15 120v144h-215z" />
    <glyph glyph-name="uni2778" unicode="&#x2778;" 
d="M678 620v-383l26 -237h-662l26 237v383l-26 237h662zM252 200h255l-90 220h84l-21 157v85h-218v-113h84v38h50l16 -93h-138l87 -150l30 -70h-19l-120 15v-89z" />
    <glyph glyph-name="uni2779" unicode="&#x2779;" 
d="M678 620v-383l26 -237h-662l26 237v383l-26 237h662zM351 662l-139 -340h182v-5l-15 -118h99l-1 123h33v75h-30l12 100h-99v-100h-69l47 115l86 150h-106z" />
    <glyph glyph-name="uni277A" unicode="&#x277a;" 
d="M678 620v-383l26 -237h-662l26 237v383l-26 237h662zM477 344l15 120h-132l-31 124h43l120 -15v89h-271l74 -273h98v-114h-47v38h-84v-113h215v144z" />
    <glyph glyph-name="uni277B" unicode="&#x277b;" 
d="M678 620v-383l26 -237h-662l26 237v383l-26 237h662zM252 662l13 -118v-228l-13 -118h225v284l-128 -1v105h126v76h-223zM349 406h50v-97l-6 -43h-44v140z" />
    <glyph glyph-name="uni277C" unicode="&#x277c;" 
d="M678 620v-383l26 -237h-662l26 237v383l-26 237h662zM247 663v-76h180l-98 -238l-87 -149h117l190 463h-302z" />
    <glyph glyph-name="uni277D" unicode="&#x277d;" 
d="M678 620v-383l26 -237h-662l26 237v383l-26 237h662zM238 663l1 -253h63v-90l-14 -120h221l-1 286h-63v57l14 120h-221zM322 587h45v-151h-50v109zM380 435h50v-117l-5 -42h-45v159z" />
    <glyph glyph-name="uni277E" unicode="&#x277e;" 
d="M678 620v-383l26 -237h-662l26 237v383l-26 237h662zM486 200l-13 118v228l13 118h-225v-284l128 1v-105h-126v-76h223zM389 456h-50v97l6 43h44v-140z" />
    <glyph glyph-name="uni24EA" unicode="&#x24ea;" 
d="M678 620v-383l26 -237h-662l26 237v383l-26 237h662zM142 234l-19 -170h500l-19 170v389l19 170h-500l19 -170v-389zM481 542v-223l13 -119h-231v462h231zM347 287l50 -1v289h-45l-5 -42v-246z" />
    <glyph glyph-name="uni2460" unicode="&#x2460;" 
d="M678 620v-383l26 -237h-662l26 237v383l-26 237h662zM142 234l-19 -170h500l-19 170v389l19 170h-500l19 -170v-389zM413 542v-222l13 -120h-110l13 118v226l-13 117h110z" />
    <glyph glyph-name="uni2461" unicode="&#x2461;" 
d="M678 620v-383l26 -237h-662l26 237v383l-26 237h662zM142 234l-19 -170h500l-19 170v389l19 170h-500l19 -170v-389zM477 518l15 -120h-132l-31 -124h43l120 15v-89h-271l74 273h98v114h-47v-38h-84v113h215v-144z" />
    <glyph glyph-name="uni2462" unicode="&#x2462;" 
d="M678 620v-383l26 -237h-662l26 237v383l-26 237h662zM142 234l-19 -170h500l-19 170v389l19 170h-500l19 -170v-389zM372 274h19l-30 70l-87 150h138l-16 93h-50v-38h-84v113h218v-85l21 -157h-84l90 -220h-255v89z" />
    <glyph glyph-name="uni2463" unicode="&#x2463;" 
d="M678 620v-383l26 -237h-662l26 237v383l-26 237h662zM142 234l-19 -170h500l-19 170v389l19 170h-500l19 -170v-389zM371 512l-47 -115h69v100h99l-12 -100h30v-75h-33l1 -123h-99l15 118v5h-182l139 340h106z" />
    <glyph glyph-name="uni2464" unicode="&#x2464;" 
d="M678 620v-383l26 -237h-662l26 237v383l-26 237h662zM142 234l-19 -170h500l-19 170v389l19 170h-500l19 -170v-389zM262 200v113h84v-38h47v114h-98l-74 273h271v-89l-120 15h-43l31 -124h132l-15 -120v-144h-215z" />
    <glyph glyph-name="uni2465" unicode="&#x2465;" 
d="M678 620v-383l26 -237h-662l26 237v383l-26 237h662zM142 234l-19 -170h500l-19 170v389l19 170h-500l19 -170v-389zM475 586h-126v-105l128 1v-284h-225l13 118v228l-13 118h223v-76zM393 266l6 43v97h-50v-140h44z" />
    <glyph glyph-name="uni2466" unicode="&#x2466;" 
d="M678 620v-383l26 -237h-662l26 237v383l-26 237h662zM142 234l-19 -170h500l-19 170v389l19 170h-500l19 -170v-389zM359 200h-117l87 149l98 238h-180v76h302z" />
    <glyph glyph-name="uni2467" unicode="&#x2467;" 
d="M678 620v-383l26 -237h-662l26 237v383l-26 237h662zM142 234l-19 -170h500l-19 170v389l19 170h-500l19 -170v-389zM445 543v-57h63l1 -286h-221l14 120v90h-63l-1 253h221zM317 436h50v151h-45l-5 -42v-109zM425 276l5 42v117h-50v-159h45z" />
    <glyph glyph-name="uni2468" unicode="&#x2468;" 
d="M678 620v-383l26 -237h-662l26 237v383l-26 237h662zM142 234l-19 -170h500l-19 170v389l19 170h-500l19 -170v-389zM263 276h126v105l-128 -1v284h225l-13 -118v-228l13 -118h-223v76zM345 596l-6 -43v-97h50v140h-44z" />
    <glyph glyph-name="zero.doubleCircled" horiz-adv-x="1146" 
d="M143 431l73 -177l147 -254h-145l-176 431l176 431h145l-147 -254zM783 862h145l176 -431l-176 -431h-145l147 254l73 177l-73 177zM681 542v-223l13 -119h-231v462h231zM300 608h98l-72 -177l72 -176h-98l-72 176zM846 255h-98l72 176l-72 177h98l72 -177zM547 287l50 -1
v289h-45l-5 -42v-246z" />
    <glyph glyph-name="zero.paren" 
d="M272 776h-113v-689h113v-87h-230l23 203v457l-23 203h230v-87zM704 863l-23 -203v-457l23 -203h-230v87h113v689h-113v87h230zM481 542v-223l13 -119h-231v462h231zM347 287l50 -1v289h-45l-5 -42v-246z" />
    <glyph glyph-name="six.ss01" horiz-adv-x="456" 
d="M412 578h-119v199h-134v-239h255l-25 -203v-335h-324v660l-23 204h345v-83zM159 87h136v364h-136v-364z" />
    <glyph glyph-name="nine.ss01" horiz-adv-x="456" 
d="M44 285h119v-199h134v239h-255l25 203v335h324v-660l23 -204h-345v83zM297 776h-136v-364h136v364z" />
    <glyph glyph-name="uni2080" unicode="&#x2080;" horiz-adv-x="315" 
d="M260 242v-223l13 -119h-231v462h231zM126 -13l50 -1v289h-45l-5 -42v-246z" />
    <glyph glyph-name="uni2081" unicode="&#x2081;" horiz-adv-x="214" 
d="M149 242v-222l13 -120h-110l13 118v226l-13 117h110z" />
    <glyph glyph-name="uni2082" unicode="&#x2082;" horiz-adv-x="345" 
d="M298 218l15 -120h-132l-31 -124h43l120 15v-89h-271l74 273h98v114h-47v-38h-84v113h215v-144z" />
    <glyph glyph-name="uni2083" unicode="&#x2083;" horiz-adv-x="317" 
d="M162 -26h19l-30 70l-87 150h138l-16 93h-50v-38h-84v113h218v-85l21 -157h-84l90 -220h-255v89z" />
    <glyph glyph-name="uni2084" unicode="&#x2084;" horiz-adv-x="362" 
d="M181 213l-47 -115h69v100h99l-12 -100h30v-75h-33l1 -123h-99l15 118v5h-182l139 340h106z" />
    <glyph glyph-name="uni2085" unicode="&#x2085;" horiz-adv-x="325" 
d="M63 -100v113h84v-38h47v114h-98l-74 273h271v-89l-120 15h-43l31 -124h132l-15 -120v-144h-215z" />
    <glyph glyph-name="uni2086" unicode="&#x2086;" horiz-adv-x="309" 
d="M265 288h-126v-105l128 1v-284h-225l13 118v228l-13 118h223v-76zM183 -32l6 43v97h-50v-140h44z" />
    <glyph glyph-name="uni2087" unicode="&#x2087;" horiz-adv-x="381" 
d="M159 -100h-117l87 149l98 238h-180v76h302z" />
    <glyph glyph-name="uni2088" unicode="&#x2088;" horiz-adv-x="355" 
d="M249 243v-57h63l1 -286h-221l14 120v90h-63l-1 253h221zM121 136h50v151h-45l-5 -42v-109zM229 -24l5 42v117h-50v-159h45z" />
    <glyph glyph-name="uni2089" unicode="&#x2089;" horiz-adv-x="309" 
d="M44 -24h126v105l-128 -1v284h225l-13 -118v-228l13 -118h-223v76zM126 296l-6 -43v-97h50v140h-44z" />
    <glyph glyph-name="uni2070" unicode="&#x2070;" horiz-adv-x="315" 
d="M260 742v-223l13 -119h-231v462h231zM126 487l50 -1v289h-45l-5 -42v-246z" />
    <glyph glyph-name="uni00B9" unicode="&#xb9;" horiz-adv-x="214" 
d="M149 742v-222l13 -120h-110l13 118v226l-13 117h110z" />
    <glyph glyph-name="uni00B2" unicode="&#xb2;" horiz-adv-x="345" 
d="M298 718l15 -120h-132l-31 -124h43l120 15v-89h-271l74 273h98v114h-47v-38h-84v113h215v-144z" />
    <glyph glyph-name="uni00B3" unicode="&#xb3;" horiz-adv-x="317" 
d="M162 474h19l-30 70l-87 150h138l-16 93h-50v-38h-84v113h218v-85l21 -157h-84l90 -220h-255v89z" />
    <glyph glyph-name="uni2074" unicode="&#x2074;" horiz-adv-x="362" 
d="M181 713l-47 -115h69v100h99l-12 -100h30v-75h-33l1 -123h-99l15 118v5h-182l139 340h106z" />
    <glyph glyph-name="uni2075" unicode="&#x2075;" horiz-adv-x="325" 
d="M63 400v113h84v-38h47v114h-98l-74 273h271v-89l-120 15h-43l31 -124h132l-15 -120v-144h-215z" />
    <glyph glyph-name="uni2076" unicode="&#x2076;" horiz-adv-x="309" 
d="M265 788h-126v-105l128 1v-284h-225l13 118v228l-13 118h223v-76zM183 468l6 43v97h-50v-140h44z" />
    <glyph glyph-name="uni2077" unicode="&#x2077;" horiz-adv-x="381" 
d="M159 400h-117l87 149l98 238h-180v76h302z" />
    <glyph glyph-name="uni2078" unicode="&#x2078;" horiz-adv-x="355" 
d="M249 743v-57h63l1 -286h-221l14 120v90h-63l-1 253h221zM121 636h50v151h-45l-5 -42v-109zM229 476l5 42v117h-50v-159h45z" />
    <glyph glyph-name="uni2079" unicode="&#x2079;" horiz-adv-x="309" 
d="M44 476h126v105l-128 -1v284h225l-13 -118v-228l13 -118h-223v76zM126 796l-6 -43v-97h50v140h-44z" />
    <glyph glyph-name="uni2044" unicode="&#x2044;" horiz-adv-x="532" 
d="M160 0h-138l146 254l250 608h92z" />
    <glyph glyph-name="uni00BD" unicode="&#xbd;" horiz-adv-x="665" 
d="M180 0h-138l146 254l250 608h92zM158 742v-222l13 -120h-110l13 118v226l-13 117h110zM608 218l15 -120h-132l-31 -124h43l120 15v-89h-271l74 273h98v114h-47v-38h-84v113h215v-144z" />
    <glyph glyph-name="uni00BC" unicode="&#xbc;" horiz-adv-x="642" 
d="M180 0h-138l146 254l250 608h92zM158 742v-222l13 -120h-110l13 118v226l-13 117h110zM461 213l-47 -115h69v100h99l-12 -100h30v-75h-33l1 -123h-99l15 118v5h-182l139 340h106z" />
    <glyph glyph-name="uni00BE" unicode="&#xbe;" horiz-adv-x="722" 
d="M162 474h19l-30 70l-87 150h138l-16 93h-50v-38h-84v113h218v-85l21 -157h-84l90 -220h-255v89zM260 0h-138l146 254l250 608h92zM541 213l-47 -115h69v100h99l-12 -100h30v-75h-33l1 -123h-99l15 118v5h-182l139 340h106z" />
    <glyph glyph-name="uni002E" unicode="." horiz-adv-x="194" 
d="M68 203h84v-203h-110z" />
    <glyph glyph-name="uni002C" unicode="," horiz-adv-x="246" 
d="M98 -145h-140l103 145l45 110l98 -1z" />
    <glyph glyph-name="uni003A" unicode=":" horiz-adv-x="194" 
d="M126 280h-84v203h110zM68 203h84v-203h-110z" />
    <glyph glyph-name="uni003B" unicode=";" horiz-adv-x="292" 
d="M159 201l-25 204h109v-204h-84zM99 -254h-141l147 254l45 110l100 -1z" />
    <glyph glyph-name="uni2026" unicode="&#x2026;" horiz-adv-x="574" 
d="M68 203h84v-203h-110zM258 203h84v-203h-110zM532 203v-203h-110l26 203h84z" />
    <glyph glyph-name="uni0021" unicode="!" horiz-adv-x="201" 
d="M65 269v420l-23 203h117v-623h-94zM68 203h91v-203h-117z" />
    <glyph glyph-name="uni00A1" unicode="&#xa1;" horiz-adv-x="201" 
d="M133 659h-91v203h117zM136 592v-420l23 -203h-117v623h94z" />
    <glyph glyph-name="uni003F" unicode="?" horiz-adv-x="456" 
d="M389 715l25 -203h-255v-243h-117l23 203v128l230 -1v177h-159v-73h-94v160h347v-148zM67 203h84v-203h-109z" />
    <glyph glyph-name="uni00BF" unicode="&#xbf;" horiz-adv-x="456" 
d="M414 863l-25 -203h-84v203h109zM67 0v148l-25 203h255v243h117l-23 -203v-128l-230 1v-177h159v73h94v-160h-347z" />
    <glyph glyph-name="uni00B7" unicode="&#xb7;" horiz-adv-x="194" 
d="M68 458h84v-204h-110z" />
    <glyph glyph-name="uni2022" unicode="&#x2022;" horiz-adv-x="417" 
d="M42 312q0 40 13 73t35.5 56.5t53 36.5t64.5 13q35 0 65.5 -13t53 -36.5t35.5 -56.5t13 -73q0 -38 -12.5 -69t-34.5 -52.5t-52.5 -33.5t-67.5 -12q-36 0 -66.5 11.5t-52.5 33.5t-34.5 53t-12.5 69z" />
    <glyph glyph-name="uni002A" unicode="*" horiz-adv-x="546" 
d="M273 729l53 133h109l-86 -152l-19 -40h54l120 8v-101l-118 13h-56l19 -45l86 -149h-109l-53 130l-53 -130h-109l86 149l19 45h-56l-118 -13v101l120 -8h54l-19 40l-86 152h109z" />
    <glyph glyph-name="uni0023" unicode="#" horiz-adv-x="768" 
d="M534 399v-109l182 20v-132l-181 20l22 -198h-132l22 201h-113l23 -201h-132l22 200l-195 -22v132l195 -21v111l-195 -22v132l192 -21l-19 181h132l-21 -182h109l-20 182h132l-20 -179l179 19v-132zM334 401v-113h113v113h-113z" />
    <glyph glyph-name="uni002F" unicode="/" horiz-adv-x="532" 
d="M160 0h-138l146 254l250 608h92z" />
    <glyph glyph-name="uni005C" unicode="\" horiz-adv-x="544" 
d="M22 862h150l350 -862h-106l-250 608z" />
    <glyph glyph-name="uni0028" unicode="(" horiz-adv-x="357" 
d="M285 775q-63 -60 -95.5 -148.5t-32.5 -194.5t33 -196t96 -150h18l11 -87q-64 0 -114.5 35.5t-85.5 94t-54 133.5t-19 154q0 82 20 162t55.5 143t85 102t107.5 39l-6 -87h-19z" />
    <glyph glyph-name="uni0029" unicode=")" horiz-adv-x="357" 
d="M47 862q59 0 108 -39t84.5 -102t55.5 -143t20 -162q0 -79 -18.5 -154t-54 -133.5t-86 -94t-114.5 -35.5l11 87h18q63 60 96 150t33 196t-32.5 194.5t-95.5 148.5h-19z" />
    <glyph glyph-name="uni007B" unicode="{" horiz-adv-x="314" 
d="M272 776h-113v-689h113v-87h-230l23 203v457l-23 203h230v-87z" />
    <glyph glyph-name="uni007D" unicode="}" horiz-adv-x="314" 
d="M249 203l23 -203h-230v87h113v689h-113v87h230l-23 -203v-457z" />
    <glyph glyph-name="uni005B" unicode="[" horiz-adv-x="314" 
d="M272 776h-113v-689h113v-87h-230l23 203v457l-23 203h230v-87z" />
    <glyph glyph-name="uni005D" unicode="]" horiz-adv-x="314" 
d="M249 203l23 -203h-230v87h113v689h-113v87h230l-23 -203v-457z" />
    <glyph glyph-name="uni002D" unicode="-" horiz-adv-x="490" 
d="M245 309l-203 -25v109h203l203 25v-109h-203z" />
    <glyph glyph-name="uni2013" unicode="&#x2013;" horiz-adv-x="768" 
d="M512 290h-256l-204 -23v132l204 -22h256l204 22v-132z" />
    <glyph glyph-name="uni2014" unicode="&#x2014;" horiz-adv-x="968" 
d="M712 290h-456l-204 -23v132l204 -22h456l204 22v-132z" />
    <glyph glyph-name="uni005F" unicode="_" horiz-adv-x="768" 
d="M512 0h-256l-204 -23v132l204 -22h256l204 22v-132z" />
    <glyph glyph-name="uni201C" unicode="&#x201c;" horiz-adv-x="360" 
d="M167 754l-45 -110l-100 1l90 217h117zM352 754l-45 -109h-100l90 217h117z" />
    <glyph glyph-name="uni201D" unicode="&#x201d;" horiz-adv-x="360" 
d="M269 755l45 110l100 -1l-90 -217h-117zM84 755l45 109h100l-90 -217h-117z" />
    <glyph glyph-name="uni2018" unicode="&#x2018;" horiz-adv-x="176" 
d="M167 755l-45 -110l-100 1l90 217h118z" />
    <glyph glyph-name="uni2019" unicode="&#x2019;" horiz-adv-x="166" 
d="M85 754l45 110l100 -1l-90 -217h-118z" />
    <glyph glyph-name="uni00AB" unicode="&#xab;" horiz-adv-x="440" 
d="M143 431l73 -177l147 -254h-145l-176 431l176 431h145l-147 -254zM300 608h98l-72 -177l72 -176h-98l-72 176z" />
    <glyph glyph-name="uni00BB" unicode="&#xbb;" horiz-adv-x="440" 
d="M77 862h145l176 -431l-176 -431h-145l147 254l73 177l-73 177zM140 255h-98l72 176l-72 177h98l72 -177z" />
    <glyph glyph-name="uni2039" unicode="&#x2039;" horiz-adv-x="254" 
d="M114 608h98l-72 -177l72 -176h-98l-72 176z" />
    <glyph glyph-name="uni203A" unicode="&#x203a;" horiz-adv-x="254" 
d="M140 255h-98l72 176l-72 177h98l72 -177z" />
    <glyph glyph-name="uni0022" unicode="&#x22;" horiz-adv-x="350" 
d="M269 755l45 110l100 -1l-90 -217h-117zM84 755l45 109h100l-90 -217h-117z" />
    <glyph glyph-name="uni0027" unicode="'" horiz-adv-x="166" 
d="M85 754l45 110l100 -1l-90 -217h-118z" />
    <glyph glyph-name="uni00A2" unicode="&#xa2;" horiz-adv-x="546" 
d="M504 95h-103l11 -95h-140l11 94q-61 3 -106.5 32t-75.5 74t-44.5 102t-14.5 117q0 63 15.5 124t46 110t75.5 80.5t104 35.5l-11 93h140l-11 -94q34 0 63 -0.5t40 -1.5l-10 -85h-103l-2 -21v-457l3 -25h102zM292 178l3 25v457l-2 21h-55q-44 -43 -70 -109t-26 -141
q0 -76 26 -143t71 -110h53z" />
    <glyph glyph-name="uni0024" unicode="$" horiz-adv-x="510" 
d="M484 239q0 -42 -11 -82.5t-31.5 -73t-51 -54.5t-69.5 -28l5 -41h-140l4 39l-125 1l9 86h126l9 77v220q-46 1 -80 21t-57 52t-34.5 73t-11.5 84t11 85t32 76t51.5 57t70.5 29l-5 43h140l-5 -41h90l-9 -87h-91l-8 -75v-231q44 -1 78 -21.5t57 -52.5t34.5 -72.5t11.5 -83.5z
M209 469v231l-8 75h-6q-26 -27 -42.5 -66.5t-16.5 -87.5t16 -86.5t43 -65.5h14zM316 86q26 26 42 62t16 83t-16 86.5t-42 65.5h-13v-220l9 -77h4z" />
    <glyph glyph-name="uni20AC" unicode="&#x20ac;" horiz-adv-x="378" 
d="M336 776h-178v-232l164 20v-109h-164v-71l164 20v-109h-164v-208h178v-87h-294l22 203v457l-22 203h294v-87z" />
    <glyph glyph-name="uni00A3" unicode="&#xa3;" horiz-adv-x="673" 
d="M264 326v-119l15 -120h167v96h94v-183h-456l-1 109l87 -10v220l-138 -16v132l138 -15l-1 443h305v-179l25 -203h-119v295h-116v-363h173l204 22v-132l-204 23h-173z" />
    <glyph glyph-name="uni00A5" unicode="&#xa5;" horiz-adv-x="582" 
d="M305 555l129 312h100l-170 -418l-3 -30l189 21v-129l-199 17v-73l199 22v-129l-196 22l19 -170h-139l19 170l-192 -22v129l196 -22v73l-196 -17v129l186 -21l-5 40l-63 154l-147 254h146z" />
    <glyph glyph-name="uni002B" unicode="+" horiz-adv-x="948" 
d="M527 660v-167h175l204 22v-139l-204 23h-175v-196l23 -203h-140l23 203v196h-187l-204 -23v139l204 -22h187v167l-23 203h140z" />
    <glyph glyph-name="uni00D7" unicode="&#xd7;" horiz-adv-x="408" 
d="M204 513l53 130h109l-86 -149l-34 -83l34 -82l86 -149h-109l-53 130l-53 -130h-109l86 149l34 82l-34 83l-86 149h109z" />
    <glyph glyph-name="uni00F7" unicode="&#xf7;" horiz-adv-x="490" 
d="M274 597h-84v203h110zM245 369l-203 -35v109h203l203 36v-110h-203zM216 203h84v-203h-110z" />
    <glyph glyph-name="uni003D" unicode="=" horiz-adv-x="664" 
d="M406 434h-151l-203 -23v139l203 -22h151l203 22v-139zM409 183h-151l-203 -23v140l203 -23h151l203 23v-140z" />
    <glyph glyph-name="uni003E" unicode="&#x3e;" horiz-adv-x="407" 
d="M42 862h145l176 -431l-176 -431h-145l147 254l73 177l-73 177z" />
    <glyph glyph-name="uni003C" unicode="&#x3c;" horiz-adv-x="405" 
d="M143 431l73 -177l147 -254h-145l-176 431l176 431h145l-147 -254z" />
    <glyph glyph-name="uni007E" unicode="~" horiz-adv-x="490" 
d="M245 949l-203 -35v109h203l203 36v-110h-203z" />
    <glyph glyph-name="uni005E" unicode="^" horiz-adv-x="338" 
d="M296 828l-127 24l-127 -24v106h254v-106z" />
    <glyph glyph-name="uni00B5" unicode="&#xb5;" horiz-adv-x="584" 
d="M287 87h136v776h119l-25 -203v-660h-267l-151 -363h-141l147 254l88 214v555l-23 203h117v-776z" />
    <glyph glyph-name="uni0025" unicode="%" horiz-adv-x="764" 
d="M264 0h-138l146 254l250 608h92zM250 680v-223l13 -119h-221v462h221zM126 425l40 -1v289h-35l-5 -42v-246zM709 341v-223l13 -119h-221v462h221zM585 86l40 -1v289h-35l-5 -42v-246z" />
    <glyph glyph-name="uni223F" unicode="&#x223f;" horiz-adv-x="792" 
d="M141 862v-657l15 -118h322v373h-40v-146h-218v343l-25 205h554l1 -862h-99v655l-15 120h-322v-374h40v146h218v-344l25 -203h-554l-1 862h99z" />
    <glyph glyph-name="uni2191" unicode="&#x2191;" horiz-adv-x="926" 
d="M894 464v-181l-254 259l-131 104l4 -45v-398l23 -203h-145l22 203v398l4 45l-131 -104l-254 -259v181l431 336z" />
    <glyph glyph-name="uni2197" unicode="&#x2197;" horiz-adv-x="802" 
d="M642 0l3 363l-19 162l-27 -33l-281 -281l-128 -159l-107 106l160 128l282 281l32 27l-162 19l-363 -3l128 128l543 -68l67 -542z" />
    <glyph glyph-name="uni2192" unicode="&#x2192;" horiz-adv-x="864" 
d="M832 431l-336 -431h-181l259 254l106 135l-47 -5h-398l-203 -23v139l203 -22h398l47 -5l-106 135l-259 254h181z" />
    <glyph glyph-name="uni2198" unicode="&#x2198;" horiz-adv-x="802" 
d="M770 610l-68 -543l-542 -67l-128 128l363 -3l162 19l-33 27l-281 281l-159 128l106 107l128 -160l281 -282l27 -32l19 162l-3 363z" />
    <glyph glyph-name="uni2193" unicode="&#x2193;" horiz-adv-x="926" 
d="M894 517v-181l-431 -336l-431 336v181l254 -259l131 -104l-4 45v398l-22 203h145l-23 -203v-398l-4 -45l131 104z" />
    <glyph glyph-name="uni2199" unicode="&#x2199;" horiz-adv-x="802" 
d="M770 128l-128 -128l-542 67l-68 543l128 128l-3 -363l19 -162l27 32l281 282l128 160l106 -107l-159 -128l-281 -281l-33 -27l162 -19z" />
    <glyph glyph-name="uni2190" unicode="&#x2190;" horiz-adv-x="864" 
d="M832 500v-139l-203 23h-398l-47 5l106 -135l259 -254h-181l-336 431l336 431h181l-259 -254l-106 -135l47 5h398z" />
    <glyph glyph-name="uni2196" unicode="&#x2196;" horiz-adv-x="802" 
d="M559 286l160 -128l-107 -106l-128 159l-281 281l-27 33l-19 -162l3 -363l-128 128l67 542l543 68l128 -128l-363 3l-162 -19l32 -27z" />
    <glyph glyph-name="uni2194" unicode="&#x2194;" horiz-adv-x="1203" 
d="M1171 431l-336 -431h-181l259 254l106 135l-47 -5h-741l-47 5l106 -135l259 -254h-181l-336 431l336 431h181l-259 -254l-106 -135l47 5h741l47 -5l-106 135l-259 254h181z" />
    <glyph glyph-name="uni2195" unicode="&#x2195;" horiz-adv-x="926" 
d="M640 681l-132 105l6 -46v-741l-6 -46l132 105l254 259v-181l-431 -336l-431 336v181l254 -259l132 -105l-6 46v741l6 46l-132 -105l-254 -259v181l431 336l431 -336v-181z" />
    <glyph glyph-name="uni21DA" unicode="&#x21da;" horiz-adv-x="1102" 
d="M449 383l-99 -11l48 -117h-98l-72 176l72 177h98l-48 -118l98 -11l261 642h142l-148 -256l34 1q78 0 138.5 -39t101.5 -102t62 -143t21 -163q0 -79 -19.5 -154t-59.5 -133.5t-100.5 -94.5t-143.5 -37h-132zM143 431l73 -177l147 -254h-145l-176 431l176 431h145
l-147 -254z" />
    <glyph glyph-name="uni21DB" unicode="&#x21db;" horiz-adv-x="1102" 
d="M653 737l99 12l-48 116h98l72 -175l-72 -177h-98l48 117l-98 11l-261 -641h-142l148 255l-34 -1q-78 0 -138.5 39t-101.5 102t-62 143.5t-21 163.5q0 79 19.5 154t59.5 133.5t101 94.5t143 37h132zM739 1121h145l176 -431l-176 -431h-145l147 254l73 177l-73 177z" />
    <glyph glyph-name="uni25CA" unicode="&#x25ca;" horiz-adv-x="628" 
d="M208 862h212l176 -431l-176 -431h-212l-176 431zM206 254l108 -197l108 197l73 177l-73 177l-108 197l-108 -197l-73 -177z" />
    <glyph glyph-name="uni25AF" unicode="&#x25af;" 
d="M678 620v-383l26 -237h-662l26 237v383l-26 237h662zM142 234l-19 -170h500l-19 170v389l19 170h-500l19 -170v-389z" />
    <glyph glyph-name="uni256C" unicode="&#x256c;" horiz-adv-x="1098" 
d="M33 384l135 -1v84h-47v-57h-74v189h74v-57h47v84l-135 -1l133 230h-159l106 230h-84l15 148v85h195v-132h-74v56h-47v-83l135 1l-133 -231h9l120 15v-89l-76 -155h84l-15 -148v-95l15 -148h-84l76 -155v-89l-120 15h-9l133 -231l-135 1v-83h47v56h74v-132h-195v85
l-15 148h84l-106 230h159zM541 154l-106 -230h84l-15 -148v-85h-195v132h74v-56h47v83l-135 -1l133 231h-9l-120 -15v89l76 155h-84l15 148v95l-15 148h84l-76 155v89l120 -15h9l-133 231l135 -1v83h-47v-56h-74v132h195v-85l15 -148h-84l106 -230h-159l133 -230l-135 1v-84
h47v57h74v-189h-74v57h-47v-84l135 1l-133 -230h159zM583 384l135 -1v84h-47v-57h-74v189h74v-57h47v84l-135 -1l133 230h-159l106 230h-84l15 148v85h195v-132h-74v56h-47v-83l135 1l-133 -231h9l120 15v-89l-76 -155h84l-15 -148v-95l15 -148h-84l76 -155v-89l-120 15h-9
l133 -231l-135 1v-83h47v56h74v-132h-195v85l-15 148h84l-106 230h159zM1091 154l-106 -230h84l-15 -148v-85h-195v132h74v-56h47v83l-135 -1l133 231h-9l-120 -15v89l76 155h-84l15 148v95l-15 148h84l-76 155v89l120 -15h9l-133 231l135 -1v83h-47v-56h-74v132h195v-85
l15 -148h-84l106 -230h-159l133 -230l-135 1v-84h47v57h74v-189h-74v57h-47v-84l135 1l-133 -230h159z" />
    <glyph glyph-name="uni2505" unicode="&#x2505;" horiz-adv-x="1162" 
d="M475 658v-155l246 1v-417h232v273l-181 -1v503h298l-23 -203v-212h83v-87h-83v-156l23 -204h-443v300l-13 116h-139v-212l23 -204h-298v503h181v272h-232v-775h-117l23 203v659h443zM866 447h87v328h-87v-328zM294 87h87v329h-87v-329z" />
    <glyph glyph-name="uni256B" unicode="&#x256b;" horiz-adv-x="710" 
d="M465 919l168 20v-107h-349l120 -190l-255 1v-170h159v136h347v-139l25 -207l-188 1l211 -516h-458v327l-169 -20v107h349l-114 190l250 -1v171h-159v-136h-347v141l-25 203h188l-211 517l458 -1v-327z" />
    <glyph glyph-name="uni0040" unicode="@" horiz-adv-x="1028" 
d="M986 -100v-87h-944l23 203v990l895 -2v-580l25 -206h-173l89 -218h-107l-89 218h-295l-89 -218h-130l120 207l190 463h127l149 -365h89v612l-707 2v-1019h827zM669 305l-65 158l-55 95l-103 -253h223z" />
    <glyph glyph-name="uni0026" unicode="&#x26;" horiz-adv-x="547" 
d="M741 982h-221l-15 -120l-1 -862l-462 1l23 203v454l-23 204h309v-502h-192v-272h247l1 771v123h-21l-203 -25v112h558v-87zM257 447v212l-15 116h-83v-328h98z" />
    <glyph glyph-name="uni00B6" unicode="&#xb6;" horiz-adv-x="552" 
d="M244 314h-202l25 203v344h271v-660l23 -203h-117v316zM510 0h-117v861h94v-658z" />
    <glyph glyph-name="uni00A7" unicode="&#xa7;" horiz-adv-x="442" 
d="M384 701h-93v74h-137v-139l230 1v-125l23 -203l-25 -203v-106h-324v160h94v-73h136v138l-230 -1v125l-23 203l25 203v107h324v-161zM152 312h138v237h-138v-237z" />
    <glyph glyph-name="uni00A9" unicode="&#xa9;" horiz-adv-x="868" 
d="M826 -100v-87h-784l23 203v990h735v-800l25 -206h-201l-69 -1q-82 -1 -143 34.5t-101 94t-59.5 134t-19.5 154.5q0 82 20.5 162t61 143t100 102t136.5 39h74l-10 -87h-139q-63 -60 -100.5 -148.5t-37.5 -194.5t38 -196t101 -150h124v1h106v832h-547v-1019h667z" />
    <glyph glyph-name="uni00AE" unicode="&#xae;" horiz-adv-x="898" 
d="M830 206l25 -206h-308l-162 398h-49v-398h-116l23 203v457l-23 204h227q45 0 78.5 -19.5t55 -51t32.5 -72t11 -83.5q0 -39 -8.5 -76.5t-26.5 -69.5t-45.5 -55t-64.5 -33l62 -150l95 -167h100v832h-597v-1019h717v-87h-834l23 203v990h785v-800zM464 485q27 27 43.5 66
t16.5 78q0 42 -17 81.5t-44 66.5h-127v-292h128z" />
    <glyph glyph-name="uni2117" unicode="&#x2117;" horiz-adv-x="888" 
d="M823 17l23 -204h-804v87h687v1019h-564v-832h117l13 116v448l-23 203h216q45 0 80 -19.5t59 -51.5t36.5 -72.5t12.5 -83.5q0 -44 -13 -87t-37.5 -76.5t-59 -54.5t-78.5 -21h-99v-388h-343l25 206v800h752v-989zM516 475q27 27 43.5 62t16.5 83t-16.5 84t-43.5 63h-127
v-292h127z" />
    <glyph glyph-name="uni2122" unicode="&#x2122;" horiz-adv-x="518" 
d="M304 798l59 -140l59 140v2h74l-6 -61v-135l6 -60h-54v189l-64 -153h-33l-61 153v-189h-54l7 60v136l-7 60h74v-2zM207 753h-66l-5 -34v-175h-49v209h-6l-59 -6v52h185v-46z" />
    <glyph glyph-name="uni00B0" unicode="&#xb0;" horiz-adv-x="285" 
d="M230 740v-59l12 -115h-200v294h201zM116 638h40v146h-34l-6 -42v-104z" />
    <glyph glyph-name="uni2032" unicode="&#x2032;" horiz-adv-x="166" 
d="M85 754l45 110l100 -1l-90 -217h-118z" />
    <glyph glyph-name="uni007C" unicode="|" horiz-adv-x="224" 
d="M159 660v-457l23 -203h-140l23 203v457l-23 202h140z" />
    <glyph glyph-name="uni00A6" unicode="&#xa6;" horiz-adv-x="224" 
d="M159 504h-94v157l-23 203h116zM159 203l23 -203h-117v360h94v-157z" />
    <glyph glyph-name="uni2020" unicode="&#x2020;" horiz-adv-x="701" 
d="M399 715v-58h57l203 22v-129l-203 23h-53l-13 -114l9 -197v-59l23 -203h-140l23 203v59l9 197l-13 114h-56l-203 -23v129l203 -22h60v58l-23 203h140z" />
    <glyph glyph-name="uni2021" unicode="&#x2021;" horiz-adv-x="704" 
d="M399 715v-58h57l203 22v-129l-203 23h-53l-13 -114l13 -114h56l203 23v-129l-203 23h-60v-59l23 -203h-140l23 203v59h-57l-203 -23v129l203 -23h53l13 114l-13 114h-56l-203 -23v129l203 -22h60v58l-23 203h140z" />
    <glyph glyph-name="uni23B5" unicode="&#x23b5;" horiz-adv-x="920" 
d="M42 0l25 204l1 658l370 1l-25 -204v-344h-197v246h-55v-474h598v474h-55v-246h-197v344l-25 204l370 -1l1 -658l25 -204h-836z" />
    <glyph glyph-name="uni232B" unicode="&#x232b;" horiz-adv-x="1486" 
d="M143 431l73 -177l147 -254h-145l-176 431l176 431h145l-147 -254zM489 431l73 -177l147 -254h-145l-176 431l176 431h145l-147 -254zM292 607h98l-72 -177l72 -175h-98l-72 175zM580 496l204 -22h456l204 22v-132l-204 23h-456l-204 -23v132z" />
    <glyph glyph-name="uni2326" unicode="&#x2326;" horiz-adv-x="1486" 
d="M777 862h145l176 -431l-176 -431h-145l147 254l73 177l-73 177zM1123 862h145l176 -431l-176 -431h-145l147 254l73 177l-73 177zM1194 255h-98l72 175l-72 177h98l72 -177zM702 387h-456l-204 -23v132l204 -22h456l204 22v-132z" />
    <glyph glyph-name="uni23B4" unicode="&#x23b4;" horiz-adv-x="920" 
d="M853 658l-1 -658l-370 -1l25 204v344h197v-246h55v474h-598v-474h55v246h197v-344l25 -204l-370 1l-1 658l-25 204h836z" />
    <glyph glyph-name="uni24BA" unicode="&#x24ba;" horiz-adv-x="868" 
d="M826 -100v-87h-784l23 203v990h735v-800l25 -206h-201l-69 -1q-82 -1 -143 34.5t-101 94t-59.5 134t-19.5 154.5q0 82 20.5 162t61 143t100 102t136.5 39h74l-10 -87h-139q-57 -55 -94 -135t-43 -175l190 21l-1 -109h-187q9 -89 45 -164t91 -127h124v1h106v832h-547
v-1019h667z" />
    <glyph glyph-name="uni24BB" unicode="&#x24bb;" horiz-adv-x="868" 
d="M826 -100v-87h-784l23 203v990h735v-423l25 -206h-416v-377h-117l22 203v457l-22 203h294v-87h-178v-312l298 21v434h-547v-1019h667z" />
    <glyph glyph-name="at.ss01" horiz-adv-x="614" 
d="M499 658v-155h83v-87h-83v-212l23 -204h-308v503h191v272h-246v-775h-117l23 203v659h457zM322 87h83v329h-97v-213z" />
    <glyph glyph-name="uniE99D" unicode="&#xe99d;" horiz-adv-x="700" 
d="M253 516h-186l26 206v139h346v-160h-94v73h-158v-171l240 1l-108 -190h339v-107l-164 20h-4v-327h-448zM244 87l159 19v142l-10 79h-119l-99 -240h69z" />
    <glyph glyph-name="registered.ss02" horiz-adv-x="868" 
d="M826 -100v-87h-784l23 203v990h735v-835l25 -206h-256l-144 352h-71v-317h-117l23 203v659h342v-342l25 -203h-105l41 -98l97 -167h46v867h-547v-1019h667zM508 778h-154v-377h154v377z" />
    <glyph glyph-name="uni33C4" unicode="&#x33c4;" horiz-adv-x="1144" 
d="M779 869q78 0 138.5 -39t101.5 -102.5t62 -144t21 -163.5q0 -79 -19.5 -154.5t-59.5 -134.5t-100.5 -95t-143.5 -36h-414q-82 0 -143 36t-101 95t-59.5 134.5t-19.5 154.5q0 83 21 163.5t62 144t101.5 102.5t138.5 39h414zM294 781q-63 -60 -100 -149t-37 -195t37.5 -196
t100.5 -150h554q63 60 100.5 150t37.5 196t-37 195t-100 149h-556zM552 595h-92q-27 -27 -43.5 -67.5t-16.5 -88.5t17 -89t44 -68h91l8 -75l-82 -3q-47 0 -80.5 20t-55 52t-31.5 72.5t-10 82.5q0 45 11.5 88t33.5 77t55.5 54.5t76.5 20.5l82 -1zM824 595h-92
q-27 -27 -43.5 -67.5t-16.5 -88.5t17 -89t44 -68h91l8 -75l-82 -3q-47 0 -80.5 20t-55 52t-31.5 72.5t-10 82.5q0 45 11.5 88t33.5 77t55.5 54.5t76.5 20.5l82 -1z" />
    <glyph glyph-name="uni0308" unicode="&#x308;" horiz-adv-x="0" 
d="M-205 854h-96l-13 106h109v-106zM-64 854h-96l-13 106h109v-106z" />
    <glyph glyph-name="uni0307" unicode="&#x307;" horiz-adv-x="0" 
d="M-64 864h-96l-13 106h109v-106z" />
    <glyph glyph-name="uni0300" unicode="&#x300;" horiz-adv-x="0" 
d="M-297 854v117l194 -33h39v-84h-233z" />
    <glyph glyph-name="uni0301" unicode="&#x301;" horiz-adv-x="0" 
d="M-308 938h50l184 33v-117h-234v84z" />
    <glyph glyph-name="uni030B" unicode="&#x30b;" horiz-adv-x="0" 
d="M-271 1115h137l-147 -254h-95zM-75 1115h137l-147 -254h-95z" />
    <glyph glyph-name="uni0302" unicode="&#x302;" horiz-adv-x="0" 
d="M-42 833l-127 44l-127 -44v106l127 20l127 -20v-106z" />
    <glyph glyph-name="uni030C" unicode="&#x30c;" horiz-adv-x="0" 
d="M-169 828l-127 20v106l127 -44l127 44v-106z" />
    <glyph glyph-name="uni0306" unicode="&#x306;" horiz-adv-x="0" 
d="M-42 1010v-156h-270l-10 156h80v-71l42 -8l78 10v69h80z" />
    <glyph glyph-name="uni030A" unicode="&#x30a;" horiz-adv-x="0" 
d="M-73 1014v-59l12 -115h-200v294h201zM-187 912h40v146h-34l-6 -42v-104z" />
    <glyph glyph-name="uni0303" unicode="&#x303;" horiz-adv-x="0" 
d="M-185 929l-153 -35v109h153l153 36v-110h-153z" />
    <glyph glyph-name="uni0304" unicode="&#x304;" horiz-adv-x="0" 
d="M-174 854l-133 -10v104l133 -10l132 10v-104z" />
    <glyph glyph-name="uni0312" unicode="&#x312;" horiz-adv-x="0" 
d="M-192 646l-20 78v139l100 1l-15 -110l63 -108h-128z" />
    <glyph glyph-name="uni0326" unicode="&#x326;" horiz-adv-x="0" 
d="M-168 -295h-140l103 145l45 110l98 -1z" />
    <glyph glyph-name="uni0327" unicode="&#x327;" horiz-adv-x="0" 
d="M-214 -254h-142l149 254l43 50l55 -50z" />
    <glyph glyph-name="uni0328" unicode="&#x328;" horiz-adv-x="0" 
d="M-72 -44v-156h-294l72 208l74 -18l-13 -105l3 2l78 10v59h80z" />
    <glyph glyph-name="uni00B4" unicode="&#xb4;" horiz-adv-x="382" 
d="M64 948h50l204 23v-107h-254v84z" />
    <glyph glyph-name="uni02D8" unicode="&#x2d8;" horiz-adv-x="408" 
d="M344 1010v-156h-270l-10 156h80v-71l42 -8l78 10v69h80z" />
    <glyph glyph-name="uni02C7" unicode="&#x2c7;" horiz-adv-x="382" 
d="M191 828l-127 20v106l127 -44l127 44v-106z" />
    <glyph glyph-name="uni00B8" unicode="&#xb8;" horiz-adv-x="375" 
d="M206 -254h-142l149 254l43 50l55 -50z" />
    <glyph glyph-name="uni02C6" unicode="&#x2c6;" horiz-adv-x="382" 
d="M318 833l-127 44l-127 -44v106l127 20l127 -20v-106z" />
    <glyph glyph-name="uni00A8" unicode="&#xa8;" horiz-adv-x="378" 
d="M173 864h-96l-13 106h109v-106zM314 864h-96l-13 106h109v-106z" />
    <glyph glyph-name="uni02D9" unicode="&#x2d9;" horiz-adv-x="237" 
d="M173 864h-96l-13 106h109v-106z" />
    <glyph glyph-name="uni0060" unicode="`" horiz-adv-x="382" 
d="M318 864h-254v107l204 -23h50v-84z" />
    <glyph glyph-name="uni02DD" unicode="&#x2dd;" horiz-adv-x="566" 
d="M169 1115h137l-147 -254h-95zM365 1115h137l-147 -254h-95z" />
    <glyph glyph-name="uni00AF" unicode="&#xaf;" horiz-adv-x="393" 
d="M197 854l-133 -10v104l133 -10l132 10v-104z" />
    <glyph glyph-name="uni02DB" unicode="&#x2db;" horiz-adv-x="422" 
d="M358 -44v-156h-294l72 208l74 -18l-13 -105l3 2l78 10v59h80z" />
    <glyph glyph-name="uni02DA" unicode="&#x2da;" horiz-adv-x="329" 
d="M252 1014v-59l12 -115h-200v294h201zM138 912h40v146h-34l-6 -42v-104z" />
    <glyph glyph-name="uni02DC" unicode="&#x2dc;" horiz-adv-x="534" 
d="M267 929l-203 -35v109h203l203 36v-110h-203z" />
    <glyph glyph-name="tildecomb.case" horiz-adv-x="0" 
d="M-296 929l-203 -35v109h203l203 36v-110h-203z" />
    <glyph glyph-name="glyph" horiz-adv-x="0" 
 />
    </font>
</defs>
</svg>
